STARTFONT 2.1
COMMENT
COMMENT Converted from OpenType font "Q:\font stuff\winfont\Querround Regular.ttf" by "otf2bdf 3.0".
COMMENT
FONT -FreeType-Querround-Medium-R-Normal--149-1500-72-72-P-1079-ISO10646-1
SIZE 150 72 72
FONTBOUNDINGBOX 230 212 -35 -45
STARTPROPERTIES 19
FOUNDRY "FreeType"
FAMILY_NAME "Querround"
WEIGHT_NAME "Medium"
SLANT "R"
SETWIDTH_NAME "Normal"
ADD_STYLE_NAME ""
PIXEL_SIZE 168
POINT_SIZE 1500
RESOLUTION_X 72
RESOLUTION_Y 72
SPACING "P"
AVERAGE_WIDTH 1079
CHARSET_REGISTRY "ISO10646"
CHARSET_ENCODING "1"
FONT_ASCENT 183
FONT_DESCENT 44
COPYRIGHT "design: onezero/\2512003onezero/contact: onezero@gmx.ch"
_OTF_FONTFILE "Q:\font stuff\winfont\Querround Regular.ttf"
_OTF_PSNAME "Querround"
ENDPROPERTIES
CHARS 106
STARTCHAR 0020
ENCODING 32
SWIDTH 833 0
DWIDTH 125 0
BBX 0 0 0 0
BITMAP
ENDCHAR
STARTCHAR 0021
ENCODING 33
SWIDTH 186 0
DWIDTH 28 0
BBX 14 125 0 0
BITMAP
FFFC
FFFC
FFFC
FFFC
FFFC
FFFC
FFFC
FFFC
FFFC
FFFC
FFFC
FFFC
FFFC
FFFC
FFFC
FFFC
FFFC
FFFC
FFFC
FFFC
FFFC
FFFC
FFFC
FFFC
FFFC
FFFC
FFFC
FFFC
FFFC
FFFC
FFFC
FFFC
FFFC
FFFC
FFFC
FFFC
FFFC
FFFC
FFFC
FFFC
FFFC
FFFC
FFFC
FFFC
FFFC
FFFC
FFFC
FFFC
FFFC
FFFC
FFFC
FFFC
FFFC
FFFC
FFFC
FFFC
FFFC
FFFC
FFFC
FFFC
FFFC
FFFC
FFFC
FFFC
FFFC
FFFC
FFFC
FFFC
FFFC
FFFC
FFFC
FFFC
FFFC
FFFC
FFFC
FFFC
FFFC
FFFC
FFFC
FFFC
FFFC
FFFC
FFFC
FFFC
FFFC
FFFC
FFFC
FFFC
FFFC
FFFC
FFFC
FFFC
FFFC
FFFC
FFFC
FFFC
FFFC
0000
0000
0000
0000
0000
0000
0000
FFFC
FFFC
FFFC
FFFC
FFFC
FFFC
FFFC
FFFC
FFFC
FFFC
FFFC
FFFC
FFFC
FFFC
FFFC
FFFC
FFFC
FFFC
FFFC
FFFC
FFFC
ENDCHAR
STARTCHAR 0022
ENCODING 34
SWIDTH 326 0
DWIDTH 49 0
BBX 35 50 0 75
BITMAP
FFFC07FFE0
FFFC07FFE0
FFFC07FFE0
FFFC07FFE0
FFFC07FFE0
FFFC07FFE0
FFFC07FFE0
FFFC07FFE0
FFFC07FFE0
FFFC07FFE0
FFFC07FFE0
FFFC07FFE0
FFFC07FFE0
FFFC07FFE0
FFFC07FFE0
FFFC07FFE0
FFFC07FFE0
FFFC07FFE0
FFFC07FFE0
FFFC07FFE0
FFFC07FFE0
FFFC07FFE0
FFFC07FFE0
FFFC07FFE0
FFFC07FFE0
FFFC07FFE0
FFFC07FFE0
FFFC07FFE0
FFFC07FFE0
FFFC07FFE0
FFFC07FFE0
FFFC07FFE0
FFFC07FFE0
FFFC07FFE0
FFFC07FFE0
FFFC07FFE0
FFFC07FFE0
FFFC07FFE0
FFFC07FFE0
FFFC07FFE0
FFFC07FFE0
FFFC07FFE0
FFFC07FFE0
FFFC07FFE0
FFFC07FFE0
FFFC07FFE0
FFFC07FFE0
FFFC07FFE0
FFFC07FFE0
FFFC07FFE0
ENDCHAR
STARTCHAR 0023
ENCODING 35
SWIDTH 1333 0
DWIDTH 200 0
BBX 0 0 0 0
BITMAP
ENDCHAR
STARTCHAR 0024
ENCODING 36
SWIDTH 1333 0
DWIDTH 200 0
BBX 0 0 0 0
BITMAP
ENDCHAR
STARTCHAR 0025
ENCODING 37
SWIDTH 1166 0
DWIDTH 175 0
BBX 0 0 0 0
BITMAP
ENDCHAR
STARTCHAR 0026
ENCODING 38
SWIDTH 1500 0
DWIDTH 225 0
BBX 0 0 0 0
BITMAP
ENDCHAR
STARTCHAR 0027
ENCODING 39
SWIDTH 186 0
DWIDTH 28 0
BBX 14 50 0 75
BITMAP
FFFC
FFFC
FFFC
FFFC
FFFC
FFFC
FFFC
FFFC
FFFC
FFFC
FFFC
FFFC
FFFC
FFFC
FFFC
FFFC
FFFC
FFFC
FFFC
FFFC
FFFC
FFFC
FFFC
FFFC
FFFC
FFFC
FFFC
FFFC
FFFC
FFFC
FFFC
FFFC
FFFC
FFFC
FFFC
FFFC
FFFC
FFFC
FFFC
FFFC
FFFC
FFFC
FFFC
FFFC
FFFC
FFFC
FFFC
FFFC
FFFC
FFFC
ENDCHAR
STARTCHAR 0028
ENCODING 40
SWIDTH 326 0
DWIDTH 49 0
BBX 35 209 0 -42
BITMAP
000003FFE0
00001FFFE0
0000FFFFE0
0003FFFFE0
000FFFFFE0
001FFFFFE0
003FFFFFE0
007FFFFFE0
00FFFFFFE0
01FFFFFFE0
03FFFFFFE0
07FFFFFFE0
0FFFFFFFE0
0FFFFFFFE0
1FFFFF0000
1FFFF80000
3FFFF00000
3FFFC00000
7FFF800000
7FFF800000
7FFF000000
7FFE000000
FFFE000000
FFFE000000
FFFC000000
FFFC000000
FFFC000000
FFFC000000
FFFC000000
FFFC000000
FFFC000000
FFFC000000
FFFC000000
FFFC000000
FFFC000000
FFFC000000
FFFC000000
FFFC000000
FFFC000000
FFFC000000
FFFC000000
FFFC000000
FFFC000000
FFFC000000
FFFC000000
FFFC000000
FFFC000000
FFFC000000
FFFC000000
FFFC000000
FFFC000000
FFFC000000
FFFC000000
FFFC000000
FFFC000000
FFFC000000
FFFC000000
FFFC000000
FFFC000000
FFFC000000
FFFC000000
FFFC000000
FFFC000000
FFFC000000
FFFC000000
FFFC000000
FFFC000000
FFFC000000
FFFC000000
FFFC000000
FFFC000000
FFFC000000
FFFC000000
FFFC000000
FFFC000000
FFFC000000
FFFC000000
FFFC000000
FFFC000000
FFFC000000
FFFC000000
FFFC000000
FFFC000000
FFFC000000
FFFC000000
FFFC000000
FFFC000000
FFFC000000
FFFC000000
FFFC000000
FFFC000000
FFFC000000
FFFC000000
FFFC000000
FFFC000000
FFFC000000
FFFC000000
FFFC000000
FFFC000000
FFFC000000
FFFC000000
FFFC000000
FFFC000000
FFFC000000
FFFC000000
FFFC000000
FFFC000000
FFFC000000
FFFC000000
FFFC000000
FFFC000000
FFFC000000
FFFC000000
FFFC000000
FFFC000000
FFFC000000
FFFC000000
FFFC000000
FFFC000000
FFFC000000
FFFC000000
FFFC000000
FFFC000000
FFFC000000
FFFC000000
FFFC000000
FFFC000000
FFFC000000
FFFC000000
FFFC000000
FFFC000000
FFFC000000
FFFC000000
FFFC000000
FFFC000000
FFFC000000
FFFC000000
FFFC000000
FFFC000000
FFFC000000
FFFC000000
FFFC000000
FFFC000000
FFFC000000
FFFC000000
FFFC000000
FFFC000000
FFFC000000
FFFC000000
FFFC000000
FFFC000000
FFFC000000
FFFC000000
FFFC000000
FFFC000000
FFFC000000
FFFC000000
FFFC000000
FFFC000000
FFFC000000
FFFC000000
FFFC000000
FFFC000000
FFFC000000
FFFC000000
FFFC000000
FFFC000000
FFFC000000
FFFC000000
FFFC000000
FFFC000000
FFFC000000
FFFC000000
FFFC000000
FFFC000000
FFFC000000
FFFC000000
FFFC000000
FFFC000000
FFFC000000
FFFC000000
FFFC000000
FFFC000000
FFFC000000
FFFC000000
FFFC000000
FFFE000000
FFFE000000
7FFF000000
7FFF800000
7FFF800000
3FFFC00000
3FFFF00000
1FFFF80000
1FFFFF0000
0FFFFFFFE0
0FFFFFFFE0
07FFFFFFE0
03FFFFFFE0
01FFFFFFE0
00FFFFFFE0
007FFFFFE0
003FFFFFE0
001FFFFFE0
000FFFFFE0
0003FFFFE0
0000FFFFE0
00003FFFE0
000003FFE0
ENDCHAR
STARTCHAR 0029
ENCODING 41
SWIDTH 326 0
DWIDTH 49 0
BBX 35 209 0 -42
BITMAP
FFF8000000
FFFF000000
FFFFE00000
FFFFF80000
FFFFFC0000
FFFFFF0000
FFFFFF8000
FFFFFFC000
FFFFFFE000
FFFFFFF000
FFFFFFF800
FFFFFFFC00
FFFFFFFC00
FFFFFFFE00
001FFFFF00
0007FFFF00
0001FFFF80
0000FFFF80
00007FFF80
00003FFFC0
00001FFFC0
00001FFFC0
00000FFFE0
00000FFFE0
000007FFE0
000007FFE0
000007FFE0
000007FFE0
000007FFE0
000007FFE0
000007FFE0
000007FFE0
000007FFE0
000007FFE0
000007FFE0
000007FFE0
000007FFE0
000007FFE0
000007FFE0
000007FFE0
000007FFE0
000007FFE0
000007FFE0
000007FFE0
000007FFE0
000007FFE0
000007FFE0
000007FFE0
000007FFE0
000007FFE0
000007FFE0
000007FFE0
000007FFE0
000007FFE0
000007FFE0
000007FFE0
000007FFE0
000007FFE0
000007FFE0
000007FFE0
000007FFE0
000007FFE0
000007FFE0
000007FFE0
000007FFE0
000007FFE0
000007FFE0
000007FFE0
000007FFE0
000007FFE0
000007FFE0
000007FFE0
000007FFE0
000007FFE0
000007FFE0
000007FFE0
000007FFE0
000007FFE0
000007FFE0
000007FFE0
000007FFE0
000007FFE0
000007FFE0
000007FFE0
000007FFE0
000007FFE0
000007FFE0
000007FFE0
000007FFE0
000007FFE0
000007FFE0
000007FFE0
000007FFE0
000007FFE0
000007FFE0
000007FFE0
000007FFE0
000007FFE0
000007FFE0
000007FFE0
000007FFE0
000007FFE0
000007FFE0
000007FFE0
000007FFE0
000007FFE0
000007FFE0
000007FFE0
000007FFE0
000007FFE0
000007FFE0
000007FFE0
000007FFE0
000007FFE0
000007FFE0
000007FFE0
000007FFE0
000007FFE0
000007FFE0
000007FFE0
000007FFE0
000007FFE0
000007FFE0
000007FFE0
000007FFE0
000007FFE0
000007FFE0
000007FFE0
000007FFE0
000007FFE0
000007FFE0
000007FFE0
000007FFE0
000007FFE0
000007FFE0
000007FFE0
000007FFE0
000007FFE0
000007FFE0
000007FFE0
000007FFE0
000007FFE0
000007FFE0
000007FFE0
000007FFE0
000007FFE0
000007FFE0
000007FFE0
000007FFE0
000007FFE0
000007FFE0
000007FFE0
000007FFE0
000007FFE0
000007FFE0
000007FFE0
000007FFE0
000007FFE0
000007FFE0
000007FFE0
000007FFE0
000007FFE0
000007FFE0
000007FFE0
000007FFE0
000007FFE0
000007FFE0
000007FFE0
000007FFE0
000007FFE0
000007FFE0
000007FFE0
000007FFE0
000007FFE0
000007FFE0
000007FFE0
000007FFE0
000007FFE0
000007FFE0
000007FFE0
000007FFE0
000007FFE0
000007FFE0
000007FFE0
000007FFE0
00000FFFE0
00000FFFE0
00001FFFC0
00001FFFC0
00003FFFC0
00007FFF80
0000FFFF80
0001FFFF80
0007FFFF00
001FFFFF00
FFFFFFFE00
FFFFFFFE00
FFFFFFFC00
FFFFFFF800
FFFFFFF000
FFFFFFE000
FFFFFFC000
FFFFFF8000
FFFFFF0000
FFFFFC0000
FFFFF80000
FFFFE00000
FFFF000000
FFF8000000
ENDCHAR
STARTCHAR 002A
ENCODING 42
SWIDTH 1166 0
DWIDTH 175 0
BBX 0 0 0 0
BITMAP
ENDCHAR
STARTCHAR 002B
ENCODING 43
SWIDTH 1166 0
DWIDTH 175 0
BBX 0 0 0 0
BITMAP
ENDCHAR
STARTCHAR 002C
ENCODING 44
SWIDTH 186 0
DWIDTH 28 0
BBX 14 27 0 -13
BITMAP
FFFC
FFFC
FFFC
FFFC
FFFC
FFFC
FFFC
FFFC
FFFC
FFFC
FFFC
FFFC
FFFC
FFFC
FFFC
FFFC
FFFC
FFFC
FFFC
FFFC
FFFC
FFFC
FFFC
FFFC
FFFC
FFFC
FFFC
ENDCHAR
STARTCHAR 002D
ENCODING 45
SWIDTH 580 0
DWIDTH 87 0
BBX 74 14 0 55
BITMAP
FFFFFFFFFFFFFFFFFFC0
FFFFFFFFFFFFFFFFFFC0
FFFFFFFFFFFFFFFFFFC0
FFFFFFFFFFFFFFFFFFC0
FFFFFFFFFFFFFFFFFFC0
FFFFFFFFFFFFFFFFFFC0
FFFFFFFFFFFFFFFFFFC0
FFFFFFFFFFFFFFFFFFC0
FFFFFFFFFFFFFFFFFFC0
FFFFFFFFFFFFFFFFFFC0
FFFFFFFFFFFFFFFFFFC0
FFFFFFFFFFFFFFFFFFC0
FFFFFFFFFFFFFFFFFFC0
FFFFFFFFFFFFFFFFFFC0
ENDCHAR
STARTCHAR 002E
ENCODING 46
SWIDTH 186 0
DWIDTH 28 0
BBX 14 14 0 0
BITMAP
FFFC
FFFC
FFFC
FFFC
FFFC
FFFC
FFFC
FFFC
FFFC
FFFC
FFFC
FFFC
FFFC
FFFC
ENDCHAR
STARTCHAR 002F
ENCODING 47
SWIDTH 973 0
DWIDTH 146 0
BBX 145 125 1 -1
BITMAP
00000000000000000000000000000007FFFF80
0000000000000000000000000000000FFFFE00
0000000000000000000000000000001FFFFC00
0000000000000000000000000000003FFFF800
0000000000000000000000000000007FFFF000
000000000000000000000000000000FFFFE000
000000000000000000000000000001FFFFC000
000000000000000000000000000003FFFF8000
000000000000000000000000000007FFFF0000
00000000000000000000000000000FFFFE0000
00000000000000000000000000001FFFFC0000
00000000000000000000000000003FFFF80000
00000000000000000000000000007FFFF00000
0000000000000000000000000000FFFFE00000
0000000000000000000000000001FFFFC00000
0000000000000000000000000003FFFF800000
000000000000000000000000000FFFFF000000
000000000000000000000000001FFFFE000000
000000000000000000000000003FFFFC000000
000000000000000000000000007FFFF8000000
00000000000000000000000000FFFFF0000000
00000000000000000000000001FFFFE0000000
00000000000000000000000003FFFFC0000000
00000000000000000000000007FFFF80000000
0000000000000000000000000FFFFF00000000
0000000000000000000000001FFFFE00000000
0000000000000000000000003FFFFC00000000
0000000000000000000000007FFFF800000000
000000000000000000000000FFFFF000000000
000000000000000000000001FFFFE000000000
000000000000000000000003FFFFC000000000
000000000000000000000007FFFF8000000000
00000000000000000000000FFFFF0000000000
00000000000000000000001FFFFE0000000000
00000000000000000000003FFFFC0000000000
00000000000000000000007FFFF80000000000
0000000000000000000000FFFFF00000000000
0000000000000000000001FFFFE00000000000
0000000000000000000003FFFFC00000000000
0000000000000000000007FFFF800000000000
000000000000000000000FFFFF000000000000
000000000000000000001FFFFE000000000000
000000000000000000003FFFFC000000000000
000000000000000000007FFFF8000000000000
00000000000000000000FFFFF0000000000000
00000000000000000001FFFFE0000000000000
00000000000000000003FFFFC0000000000000
00000000000000000007FFFF80000000000000
0000000000000000000FFFFF00000000000000
0000000000000000001FFFFE00000000000000
0000000000000000003FFFFC00000000000000
0000000000000000007FFFF800000000000000
000000000000000000FFFFF000000000000000
000000000000000001FFFFE000000000000000
000000000000000003FFFFC000000000000000
000000000000000007FFFF8000000000000000
00000000000000000FFFFF0000000000000000
00000000000000001FFFFE0000000000000000
00000000000000003FFFFC0000000000000000
00000000000000007FFFF80000000000000000
0000000000000000FFFFF00000000000000000
0000000000000001FFFFE00000000000000000
0000000000000003FFFFC00000000000000000
0000000000000007FFFF800000000000000000
000000000000000FFFFF000000000000000000
000000000000001FFFFE000000000000000000
000000000000003FFFFC000000000000000000
000000000000007FFFF8000000000000000000
00000000000000FFFFF0000000000000000000
00000000000001FFFFE0000000000000000000
00000000000003FFFFC0000000000000000000
00000000000007FFFF80000000000000000000
0000000000000FFFFF00000000000000000000
0000000000001FFFFE00000000000000000000
0000000000003FFFFC00000000000000000000
0000000000007FFFF800000000000000000000
000000000000FFFFF000000000000000000000
000000000001FFFFE000000000000000000000
000000000003FFFFC000000000000000000000
000000000007FFFF8000000000000000000000
00000000000FFFFF0000000000000000000000
00000000001FFFFE0000000000000000000000
00000000003FFFFC0000000000000000000000
00000000007FFFF80000000000000000000000
0000000000FFFFF00000000000000000000000
0000000001FFFFE00000000000000000000000
0000000003FFFFC00000000000000000000000
0000000007FFFF800000000000000000000000
000000000FFFFF000000000000000000000000
000000001FFFFE000000000000000000000000
000000003FFFFC000000000000000000000000
000000007FFFF8000000000000000000000000
00000000FFFFF0000000000000000000000000
00000001FFFFE0000000000000000000000000
00000003FFFFC0000000000000000000000000
00000007FFFF80000000000000000000000000
0000000FFFFF00000000000000000000000000
0000001FFFFE00000000000000000000000000
0000003FFFFC00000000000000000000000000
0000007FFFF800000000000000000000000000
000000FFFFF000000000000000000000000000
000001FFFFE000000000000000000000000000
000003FFFFC000000000000000000000000000
000007FFFF8000000000000000000000000000
00000FFFFF0000000000000000000000000000
00001FFFFE0000000000000000000000000000
00003FFFFC0000000000000000000000000000
00007FFFF80000000000000000000000000000
0000FFFFF00000000000000000000000000000
0001FFFFE00000000000000000000000000000
0003FFFFC00000000000000000000000000000
0007FFFF800000000000000000000000000000
000FFFFF000000000000000000000000000000
001FFFFE000000000000000000000000000000
003FFFFC000000000000000000000000000000
007FFFF8000000000000000000000000000000
00FFFFF0000000000000000000000000000000
01FFFFE0000000000000000000000000000000
03FFFFC0000000000000000000000000000000
07FFFF80000000000000000000000000000000
0FFFFF00000000000000000000000000000000
1FFFFE00000000000000000000000000000000
3FFFFC00000000000000000000000000000000
7FFFF800000000000000000000000000000000
FFFFF000000000000000000000000000000000
ENDCHAR
STARTCHAR 0030
ENCODING 48
SWIDTH 1113 0
DWIDTH 167 0
BBX 153 125 0 0
BITMAP
000003FFFFFFFFFFFFFFFFFFFFFFFFFFE0000000
00001FFFFFFFFFFFFFFFFFFFFFFFFFFFFC000000
0000FFFFFFFFFFFFFFFFFFFFFFFFFFFFFF800000
0003FFFFFFFFFFFFFFFFFFFFFFFFFFFFFFE00000
000FFFFFFFFFFFFFFFFFFFFFFFFFFFFFFFF00000
001FFFFFFFFFFFFFFFFFFFFFFFFFFFFFFFFC0000
003FFFFFFFFFFFFFFFFFFFFFFFFFFFFFFFFE0000
007FFFFFFFFFFFFFFFFFFFFFFFFFFFFFFFFF0000
00FFFFFFFFFFFFFFFFFFFFFFFFFFFFFFFFFF8000
01FFFFFFFFFFFFFFFFFFFFFFFFFFFFFFFFFFC000
03FFFFFFFFFFFFFFFFFFFFFFFFFFFFFFFFFFE000
07FFFFFFFFFFFFFFFFFFFFFFFFFFFFFFFFFFF000
0FFFFFFFFFFFFFFFFFFFFFFFFFFFFFFFFFFFF800
0FFFFFFFFFFFFFFFFFFFFFFFFFFFFFFFFFFFF800
1FFFFF000000000000000000000000007FFFFC00
1FFFFC000000000000000000000000001FFFFC00
3FFFF00000000000000000000000000007FFFE00
3FFFE00000000000000000000000000003FFFE00
7FFFC00000000000000000000000000001FFFF00
7FFF800000000000000000000000000000FFFF00
7FFF0000000000000000000000000000007FFF00
7FFE0000000000000000000000000000007FFF00
FFFE0000000000000000000000000000003FFF80
FFFE0000000000000000000000000000003FFF80
FFFC0000000000000000000000000000001FFF80
FFFC0000000000000000000000000000001FFF80
FFFC0000000000000000000000000000001FFF80
FFFC0000000000000000000000000000001FFF80
FFFC000000000000000000000FFFFF00001FFF80
FFFC000000000000000000001FFFFE00001FFF80
FFFC000000000000000000003FFFFC00001FFF80
FFFC000000000000000000007FFFF800001FFF80
FFFC00000000000000000000FFFFF000001FFF80
FFFC00000000000000000001FFFFE000001FFF80
FFFC00000000000000000003FFFFC000001FFF80
FFFC00000000000000000007FFFF8000001FFF80
FFFC0000000000000000000FFFFF0000001FFF80
FFFC0000000000000000001FFFFE0000001FFF80
FFFC0000000000000000003FFFFC0000001FFF80
FFFC0000000000000000007FFFF80000001FFF80
FFFC000000000000000000FFFFF00000001FFF80
FFFC000000000000000001FFFFE00000001FFF80
FFFC000000000000000003FFFFC00000001FFF80
FFFC000000000000000007FFFF800000001FFF80
FFFC00000000000000000FFFFF000000001FFF80
FFFC00000000000000001FFFFE000000001FFF80
FFFC00000000000000003FFFFC000000001FFF80
FFFC00000000000000007FFFF8000000001FFF80
FFFC0000000000000000FFFFF0000000001FFF80
FFFC0000000000000001FFFFE0000000001FFF80
FFFC0000000000000003FFFFC0000000001FFF80
FFFC0000000000000007FFFF80000000001FFF80
FFFC000000000000000FFFFF00000000001FFF80
FFFC000000000000001FFFFE00000000001FFF80
FFFC000000000000003FFFFC00000000001FFF80
FFFC000000000000007FFFF800000000001FFF80
FFFC00000000000000FFFFF000000000001FFF80
FFFC00000000000001FFFFE000000000001FFF80
FFFC00000000000003FFFFC000000000001FFF80
FFFC00000000000007FFFF8000000000001FFF80
FFFC0000000000000FFFFF0000000000001FFF80
FFFC0000000000001FFFFE0000000000001FFF80
FFFC0000000000003FFFFC0000000000001FFF80
FFFC0000000000007FFFF80000000000001FFF80
FFFC000000000000FFFFF00000000000001FFF80
FFFC000000000001FFFFE00000000000001FFF80
FFFC000000000003FFFFC00000000000001FFF80
FFFC000000000007FFFF800000000000001FFF80
FFFC00000000000FFFFF000000000000001FFF80
FFFC00000000001FFFFE000000000000001FFF80
FFFC00000000003FFFFC000000000000001FFF80
FFFC00000000007FFFF8000000000000001FFF80
FFFC0000000000FFFFF0000000000000001FFF80
FFFC0000000001FFFFE0000000000000001FFF80
FFFC0000000003FFFFC0000000000000001FFF80
FFFC0000000007FFFF80000000000000001FFF80
FFFC000000000FFFFF00000000000000001FFF80
FFFC000000001FFFFE00000000000000001FFF80
FFFC000000003FFFFC00000000000000001FFF80
FFFC000000007FFFF800000000000000001FFF80
FFFC00000000FFFFF000000000000000001FFF80
FFFC00000001FFFFE000000000000000001FFF80
FFFC00000003FFFFC000000000000000001FFF80
FFFC00000007FFFF8000000000000000001FFF80
FFFC0000000FFFFF0000000000000000001FFF80
FFFC0000001FFFFE0000000000000000001FFF80
FFFC0000003FFFFC0000000000000000001FFF80
FFFC0000007FFFF80000000000000000001FFF80
FFFC000000FFFFF00000000000000000001FFF80
FFFC000001FFFFE00000000000000000001FFF80
FFFC000003FFFFC00000000000000000001FFF80
FFFC000007FFFF800000000000000000001FFF80
FFFC00000FFFFF000000000000000000001FFF80
FFFC00001FFFFE000000000000000000001FFF80
FFFC00003FFFFC000000000000000000001FFF80
FFFC00007FFFF8000000000000000000001FFF80
FFFC0000FFFFF0000000000000000000001FFF80
FFFC0000000000000000000000000000001FFF80
FFFC0000000000000000000000000000001FFF80
FFFC0000000000000000000000000000001FFF80
FFFC0000000000000000000000000000001FFF80
FFFE0000000000000000000000000000003FFF80
FFFE0000000000000000000000000000003FFF80
7FFE0000000000000000000000000000007FFF00
7FFF0000000000000000000000000000007FFF00
7FFF800000000000000000000000000000FFFF00
7FFFC00000000000000000000000000001FFFE00
3FFFE00000000000000000000000000003FFFE00
3FFFF00000000000000000000000000007FFFE00
1FFFF8000000000000000000000000000FFFFC00
1FFFFF000000000000000000000000007FFFFC00
0FFFFFFFFFFFFFFFFFFFFFFFFFFFFFFFFFFFF800
0FFFFFFFFFFFFFFFFFFFFFFFFFFFFFFFFFFFF800
07FFFFFFFFFFFFFFFFFFFFFFFFFFFFFFFFFFF000
03FFFFFFFFFFFFFFFFFFFFFFFFFFFFFFFFFFE000
01FFFFFFFFFFFFFFFFFFFFFFFFFFFFFFFFFFC000
00FFFFFFFFFFFFFFFFFFFFFFFFFFFFFFFFFF8000
007FFFFFFFFFFFFFFFFFFFFFFFFFFFFFFFFF0000
003FFFFFFFFFFFFFFFFFFFFFFFFFFFFFFFFE0000
001FFFFFFFFFFFFFFFFFFFFFFFFFFFFFFFFC0000
000FFFFFFFFFFFFFFFFFFFFFFFFFFFFFFFF80000
0003FFFFFFFFFFFFFFFFFFFFFFFFFFFFFFE00000
0000FFFFFFFFFFFFFFFFFFFFFFFFFFFFFF800000
00003FFFFFFFFFFFFFFFFFFFFFFFFFFFFE000000
000003FFFFFFFFFFFFFFFFFFFFFFFFFFE0000000
ENDCHAR
STARTCHAR 0031
ENCODING 49
SWIDTH 646 0
DWIDTH 97 0
BBX 83 125 0 0
BITMAP
FFFFFFFFFFFFFFF8000000
FFFFFFFFFFFFFFFF800000
FFFFFFFFFFFFFFFFE00000
FFFFFFFFFFFFFFFFF80000
FFFFFFFFFFFFFFFFFE0000
FFFFFFFFFFFFFFFFFF0000
FFFFFFFFFFFFFFFFFF8000
FFFFFFFFFFFFFFFFFFC000
FFFFFFFFFFFFFFFFFFE000
FFFFFFFFFFFFFFFFFFF000
FFFFFFFFFFFFFFFFFFF800
FFFFFFFFFFFFFFFFFFFC00
FFFFFFFFFFFFFFFFFFFE00
FFFFFFFFFFFFFFFFFFFE00
000000000000001FFFFF00
0000000000000007FFFF00
0000000000000001FFFF80
0000000000000000FFFF80
00000000000000007FFFC0
00000000000000003FFFC0
00000000000000001FFFC0
00000000000000001FFFC0
00000000000000000FFFE0
00000000000000000FFFE0
000000000000000007FFE0
000000000000000007FFE0
000000000000000007FFE0
000000000000000007FFE0
000000000000000007FFE0
000000000000000007FFE0
000000000000000007FFE0
000000000000000007FFE0
000000000000000007FFE0
000000000000000007FFE0
000000000000000007FFE0
000000000000000007FFE0
000000000000000007FFE0
000000000000000007FFE0
000000000000000007FFE0
000000000000000007FFE0
000000000000000007FFE0
000000000000000007FFE0
000000000000000007FFE0
000000000000000007FFE0
000000000000000007FFE0
000000000000000007FFE0
000000000000000007FFE0
000000000000000007FFE0
000000000000000007FFE0
000000000000000007FFE0
000000000000000007FFE0
000000000000000007FFE0
000000000000000007FFE0
000000000000000007FFE0
000000000000000007FFE0
000000000000000007FFE0
000000000000000007FFE0
000000000000000007FFE0
000000000000000007FFE0
000000000000000007FFE0
000000000000000007FFE0
000000000000000007FFE0
000000000000000007FFE0
000000000000000007FFE0
000000000000000007FFE0
000000000000000007FFE0
000000000000000007FFE0
000000000000000007FFE0
000000000000000007FFE0
000000000000000007FFE0
000000000000000007FFE0
000000000000000007FFE0
000000000000000007FFE0
000000000000000007FFE0
000000000000000007FFE0
000000000000000007FFE0
000000000000000007FFE0
000000000000000007FFE0
000000000000000007FFE0
000000000000000007FFE0
000000000000000007FFE0
000000000000000007FFE0
000000000000000007FFE0
000000000000000007FFE0
000000000000000007FFE0
000000000000000007FFE0
000000000000000007FFE0
000000000000000007FFE0
000000000000000007FFE0
000000000000000007FFE0
000000000000000007FFE0
000000000000000007FFE0
000000000000000007FFE0
000000000000000007FFE0
000000000000000007FFE0
000000000000000007FFE0
000000000000000007FFE0
000000000000000007FFE0
000000000000000007FFE0
000000000000000007FFE0
000000000000000007FFE0
000000000000000007FFE0
000000000000000007FFE0
000000000000000007FFE0
000000000000000007FFE0
000000000000000007FFE0
000000000000000007FFE0
000000000000000007FFE0
000000000000000007FFE0
000000000000000007FFE0
000000000000000007FFE0
000000000000000007FFE0
000000000000000007FFE0
000000000000000007FFE0
000000000000000007FFE0
000000000000000007FFE0
000000000000000007FFE0
000000000000000007FFE0
000000000000000007FFE0
000000000000000007FFE0
000000000000000007FFE0
000000000000000007FFE0
000000000000000007FFE0
000000000000000007FFE0
000000000000000007FFE0
ENDCHAR
STARTCHAR 0032
ENCODING 50
SWIDTH 1113 0
DWIDTH 167 0
BBX 153 125 0 0
BITMAP
FFFFFFFFFFFFFFFFFFFFFFFFFFFFFFFFE0000000
FFFFFFFFFFFFFFFFFFFFFFFFFFFFFFFFFC000000
FFFFFFFFFFFFFFFFFFFFFFFFFFFFFFFFFF800000
FFFFFFFFFFFFFFFFFFFFFFFFFFFFFFFFFFE00000
FFFFFFFFFFFFFFFFFFFFFFFFFFFFFFFFFFF00000
FFFFFFFFFFFFFFFFFFFFFFFFFFFFFFFFFFFC0000
FFFFFFFFFFFFFFFFFFFFFFFFFFFFFFFFFFFE0000
FFFFFFFFFFFFFFFFFFFFFFFFFFFFFFFFFFFF0000
FFFFFFFFFFFFFFFFFFFFFFFFFFFFFFFFFFFF8000
FFFFFFFFFFFFFFFFFFFFFFFFFFFFFFFFFFFFC000
FFFFFFFFFFFFFFFFFFFFFFFFFFFFFFFFFFFFE000
FFFFFFFFFFFFFFFFFFFFFFFFFFFFFFFFFFFFF000
FFFFFFFFFFFFFFFFFFFFFFFFFFFFFFFFFFFFF800
FFFFFFFFFFFFFFFFFFFFFFFFFFFFFFFFFFFFF800
000000000000000000000000000000007FFFFC00
000000000000000000000000000000001FFFFC00
0000000000000000000000000000000007FFFE00
0000000000000000000000000000000003FFFE00
0000000000000000000000000000000001FFFF00
0000000000000000000000000000000000FFFF00
00000000000000000000000000000000007FFF00
00000000000000000000000000000000007FFF00
00000000000000000000000000000000003FFF80
00000000000000000000000000000000003FFF80
00000000000000000000000000000000001FFF80
00000000000000000000000000000000001FFF80
00000000000000000000000000000000001FFF80
00000000000000000000000000000000001FFF80
00000000000000000000000000000000001FFF80
00000000000000000000000000000000001FFF80
00000000000000000000000000000000001FFF80
00000000000000000000000000000000003FFF80
00000000000000000000000000000000003FFF80
00000000000000000000000000000000003FFF00
00000000000000000000000000000000007FFF00
00000000000000000000000000000000007FFF00
0000000000000000000000000000000000FFFF00
0000000000000000000000000000000001FFFE00
0000000000000000000000000000000003FFFE00
0000000000000000000000000000000007FFFC00
000000000000000000000000000000001FFFFC00
00000000000000000000000000000000FFFFF800
0000000000000000000000000000000FFFFFF800
000000000000000000000000000000FFFFFFF000
000000000000000000000000000007FFFFFFE000
00000000000000000000000000007FFFFFFFE000
0000000000000000000000000007FFFFFFFFC000
000000000000000000000000007FFFFFFFFF8000
00000000000000000000000003FFFFFFFFFF0000
0000000000000000000000003FFFFFFFFFFE0000
000000000000000000000003FFFFFFFFFFF80000
00000000000000000000001FFFFFFFFFFFF00000
0000000000000000000001FFFFFFFFFFFFC00000
000000000000000000001FFFFFFFFFFFFF000000
00000000000000000001FFFFFFFFFFFFF8000000
0000000000000000000FFFFFFFFFFFFF80000000
000000000000000000FFFFFFFFFFFFFC00000000
00000000000000000FFFFFFFFFFFFFC000000000
00000000000000007FFFFFFFFFFFFC0000000000
0000000000000007FFFFFFFFFFFFE00000000000
000000000000007FFFFFFFFFFFFE000000000000
00000000000003FFFFFFFFFFFFE0000000000000
0000000000003FFFFFFFFFFFFE00000000000000
000000000003FFFFFFFFFFFFF000000000000000
00000000003FFFFFFFFFFFFF0000000000000000
0000000001FFFFFFFFFFFFF00000000000000000
000000001FFFFFFFFFFFFF800000000000000000
00000001FFFFFFFFFFFFF8000000000000000000
0000000FFFFFFFFFFFFF80000000000000000000
000000FFFFFFFFFFFFF800000000000000000000
00000FFFFFFFFFFFFFC000000000000000000000
00007FFFFFFFFFFFFC0000000000000000000000
0001FFFFFFFFFFFFC00000000000000000000000
0007FFFFFFFFFFFE000000000000000000000000
000FFFFFFFFFFFE0000000000000000000000000
001FFFFFFFFFFE00000000000000000000000000
007FFFFFFFFFE000000000000000000000000000
00FFFFFFFFFF0000000000000000000000000000
01FFFFFFFFF00000000000000000000000000000
03FFFFFFFF000000000000000000000000000000
03FFFFFFF0000000000000000000000000000000
07FFFFFF80000000000000000000000000000000
0FFFFFF800000000000000000000000000000000
0FFFFF8000000000000000000000000000000000
1FFFFC0000000000000000000000000000000000
1FFFF00000000000000000000000000000000000
3FFFE00000000000000000000000000000000000
3FFFC00000000000000000000000000000000000
7FFF800000000000000000000000000000000000
7FFF000000000000000000000000000000000000
7FFF000000000000000000000000000000000000
7FFE000000000000000000000000000000000000
FFFE000000000000000000000000000000000000
FFFC000000000000000000000000000000000000
FFFC000000000000000000000000000000000000
FFFC000000000000000000000000000000000000
FFFC000000000000000000000000000000000000
FFFC000000000000000000000000000000000000
FFFC000000000000000000000000000000000000
FFFC000000000000000000000000000000000000
FFFC000000000000000000000000000000000000
FFFE000000000000000000000000000000000000
FFFE000000000000000000000000000000000000
7FFE000000000000000000000000000000000000
7FFF000000000000000000000000000000000000
7FFF800000000000000000000000000000000000
7FFFC00000000000000000000000000000000000
3FFFE00000000000000000000000000000000000
3FFFF00000000000000000000000000000000000
1FFFF80000000000000000000000000000000000
1FFFFF0000000000000000000000000000000000
0FFFFFFFFFFFFFFFFFFFFFFFFFFFFFFFFFFFFF80
0FFFFFFFFFFFFFFFFFFFFFFFFFFFFFFFFFFFFF80
07FFFFFFFFFFFFFFFFFFFFFFFFFFFFFFFFFFFF80
03FFFFFFFFFFFFFFFFFFFFFFFFFFFFFFFFFFFF80
01FFFFFFFFFFFFFFFFFFFFFFFFFFFFFFFFFFFF80
00FFFFFFFFFFFFFFFFFFFFFFFFFFFFFFFFFFFF80
007FFFFFFFFFFFFFFFFFFFFFFFFFFFFFFFFFFF80
003FFFFFFFFFFFFFFFFFFFFFFFFFFFFFFFFFFF80
001FFFFFFFFFFFFFFFFFFFFFFFFFFFFFFFFFFF80
000FFFFFFFFFFFFFFFFFFFFFFFFFFFFFFFFFFF80
0003FFFFFFFFFFFFFFFFFFFFFFFFFFFFFFFFFF80
0000FFFFFFFFFFFFFFFFFFFFFFFFFFFFFFFFFF80
00003FFFFFFFFFFFFFFFFFFFFFFFFFFFFFFFFF80
000003FFFFFFFFFFFFFFFFFFFFFFFFFFFFFFFF80
ENDCHAR
STARTCHAR 0033
ENCODING 51
SWIDTH 1113 0
DWIDTH 167 0
BBX 153 125 0 0
BITMAP
FFFFFFFFFFFFFFFFFFFFFFFFFFFFFFFFE0000000
FFFFFFFFFFFFFFFFFFFFFFFFFFFFFFFFFC000000
FFFFFFFFFFFFFFFFFFFFFFFFFFFFFFFFFF800000
FFFFFFFFFFFFFFFFFFFFFFFFFFFFFFFFFFE00000
FFFFFFFFFFFFFFFFFFFFFFFFFFFFFFFFFFF00000
FFFFFFFFFFFFFFFFFFFFFFFFFFFFFFFFFFFC0000
FFFFFFFFFFFFFFFFFFFFFFFFFFFFFFFFFFFE0000
FFFFFFFFFFFFFFFFFFFFFFFFFFFFFFFFFFFF0000
FFFFFFFFFFFFFFFFFFFFFFFFFFFFFFFFFFFF8000
FFFFFFFFFFFFFFFFFFFFFFFFFFFFFFFFFFFFC000
FFFFFFFFFFFFFFFFFFFFFFFFFFFFFFFFFFFFE000
FFFFFFFFFFFFFFFFFFFFFFFFFFFFFFFFFFFFF000
FFFFFFFFFFFFFFFFFFFFFFFFFFFFFFFFFFFFF800
FFFFFFFFFFFFFFFFFFFFFFFFFFFFFFFFFFFFF800
000000000000000000000000000000007FFFFC00
000000000000000000000000000000001FFFFC00
0000000000000000000000000000000007FFFE00
0000000000000000000000000000000003FFFE00
0000000000000000000000000000000001FFFF00
0000000000000000000000000000000000FFFF00
00000000000000000000000000000000007FFF00
00000000000000000000000000000000003FFF00
00000000000000000000000000000000003FFF80
00000000000000000000000000000000003FFF80
00000000000000000000000000000000001FFF80
00000000000000000000000000000000001FFF80
00000000000000000000000000000000001FFF80
00000000000000000000000000000000001FFF80
00000000000000000000000000000000001FFF80
00000000000000000000000000000000001FFF80
00000000000000000000000000000000001FFF80
00000000000000000000000000000000001FFF80
00000000000000000000000000000000001FFF80
00000000000000000000000000000000001FFF80
00000000000000000000000000000000001FFF80
00000000000000000000000000000000001FFF80
00000000000000000000000000000000001FFF80
00000000000000000000000000000000001FFF80
00000000000000000000000000000000001FFF80
00000000000000000000000000000000001FFF80
00000000000000000000000000000000001FFF80
00000000000000000000000000000000001FFF80
00000000000000000000000000000000001FFF80
00000000000000000000000000000000001FFF80
00000000000000000000000000000000001FFF80
00000000000000000000000000000000001FFF80
00000000000000000000000000000000001FFF80
00000000000000000000000000000000001FFF80
00000000000000000000000000000000001FFF80
00000000000000000000000000000000001FFF80
00000000000000000000000000000000001FFF80
00000000000000000000000000000000001FFF80
00000000000000000000000000000000001FFF80
00000000000000000000000000000000001FFF80
00000000000000000000000000000000001FFF80
FFFFFFFFFFFFFFFFFFFFFFFFFFFFFFFFFFFFFF80
FFFFFFFFFFFFFFFFFFFFFFFFFFFFFFFFFFFFFF80
FFFFFFFFFFFFFFFFFFFFFFFFFFFFFFFFFFFFFF80
FFFFFFFFFFFFFFFFFFFFFFFFFFFFFFFFFFFFFF80
FFFFFFFFFFFFFFFFFFFFFFFFFFFFFFFFFFFFFF80
FFFFFFFFFFFFFFFFFFFFFFFFFFFFFFFFFFFFFF80
FFFFFFFFFFFFFFFFFFFFFFFFFFFFFFFFFFFFFF80
FFFFFFFFFFFFFFFFFFFFFFFFFFFFFFFFFFFFFF80
FFFFFFFFFFFFFFFFFFFFFFFFFFFFFFFFFFFFFF80
FFFFFFFFFFFFFFFFFFFFFFFFFFFFFFFFFFFFFF80
FFFFFFFFFFFFFFFFFFFFFFFFFFFFFFFFFFFFFF80
FFFFFFFFFFFFFFFFFFFFFFFFFFFFFFFFFFFFFF80
FFFFFFFFFFFFFFFFFFFFFFFFFFFFFFFFFFFFFF80
FFFFFFFFFFFFFFFFFFFFFFFFFFFFFFFFFFFFFF80
00000000000000000000000000000000001FFF80
00000000000000000000000000000000001FFF80
00000000000000000000000000000000001FFF80
00000000000000000000000000000000001FFF80
00000000000000000000000000000000001FFF80
00000000000000000000000000000000001FFF80
00000000000000000000000000000000001FFF80
00000000000000000000000000000000001FFF80
00000000000000000000000000000000001FFF80
00000000000000000000000000000000001FFF80
00000000000000000000000000000000001FFF80
00000000000000000000000000000000001FFF80
00000000000000000000000000000000001FFF80
00000000000000000000000000000000001FFF80
00000000000000000000000000000000001FFF80
00000000000000000000000000000000001FFF80
00000000000000000000000000000000001FFF80
00000000000000000000000000000000001FFF80
00000000000000000000000000000000001FFF80
00000000000000000000000000000000001FFF80
00000000000000000000000000000000001FFF80
00000000000000000000000000000000001FFF80
00000000000000000000000000000000001FFF80
00000000000000000000000000000000001FFF80
00000000000000000000000000000000001FFF80
00000000000000000000000000000000001FFF80
00000000000000000000000000000000001FFF80
00000000000000000000000000000000001FFF80
00000000000000000000000000000000001FFF80
00000000000000000000000000000000001FFF80
00000000000000000000000000000000001FFF80
00000000000000000000000000000000001FFF80
00000000000000000000000000000000003FFF80
00000000000000000000000000000000003FFF80
00000000000000000000000000000000007FFF00
00000000000000000000000000000000007FFF00
0000000000000000000000000000000000FFFF00
0000000000000000000000000000000001FFFE00
0000000000000000000000000000000003FFFE00
0000000000000000000000000000000007FFFE00
000000000000000000000000000000001FFFFC00
000000000000000000000000000000007FFFFC00
FFFFFFFFFFFFFFFFFFFFFFFFFFFFFFFFFFFFF800
FFFFFFFFFFFFFFFFFFFFFFFFFFFFFFFFFFFFF800
FFFFFFFFFFFFFFFFFFFFFFFFFFFFFFFFFFFFF000
FFFFFFFFFFFFFFFFFFFFFFFFFFFFFFFFFFFFE000
FFFFFFFFFFFFFFFFFFFFFFFFFFFFFFFFFFFFC000
FFFFFFFFFFFFFFFFFFFFFFFFFFFFFFFFFFFF8000
FFFFFFFFFFFFFFFFFFFFFFFFFFFFFFFFFFFF0000
FFFFFFFFFFFFFFFFFFFFFFFFFFFFFFFFFFFE0000
FFFFFFFFFFFFFFFFFFFFFFFFFFFFFFFFFFFC0000
FFFFFFFFFFFFFFFFFFFFFFFFFFFFFFFFFFF80000
FFFFFFFFFFFFFFFFFFFFFFFFFFFFFFFFFFE00000
FFFFFFFFFFFFFFFFFFFFFFFFFFFFFFFFFF800000
FFFFFFFFFFFFFFFFFFFFFFFFFFFFFFFFFE000000
FFFFFFFFFFFFFFFFFFFFFFFFFFFFFFFFE0000000
ENDCHAR
STARTCHAR 0034
ENCODING 52
SWIDTH 1113 0
DWIDTH 167 0
BBX 153 125 0 0
BITMAP
FFFC0000000000000000000000000000001FFF80
FFFC0000000000000000000000000000001FFF80
FFFC0000000000000000000000000000001FFF80
FFFC0000000000000000000000000000001FFF80
FFFC0000000000000000000000000000001FFF80
FFFC0000000000000000000000000000001FFF80
FFFC0000000000000000000000000000001FFF80
FFFC0000000000000000000000000000001FFF80
FFFC0000000000000000000000000000001FFF80
FFFC0000000000000000000000000000001FFF80
FFFC0000000000000000000000000000001FFF80
FFFC0000000000000000000000000000001FFF80
FFFC0000000000000000000000000000001FFF80
FFFC0000000000000000000000000000001FFF80
FFFC0000000000000000000000000000001FFF80
FFFC0000000000000000000000000000001FFF80
FFFC0000000000000000000000000000001FFF80
FFFC0000000000000000000000000000001FFF80
FFFC0000000000000000000000000000001FFF80
FFFC0000000000000000000000000000001FFF80
FFFC0000000000000000000000000000001FFF80
FFFC0000000000000000000000000000001FFF80
FFFC0000000000000000000000000000001FFF80
FFFC0000000000000000000000000000001FFF80
FFFC0000000000000000000000000000001FFF80
FFFC0000000000000000000000000000001FFF80
FFFC0000000000000000000000000000001FFF80
FFFC0000000000000000000000000000001FFF80
FFFC0000000000000000000000000000001FFF80
FFFC0000000000000000000000000000001FFF80
FFFC0000000000000000000000000000001FFF80
FFFC0000000000000000000000000000001FFF80
FFFC0000000000000000000000000000001FFF80
FFFC0000000000000000000000000000001FFF80
FFFC0000000000000000000000000000001FFF80
FFFC0000000000000000000000000000001FFF80
FFFC0000000000000000000000000000001FFF80
FFFC0000000000000000000000000000001FFF80
FFFC0000000000000000000000000000001FFF80
FFFC0000000000000000000000000000001FFF80
FFFC0000000000000000000000000000001FFF80
FFFC0000000000000000000000000000001FFF80
FFFC0000000000000000000000000000001FFF80
FFFC0000000000000000000000000000001FFF80
FFFC0000000000000000000000000000001FFF80
FFFC0000000000000000000000000000001FFF80
FFFC0000000000000000000000000000001FFF80
FFFC0000000000000000000000000000001FFF80
FFFC0000000000000000000000000000001FFF80
FFFC0000000000000000000000000000001FFF80
FFFC0000000000000000000000000000001FFF80
FFFC0000000000000000000000000000001FFF80
FFFC0000000000000000000000000000001FFF80
FFFC0000000000000000000000000000001FFF80
FFFC0000000000000000000000000000001FFF80
FFFC0000000000000000000000000000001FFF80
FFFC0000000000000000000000000000001FFF80
FFFC0000000000000000000000000000001FFF80
FFFC0000000000000000000000000000001FFF80
FFFC0000000000000000000000000000001FFF80
FFFC0000000000000000000000000000001FFF80
FFFC0000000000000000000000000000001FFF80
FFFC0000000000000000000000000000001FFF80
FFFC0000000000000000000000000000001FFF80
FFFC0000000000000000000000000000001FFF80
FFFC0000000000000000000000000000001FFF80
FFFC0000000000000000000000000000001FFF80
FFFC0000000000000000000000000000001FFF80
FFFC0000000000000000000000000000001FFF80
FFFC0000000000000000000000000000001FFF80
FFFC0000000000000000000000000000001FFF80
FFFC0000000000000000000000000000001FFF80
FFFC0000000000000000000000000000001FFF80
FFFE0000000000000000000000000000001FFF80
FFFE0000000000000000000000000000001FFF80
7FFE0000000000000000000000000000001FFF80
7FFF0000000000000000000000000000001FFF80
7FFF8000000000000000000000000000001FFF80
7FFF8000000000000000000000000000001FFF80
3FFFC000000000000000000000000000001FFF80
3FFFE000000000000000000000000000001FFF80
1FFFF800000000000000000000000000001FFF80
1FFFFE00000000000000000000000000001FFF80
0FFFFFFFFFFFFFFFFFFFFFFFFFFFFFFFFFFFFF80
0FFFFFFFFFFFFFFFFFFFFFFFFFFFFFFFFFFFFF80
07FFFFFFFFFFFFFFFFFFFFFFFFFFFFFFFFFFFF80
03FFFFFFFFFFFFFFFFFFFFFFFFFFFFFFFFFFFF80
01FFFFFFFFFFFFFFFFFFFFFFFFFFFFFFFFFFFF80
01FFFFFFFFFFFFFFFFFFFFFFFFFFFFFFFFFFFF80
00FFFFFFFFFFFFFFFFFFFFFFFFFFFFFFFFFFFF80
003FFFFFFFFFFFFFFFFFFFFFFFFFFFFFFFFFFF80
001FFFFFFFFFFFFFFFFFFFFFFFFFFFFFFFFFFF80
000FFFFFFFFFFFFFFFFFFFFFFFFFFFFFFFFFFF80
0003FFFFFFFFFFFFFFFFFFFFFFFFFFFFFFFFFF80
0001FFFFFFFFFFFFFFFFFFFFFFFFFFFFFFFFFF80
00003FFFFFFFFFFFFFFFFFFFFFFFFFFFFFFFFF80
000007FFFFFFFFFFFFFFFFFFFFFFFFFFFFFFFF80
00000000000000000000000000000000001FFF80
00000000000000000000000000000000001FFF80
00000000000000000000000000000000001FFF80
00000000000000000000000000000000001FFF80
00000000000000000000000000000000001FFF80
00000000000000000000000000000000001FFF80
00000000000000000000000000000000001FFF80
00000000000000000000000000000000001FFF80
00000000000000000000000000000000001FFF80
00000000000000000000000000000000001FFF80
00000000000000000000000000000000001FFF80
00000000000000000000000000000000001FFF80
00000000000000000000000000000000001FFF80
00000000000000000000000000000000001FFF80
00000000000000000000000000000000001FFF80
00000000000000000000000000000000001FFF80
00000000000000000000000000000000001FFF80
00000000000000000000000000000000001FFF80
00000000000000000000000000000000001FFF80
00000000000000000000000000000000001FFF80
00000000000000000000000000000000001FFF80
00000000000000000000000000000000001FFF80
00000000000000000000000000000000001FFF80
00000000000000000000000000000000001FFF80
00000000000000000000000000000000001FFF80
00000000000000000000000000000000001FFF80
00000000000000000000000000000000001FFF80
00000000000000000000000000000000001FFF80
ENDCHAR
STARTCHAR 0035
ENCODING 53
SWIDTH 1113 0
DWIDTH 167 0
BBX 153 125 0 0
BITMAP
000003FFFFFFFFFFFFFFFFFFFFFFFFFFFFFFFF80
00001FFFFFFFFFFFFFFFFFFFFFFFFFFFFFFFFF80
0000FFFFFFFFFFFFFFFFFFFFFFFFFFFFFFFFFF80
0003FFFFFFFFFFFFFFFFFFFFFFFFFFFFFFFFFF80
0007FFFFFFFFFFFFFFFFFFFFFFFFFFFFFFFFFF80
001FFFFFFFFFFFFFFFFFFFFFFFFFFFFFFFFFFF80
003FFFFFFFFFFFFFFFFFFFFFFFFFFFFFFFFFFF80
007FFFFFFFFFFFFFFFFFFFFFFFFFFFFFFFFFFF80
00FFFFFFFFFFFFFFFFFFFFFFFFFFFFFFFFFFFF80
01FFFFFFFFFFFFFFFFFFFFFFFFFFFFFFFFFFFF80
03FFFFFFFFFFFFFFFFFFFFFFFFFFFFFFFFFFFF80
07FFFFFFFFFFFFFFFFFFFFFFFFFFFFFFFFFFFF80
07FFFFFFFFFFFFFFFFFFFFFFFFFFFFFFFFFFFF80
0FFFFFFFFFFFFFFFFFFFFFFFFFFFFFFFFFFFFF80
1FFFFF0000000000000000000000000000000000
1FFFFC0000000000000000000000000000000000
3FFFF00000000000000000000000000000000000
3FFFE00000000000000000000000000000000000
3FFFC00000000000000000000000000000000000
7FFF800000000000000000000000000000000000
7FFF000000000000000000000000000000000000
7FFF000000000000000000000000000000000000
FFFE000000000000000000000000000000000000
FFFE000000000000000000000000000000000000
FFFC000000000000000000000000000000000000
FFFC000000000000000000000000000000000000
FFFC000000000000000000000000000000000000
FFFC000000000000000000000000000000000000
FFFC000000000000000000000000000000000000
FFFC000000000000000000000000000000000000
FFFC000000000000000000000000000000000000
FFFC000000000000000000000000000000000000
FFFE000000000000000000000000000000000000
FFFE000000000000000000000000000000000000
7FFF000000000000000000000000000000000000
7FFF000000000000000000000000000000000000
7FFF800000000000000000000000000000000000
7FFFC00000000000000000000000000000000000
3FFFE00000000000000000000000000000000000
3FFFF00000000000000000000000000000000000
1FFFF80000000000000000000000000000000000
1FFFFF0000000000000000000000000000000000
0FFFFFFFFFFFFFFFFFFFFFFFFFFFFFFFE0000000
0FFFFFFFFFFFFFFFFFFFFFFFFFFFFFFFFC000000
07FFFFFFFFFFFFFFFFFFFFFFFFFFFFFFFF800000
03FFFFFFFFFFFFFFFFFFFFFFFFFFFFFFFFE00000
01FFFFFFFFFFFFFFFFFFFFFFFFFFFFFFFFF80000
00FFFFFFFFFFFFFFFFFFFFFFFFFFFFFFFFFC0000
007FFFFFFFFFFFFFFFFFFFFFFFFFFFFFFFFE0000
003FFFFFFFFFFFFFFFFFFFFFFFFFFFFFFFFF0000
001FFFFFFFFFFFFFFFFFFFFFFFFFFFFFFFFF8000
000FFFFFFFFFFFFFFFFFFFFFFFFFFFFFFFFFC000
0003FFFFFFFFFFFFFFFFFFFFFFFFFFFFFFFFE000
0000FFFFFFFFFFFFFFFFFFFFFFFFFFFFFFFFF000
00003FFFFFFFFFFFFFFFFFFFFFFFFFFFFFFFF800
000003FFFFFFFFFFFFFFFFFFFFFFFFFFFFFFF800
000000000000000000000000000000007FFFFC00
000000000000000000000000000000001FFFFC00
0000000000000000000000000000000007FFFE00
0000000000000000000000000000000003FFFE00
0000000000000000000000000000000001FFFF00
0000000000000000000000000000000000FFFF00
00000000000000000000000000000000007FFF00
00000000000000000000000000000000007FFF00
00000000000000000000000000000000003FFF80
00000000000000000000000000000000003FFF80
00000000000000000000000000000000001FFF80
00000000000000000000000000000000001FFF80
00000000000000000000000000000000001FFF80
00000000000000000000000000000000001FFF80
00000000000000000000000000000000001FFF80
00000000000000000000000000000000001FFF80
00000000000000000000000000000000001FFF80
00000000000000000000000000000000001FFF80
00000000000000000000000000000000001FFF80
00000000000000000000000000000000001FFF80
00000000000000000000000000000000001FFF80
00000000000000000000000000000000001FFF80
00000000000000000000000000000000001FFF80
00000000000000000000000000000000001FFF80
00000000000000000000000000000000001FFF80
00000000000000000000000000000000001FFF80
00000000000000000000000000000000001FFF80
00000000000000000000000000000000001FFF80
00000000000000000000000000000000001FFF80
00000000000000000000000000000000001FFF80
00000000000000000000000000000000001FFF80
00000000000000000000000000000000001FFF80
00000000000000000000000000000000001FFF80
00000000000000000000000000000000001FFF80
00000000000000000000000000000000001FFF80
00000000000000000000000000000000001FFF80
00000000000000000000000000000000001FFF80
00000000000000000000000000000000001FFF80
00000000000000000000000000000000001FFF80
00000000000000000000000000000000001FFF80
00000000000000000000000000000000001FFF80
00000000000000000000000000000000001FFF80
00000000000000000000000000000000001FFF80
00000000000000000000000000000000001FFF80
00000000000000000000000000000000001FFF80
00000000000000000000000000000000003FFF80
00000000000000000000000000000000003FFF80
00000000000000000000000000000000003FFF00
00000000000000000000000000000000007FFF00
0000000000000000000000000000000000FFFF00
0000000000000000000000000000000001FFFF00
0000000000000000000000000000000003FFFE00
0000000000000000000000000000000007FFFE00
000000000000000000000000000000001FFFFC00
000000000000000000000000000000007FFFFC00
FFFFFFFFFFFFFFFFFFFFFFFFFFFFFFFFFFFFF800
FFFFFFFFFFFFFFFFFFFFFFFFFFFFFFFFFFFFF800
FFFFFFFFFFFFFFFFFFFFFFFFFFFFFFFFFFFFF000
FFFFFFFFFFFFFFFFFFFFFFFFFFFFFFFFFFFFE000
FFFFFFFFFFFFFFFFFFFFFFFFFFFFFFFFFFFFC000
FFFFFFFFFFFFFFFFFFFFFFFFFFFFFFFFFFFF8000
FFFFFFFFFFFFFFFFFFFFFFFFFFFFFFFFFFFF0000
FFFFFFFFFFFFFFFFFFFFFFFFFFFFFFFFFFFE0000
FFFFFFFFFFFFFFFFFFFFFFFFFFFFFFFFFFFC0000
FFFFFFFFFFFFFFFFFFFFFFFFFFFFFFFFFFF80000
FFFFFFFFFFFFFFFFFFFFFFFFFFFFFFFFFFE00000
FFFFFFFFFFFFFFFFFFFFFFFFFFFFFFFFFF800000
FFFFFFFFFFFFFFFFFFFFFFFFFFFFFFFFFE000000
FFFFFFFFFFFFFFFFFFFFFFFFFFFFFFFFE0000000
ENDCHAR
STARTCHAR 0036
ENCODING 54
SWIDTH 1113 0
DWIDTH 167 0
BBX 153 125 0 0
BITMAP
0000000FFFC00000000000000000000000000000
0000000FFFC00000000000000000000000000000
0000000FFFC00000000000000000000000000000
0000000FFFC00000000000000000000000000000
0000000FFFC00000000000000000000000000000
0000000FFFC00000000000000000000000000000
0000000FFFC00000000000000000000000000000
0000000FFFC00000000000000000000000000000
0000000FFFC00000000000000000000000000000
0000000FFFC00000000000000000000000000000
0000000FFFC00000000000000000000000000000
0000000FFFC00000000000000000000000000000
0000000FFFC00000000000000000000000000000
0000000FFFC00000000000000000000000000000
0000000FFFC00000000000000000000000000000
0000000FFFC00000000000000000000000000000
0000000FFFC00000000000000000000000000000
0000000FFFC00000000000000000000000000000
0000000FFFC00000000000000000000000000000
0000000FFFC00000000000000000000000000000
0000000FFFC00000000000000000000000000000
0000000FFFC00000000000000000000000000000
0000000FFFC00000000000000000000000000000
0000000FFFC00000000000000000000000000000
0000000FFFC00000000000000000000000000000
0000000FFFC00000000000000000000000000000
0000000FFF800000000000000000000000000000
0000000FFF800000000000000000000000000000
0000001FFFFFFFFFFFFFFFFFFFFFFFFFE0000000
0000001FFFFFFFFFFFFFFFFFFFFFFFFFFC000000
0000001FFFFFFFFFFFFFFFFFFFFFFFFFFF800000
0000003FFFFFFFFFFFFFFFFFFFFFFFFFFFE00000
0000007FFFFFFFFFFFFFFFFFFFFFFFFFFFF80000
000000FFFFFFFFFFFFFFFFFFFFFFFFFFFFFC0000
000001FFFFFFFFFFFFFFFFFFFFFFFFFFFFFE0000
000003FFFFFFFFFFFFFFFFFFFFFFFFFFFFFF0000
000007FFFFFFFFFFFFFFFFFFFFFFFFFFFFFF8000
00000FFFFFFFFFFFFFFFFFFFFFFFFFFFFFFFC000
00001FFFFFFFFFFFFFFFFFFFFFFFFFFFFFFFE000
00003FFFFFFFFFFFFFFFFFFFFFFFFFFFFFFFF000
00007FFFFFFFFFFFFFFFFFFFFFFFFFFFFFFFF800
0000FFFFFFFFFFFFFFFFFFFFFFFFFFFFFFFFF800
0001FFFFE000000000000000000000007FFFFC00
0003FFFFC000000000000000000000001FFFFC00
0007FFFF80000000000000000000000007FFFE00
000FFFFF00000000000000000000000003FFFE00
001FFFFE00000000000000000000000001FFFF00
003FFFFC00000000000000000000000000FFFF00
007FFFF8000000000000000000000000007FFF00
00FFFFF0000000000000000000000000007FFF00
01FFFFE0000000000000000000000000003FFF80
03FFFFC0000000000000000000000000003FFF80
03FFFF80000000000000000000000000001FFF80
07FFFF00000000000000000000000000001FFF80
0FFFFE00000000000000000000000000001FFF80
0FFFFC00000000000000000000000000001FFF80
1FFFF800000000000000000000000000001FFF80
3FFFF000000000000000000000000000001FFF80
3FFFE000000000000000000000000000001FFF80
3FFFC000000000000000000000000000001FFF80
7FFF8000000000000000000000000000001FFF80
7FFF0000000000000000000000000000001FFF80
7FFF0000000000000000000000000000001FFF80
7FFE0000000000000000000000000000001FFF80
FFFE0000000000000000000000000000001FFF80
FFFE0000000000000000000000000000001FFF80
FFFC0000000000000000000000000000001FFF80
FFFC0000000000000000000000000000001FFF80
FFFC0000000000000000000000000000001FFF80
FFFC0000000000000000000000000000001FFF80
FFFC0000000000000000000000000000001FFF80
FFFC0000000000000000000000000000001FFF80
FFFC0000000000000000000000000000001FFF80
FFFC0000000000000000000000000000001FFF80
FFFC0000000000000000000000000000001FFF80
FFFC0000000000000000000000000000001FFF80
FFFC0000000000000000000000000000001FFF80
FFFC0000000000000000000000000000001FFF80
FFFC0000000000000000000000000000001FFF80
FFFC0000000000000000000000000000001FFF80
FFFC0000000000000000000000000000001FFF80
FFFC0000000000000000000000000000001FFF80
FFFC0000000000000000000000000000001FFF80
FFFC0000000000000000000000000000001FFF80
FFFC0000000000000000000000000000001FFF80
FFFC0000000000000000000000000000001FFF80
FFFC0000000000000000000000000000001FFF80
FFFC0000000000000000000000000000001FFF80
FFFC0000000000000000000000000000001FFF80
FFFC0000000000000000000000000000001FFF80
FFFC0000000000000000000000000000001FFF80
FFFC0000000000000000000000000000001FFF80
FFFC0000000000000000000000000000001FFF80
FFFC0000000000000000000000000000001FFF80
FFFC0000000000000000000000000000001FFF80
FFFC0000000000000000000000000000001FFF80
FFFC0000000000000000000000000000001FFF80
FFFC0000000000000000000000000000001FFF80
FFFC0000000000000000000000000000001FFF80
FFFC0000000000000000000000000000001FFF80
FFFC0000000000000000000000000000001FFF80
FFFE0000000000000000000000000000003FFF80
FFFE0000000000000000000000000000003FFF80
7FFE0000000000000000000000000000003FFF00
7FFF0000000000000000000000000000007FFF00
7FFF800000000000000000000000000000FFFF00
7FFFC00000000000000000000000000001FFFF00
3FFFE00000000000000000000000000003FFFE00
3FFFF00000000000000000000000000007FFFE00
1FFFF8000000000000000000000000000FFFFC00
1FFFFF000000000000000000000000007FFFFC00
0FFFFFFFFFFFFFFFFFFFFFFFFFFFFFFFFFFFF800
0FFFFFFFFFFFFFFFFFFFFFFFFFFFFFFFFFFFF800
07FFFFFFFFFFFFFFFFFFFFFFFFFFFFFFFFFFF000
03FFFFFFFFFFFFFFFFFFFFFFFFFFFFFFFFFFE000
01FFFFFFFFFFFFFFFFFFFFFFFFFFFFFFFFFFC000
00FFFFFFFFFFFFFFFFFFFFFFFFFFFFFFFFFF8000
007FFFFFFFFFFFFFFFFFFFFFFFFFFFFFFFFF0000
003FFFFFFFFFFFFFFFFFFFFFFFFFFFFFFFFE0000
001FFFFFFFFFFFFFFFFFFFFFFFFFFFFFFFFC0000
000FFFFFFFFFFFFFFFFFFFFFFFFFFFFFFFF80000
0003FFFFFFFFFFFFFFFFFFFFFFFFFFFFFFE00000
0000FFFFFFFFFFFFFFFFFFFFFFFFFFFFFF800000
00003FFFFFFFFFFFFFFFFFFFFFFFFFFFFE000000
000003FFFFFFFFFFFFFFFFFFFFFFFFFFE0000000
ENDCHAR
STARTCHAR 0037
ENCODING 55
SWIDTH 1113 0
DWIDTH 167 0
BBX 151 125 0 0
BITMAP
FFFFFFFFFFFFFFFFFFFFFFFFFFFFFFFF800000
FFFFFFFFFFFFFFFFFFFFFFFFFFFFFFFFF00000
FFFFFFFFFFFFFFFFFFFFFFFFFFFFFFFFFE0000
FFFFFFFFFFFFFFFFFFFFFFFFFFFFFFFFFF8000
FFFFFFFFFFFFFFFFFFFFFFFFFFFFFFFFFFE000
FFFFFFFFFFFFFFFFFFFFFFFFFFFFFFFFFFF000
FFFFFFFFFFFFFFFFFFFFFFFFFFFFFFFFFFF800
FFFFFFFFFFFFFFFFFFFFFFFFFFFFFFFFFFFC00
FFFFFFFFFFFFFFFFFFFFFFFFFFFFFFFFFFFE00
FFFFFFFFFFFFFFFFFFFFFFFFFFFFFFFFFFFF00
FFFFFFFFFFFFFFFFFFFFFFFFFFFFFFFFFFFF80
FFFFFFFFFFFFFFFFFFFFFFFFFFFFFFFFFFFFC0
FFFFFFFFFFFFFFFFFFFFFFFFFFFFFFFFFFFFE0
FFFFFFFFFFFFFFFFFFFFFFFFFFFFFFFFFFFFE0
00000000000000000000000000000001FFFFF0
000000000000000000000000000000007FFFF0
000000000000000000000000000000001FFFF8
000000000000000000000000000000000FFFF8
0000000000000000000000000000000007FFF8
0000000000000000000000000000000003FFFC
0000000000000000000000000000000001FFFC
0000000000000000000000000000000001FFFC
0000000000000000000000000000000000FFFE
0000000000000000000000000000000000FFFE
00000000000000000000000000000000007FFE
00000000000000000000000000000000007FFE
00000000000000000000000000000000007FFE
00000000000000000000000000000000007FFE
00000000000000000000000000000000007FFE
00000000000000000000000000000000007FFE
00000000000000000000000000000000007FFE
00000000000000000000000000000000007FFE
0000000000000000000000000000000000FFFE
0000000000000000000000000000000000FFFC
0000000000000000000000000000000001FFFC
0000000000000000000000000000000001FFFC
0000000000000000000000000000000003FFFC
0000000000000000000000000000000007FFF8
000000000000000000000000000000000FFFF8
000000000000000000000000000000001FFFF8
000000000000000000000000000000003FFFF0
000000000000000000000000000000007FFFF0
00000000000000000000000000000000FFFFE0
00000000000000000000000000000001FFFFC0
00000000000000000000000000000003FFFFC0
00000000000000000000000000000007FFFF80
0000000000000000000000000000000FFFFF00
0000000000000000000000000000001FFFFE00
0000000000000000000000000000003FFFFC00
0000000000000000000000000000007FFFF800
000000000000000000000000000000FFFFF000
000000000000000000000000000001FFFFE000
000000000000000000000000000003FFFFC000
000000000000000000000000000007FFFF8000
00000000000000000000000000000FFFFF0000
00000000000000000000000000001FFFFE0000
00000000000000000000000000003FFFFC0000
00000000000000000000000000007FFFF80000
0000000000000000000000000000FFFFF00000
0000000000000000000000000001FFFFE00000
0000000000000000000000000003FFFFC00000
0000000000000000000000000007FFFF800000
000000000000000000000000000FFFFF000000
000000000000000000000000001FFFFE000000
000000000000000000000000003FFFFC000000
000000000000000000000000007FFFF8000000
00000000000000000000000000FFFFF0000000
00000000000000000000000001FFFFE0000000
00000000000000000000000003FFFFC0000000
00000000000000000000000007FFFF80000000
0000000000000000000000000FFFFF00000000
0000000000000000000000001FFFFE00000000
0000000000000000000000003FFFFC00000000
0000000000000000000000007FFFF800000000
000000000000000000000000FFFFF000000000
000000000000000000000001FFFFE000000000
000000000000000000000003FFFFC000000000
000000000000000000000007FFFF8000000000
00000000000000000000000FFFFF0000000000
00000000000000000000001FFFFE0000000000
00000000000000000000003FFFFC0000000000
00000000000000000000007FFFF80000000000
00000000000000000000007FFFF00000000000
0000000000000000000000FFFFE00000000000
0000000000000000000001FFFFC00000000000
0000000000000000000001FFFF800000000000
0000000000000000000003FFFF000000000000
0000000000000000000007FFFE000000000000
0000000000000000000007FFFC000000000000
0000000000000000000007FFF8000000000000
000000000000000000000FFFF0000000000000
000000000000000000000FFFE0000000000000
000000000000000000000FFFE0000000000000
000000000000000000000FFFC0000000000000
000000000000000000001FFFC0000000000000
000000000000000000001FFF80000000000000
000000000000000000001FFF80000000000000
000000000000000000001FFF80000000000000
000000000000000000001FFF80000000000000
000000000000000000001FFF80000000000000
000000000000000000001FFF80000000000000
000000000000000000001FFF80000000000000
000000000000000000001FFF80000000000000
000000000000000000001FFF80000000000000
000000000000000000001FFF80000000000000
000000000000000000001FFF80000000000000
000000000000000000001FFF80000000000000
000000000000000000001FFF80000000000000
000000000000000000001FFF80000000000000
000000000000000000001FFF80000000000000
000000000000000000001FFF80000000000000
000000000000000000001FFF80000000000000
000000000000000000001FFF80000000000000
000000000000000000001FFF80000000000000
000000000000000000001FFF80000000000000
000000000000000000001FFF80000000000000
000000000000000000001FFF80000000000000
000000000000000000001FFF80000000000000
000000000000000000001FFF80000000000000
000000000000000000001FFF80000000000000
000000000000000000001FFF80000000000000
000000000000000000001FFF80000000000000
000000000000000000001FFF80000000000000
000000000000000000001FFF80000000000000
000000000000000000001FFF80000000000000
ENDCHAR
STARTCHAR 0038
ENCODING 56
SWIDTH 1113 0
DWIDTH 167 0
BBX 153 125 0 0
BITMAP
000003FFFFFFFFFFFFFFFFFFFFFFFFFFE0000000
00001FFFFFFFFFFFFFFFFFFFFFFFFFFFFC000000
0000FFFFFFFFFFFFFFFFFFFFFFFFFFFFFF800000
0003FFFFFFFFFFFFFFFFFFFFFFFFFFFFFFE00000
000FFFFFFFFFFFFFFFFFFFFFFFFFFFFFFFF00000
001FFFFFFFFFFFFFFFFFFFFFFFFFFFFFFFFC0000
003FFFFFFFFFFFFFFFFFFFFFFFFFFFFFFFFE0000
007FFFFFFFFFFFFFFFFFFFFFFFFFFFFFFFFF0000
00FFFFFFFFFFFFFFFFFFFFFFFFFFFFFFFFFF8000
01FFFFFFFFFFFFFFFFFFFFFFFFFFFFFFFFFFC000
03FFFFFFFFFFFFFFFFFFFFFFFFFFFFFFFFFFE000
07FFFFFFFFFFFFFFFFFFFFFFFFFFFFFFFFFFF000
0FFFFFFFFFFFFFFFFFFFFFFFFFFFFFFFFFFFF800
0FFFFFFFFFFFFFFFFFFFFFFFFFFFFFFFFFFFF800
1FFFFF000000000000000000000000007FFFFC00
1FFFF8000000000000000000000000001FFFFC00
3FFFF00000000000000000000000000007FFFE00
3FFFE00000000000000000000000000003FFFE00
7FFFC00000000000000000000000000001FFFE00
7FFF800000000000000000000000000000FFFF00
7FFF0000000000000000000000000000007FFF00
7FFE0000000000000000000000000000003FFF00
FFFE0000000000000000000000000000003FFF80
FFFE0000000000000000000000000000003FFF80
FFFC0000000000000000000000000000001FFF80
FFFC0000000000000000000000000000001FFF80
FFFC0000000000000000000000000000001FFF80
FFFC0000000000000000000000000000001FFF80
FFFC0000000000000000000000000000001FFF80
FFFC0000000000000000000000000000001FFF80
FFFC0000000000000000000000000000001FFF80
FFFC0000000000000000000000000000001FFF80
FFFC0000000000000000000000000000001FFF80
FFFC0000000000000000000000000000001FFF80
FFFC0000000000000000000000000000001FFF80
FFFC0000000000000000000000000000001FFF80
FFFC0000000000000000000000000000001FFF80
FFFC0000000000000000000000000000001FFF80
FFFC0000000000000000000000000000001FFF80
FFFC0000000000000000000000000000001FFF80
FFFC0000000000000000000000000000001FFF80
FFFC0000000000000000000000000000001FFF80
FFFC0000000000000000000000000000001FFF80
FFFC0000000000000000000000000000001FFF80
FFFC0000000000000000000000000000001FFF80
FFFE0000000000000000000000000000003FFF80
FFFE0000000000000000000000000000003FFF80
7FFE0000000000000000000000000000003FFF00
7FFF0000000000000000000000000000007FFF00
7FFF800000000000000000000000000000FFFF00
7FFFC00000000000000000000000000001FFFF00
3FFFE00000000000000000000000000003FFFE00
3FFFF00000000000000000000000000007FFFE00
1FFFF8000000000000000000000000000FFFFC00
1FFFFF000000000000000000000000007FFFFC00
0FFFFFFFFFFFFFFFFFFFFFFFFFFFFFFFFFFFF800
0FFFFFFFFFFFFFFFFFFFFFFFFFFFFFFFFFFFF000
07FFFFFFFFFFFFFFFFFFFFFFFFFFFFFFFFFFF000
03FFFFFFFFFFFFFFFFFFFFFFFFFFFFFFFFFFE000
01FFFFFFFFFFFFFFFFFFFFFFFFFFFFFFFFFFC000
00FFFFFFFFFFFFFFFFFFFFFFFFFFFFFFFFFF8000
007FFFFFFFFFFFFFFFFFFFFFFFFFFFFFFFFF0000
003FFFFFFFFFFFFFFFFFFFFFFFFFFFFFFFFE0000
007FFFFFFFFFFFFFFFFFFFFFFFFFFFFFFFFF0000
00FFFFFFFFFFFFFFFFFFFFFFFFFFFFFFFFFF8000
01FFFFFFFFFFFFFFFFFFFFFFFFFFFFFFFFFFC000
03FFFFFFFFFFFFFFFFFFFFFFFFFFFFFFFFFFE000
07FFFFFFFFFFFFFFFFFFFFFFFFFFFFFFFFFFF000
0FFFFFFFFFFFFFFFFFFFFFFFFFFFFFFFFFFFF800
0FFFFF000000000000000000000000007FFFF800
1FFFFC000000000000000000000000001FFFFC00
1FFFF00000000000000000000000000007FFFC00
3FFFE00000000000000000000000000003FFFE00
3FFFC00000000000000000000000000001FFFE00
7FFF800000000000000000000000000000FFFF00
7FFF0000000000000000000000000000007FFF00
7FFF0000000000000000000000000000007FFF00
7FFE0000000000000000000000000000003FFF00
FFFE0000000000000000000000000000003FFF80
FFFC0000000000000000000000000000001FFF80
FFFC0000000000000000000000000000001FFF80
FFFC0000000000000000000000000000001FFF80
FFFC0000000000000000000000000000001FFF80
FFFC0000000000000000000000000000001FFF80
FFFC0000000000000000000000000000001FFF80
FFFC0000000000000000000000000000001FFF80
FFFC0000000000000000000000000000001FFF80
FFFC0000000000000000000000000000001FFF80
FFFC0000000000000000000000000000001FFF80
FFFC0000000000000000000000000000001FFF80
FFFC0000000000000000000000000000001FFF80
FFFC0000000000000000000000000000001FFF80
FFFC0000000000000000000000000000001FFF80
FFFC0000000000000000000000000000001FFF80
FFFC0000000000000000000000000000001FFF80
FFFC0000000000000000000000000000001FFF80
FFFC0000000000000000000000000000001FFF80
FFFC0000000000000000000000000000001FFF80
FFFC0000000000000000000000000000001FFF80
FFFC0000000000000000000000000000001FFF80
FFFC0000000000000000000000000000001FFF80
FFFE0000000000000000000000000000003FFF80
FFFE0000000000000000000000000000003FFF80
7FFF0000000000000000000000000000007FFF00
7FFF0000000000000000000000000000007FFF00
7FFF800000000000000000000000000000FFFF00
7FFFC00000000000000000000000000001FFFE00
3FFFE00000000000000000000000000003FFFE00
3FFFF00000000000000000000000000007FFFE00
1FFFF8000000000000000000000000001FFFFC00
1FFFFF000000000000000000000000007FFFFC00
0FFFFFFFFFFFFFFFFFFFFFFFFFFFFFFFFFFFF800
0FFFFFFFFFFFFFFFFFFFFFFFFFFFFFFFFFFFF800
07FFFFFFFFFFFFFFFFFFFFFFFFFFFFFFFFFFF000
03FFFFFFFFFFFFFFFFFFFFFFFFFFFFFFFFFFE000
01FFFFFFFFFFFFFFFFFFFFFFFFFFFFFFFFFFC000
00FFFFFFFFFFFFFFFFFFFFFFFFFFFFFFFFFF8000
007FFFFFFFFFFFFFFFFFFFFFFFFFFFFFFFFF0000
003FFFFFFFFFFFFFFFFFFFFFFFFFFFFFFFFE0000
001FFFFFFFFFFFFFFFFFFFFFFFFFFFFFFFFC0000
000FFFFFFFFFFFFFFFFFFFFFFFFFFFFFFFF80000
0003FFFFFFFFFFFFFFFFFFFFFFFFFFFFFFE00000
0000FFFFFFFFFFFFFFFFFFFFFFFFFFFFFF800000
00003FFFFFFFFFFFFFFFFFFFFFFFFFFFFE000000
000003FFFFFFFFFFFFFFFFFFFFFFFFFFE0000000
ENDCHAR
STARTCHAR 0039
ENCODING 57
SWIDTH 1113 0
DWIDTH 167 0
BBX 153 125 0 0
BITMAP
000003FFFFFFFFFFFFFFFFFFFFFFFFFFE0000000
00001FFFFFFFFFFFFFFFFFFFFFFFFFFFFC000000
0000FFFFFFFFFFFFFFFFFFFFFFFFFFFFFF800000
0003FFFFFFFFFFFFFFFFFFFFFFFFFFFFFFE00000
000FFFFFFFFFFFFFFFFFFFFFFFFFFFFFFFF00000
001FFFFFFFFFFFFFFFFFFFFFFFFFFFFFFFFC0000
003FFFFFFFFFFFFFFFFFFFFFFFFFFFFFFFFE0000
007FFFFFFFFFFFFFFFFFFFFFFFFFFFFFFFFF0000
00FFFFFFFFFFFFFFFFFFFFFFFFFFFFFFFFFF8000
01FFFFFFFFFFFFFFFFFFFFFFFFFFFFFFFFFFC000
03FFFFFFFFFFFFFFFFFFFFFFFFFFFFFFFFFFE000
07FFFFFFFFFFFFFFFFFFFFFFFFFFFFFFFFFFF000
0FFFFFFFFFFFFFFFFFFFFFFFFFFFFFFFFFFFF000
0FFFFFFFFFFFFFFFFFFFFFFFFFFFFFFFFFFFF800
1FFFFF000000000000000000000000007FFFFC00
1FFFFC000000000000000000000000001FFFFC00
3FFFF00000000000000000000000000007FFFE00
3FFFE00000000000000000000000000003FFFE00
7FFFC00000000000000000000000000001FFFE00
7FFF800000000000000000000000000000FFFF00
7FFF0000000000000000000000000000007FFF00
7FFE0000000000000000000000000000007FFF00
FFFE0000000000000000000000000000003FFF80
FFFE0000000000000000000000000000003FFF80
FFFC0000000000000000000000000000001FFF80
FFFC0000000000000000000000000000001FFF80
FFFC0000000000000000000000000000001FFF80
FFFC0000000000000000000000000000001FFF80
FFFC0000000000000000000000000000001FFF80
FFFC0000000000000000000000000000001FFF80
FFFC0000000000000000000000000000001FFF80
FFFC0000000000000000000000000000001FFF80
FFFC0000000000000000000000000000001FFF80
FFFC0000000000000000000000000000001FFF80
FFFC0000000000000000000000000000001FFF80
FFFC0000000000000000000000000000001FFF80
FFFC0000000000000000000000000000001FFF80
FFFC0000000000000000000000000000001FFF80
FFFC0000000000000000000000000000001FFF80
FFFC0000000000000000000000000000001FFF80
FFFC0000000000000000000000000000001FFF80
FFFC0000000000000000000000000000001FFF80
FFFC0000000000000000000000000000001FFF80
FFFC0000000000000000000000000000001FFF80
FFFC0000000000000000000000000000001FFF80
FFFC0000000000000000000000000000001FFF80
FFFC0000000000000000000000000000001FFF80
FFFC0000000000000000000000000000001FFF80
FFFC0000000000000000000000000000001FFF80
FFFC0000000000000000000000000000001FFF80
FFFC0000000000000000000000000000001FFF80
FFFC0000000000000000000000000000001FFF80
FFFC0000000000000000000000000000001FFF80
FFFC0000000000000000000000000000001FFF80
FFFC0000000000000000000000000000001FFF80
FFFC0000000000000000000000000000001FFF80
FFFC0000000000000000000000000000001FFF80
FFFC0000000000000000000000000000001FFF80
FFFC0000000000000000000000000000001FFF80
FFFC0000000000000000000000000000003FFF80
FFFC0000000000000000000000000000003FFF80
FFFC0000000000000000000000000000003FFF00
FFFC0000000000000000000000000000007FFF00
FFFC000000000000000000000000000000FFFF00
FFFC000000000000000000000000000000FFFF00
FFFC000000000000000000000000000001FFFE00
FFFC000000000000000000000000000003FFFE00
FFFC000000000000000000000000000007FFFC00
FFFC00000000000000000000000000000FFFFC00
FFFC00000000000000000000000000001FFFF800
FFFC00000000000000000000000000003FFFF800
FFFC00000000000000000000000000007FFFF000
FFFC0000000000000000000000000000FFFFE000
FFFE0000000000000000000000000001FFFFC000
FFFE0000000000000000000000000003FFFF8000
7FFE0000000000000000000000000007FFFF0000
7FFF000000000000000000000000000FFFFE0000
7FFF800000000000000000000000001FFFFC0000
7FFFC00000000000000000000000003FFFF80000
3FFFE00000000000000000000000007FFFF00000
3FFFF0000000000000000000000000FFFFE00000
1FFFF8000000000000000000000001FFFFC00000
1FFFFF000000000000000000000003FFFF800000
0FFFFFFFFFFFFFFFFFFFFFFFFFFFFFFFFF000000
0FFFFFFFFFFFFFFFFFFFFFFFFFFFFFFFFE000000
07FFFFFFFFFFFFFFFFFFFFFFFFFFFFFFFC000000
03FFFFFFFFFFFFFFFFFFFFFFFFFFFFFFF8000000
01FFFFFFFFFFFFFFFFFFFFFFFFFFFFFFF0000000
00FFFFFFFFFFFFFFFFFFFFFFFFFFFFFFE0000000
007FFFFFFFFFFFFFFFFFFFFFFFFFFFFFC0000000
003FFFFFFFFFFFFFFFFFFFFFFFFFFFFF80000000
001FFFFFFFFFFFFFFFFFFFFFFFFFFFFF00000000
000FFFFFFFFFFFFFFFFFFFFFFFFFFFFF00000000
0003FFFFFFFFFFFFFFFFFFFFFFFFFFFE00000000
0000FFFFFFFFFFFFFFFFFFFFFFFFFFFC00000000
00003FFFFFFFFFFFFFFFFFFFFFFFFFFC00000000
000003FFFFFFFFFFFFFFFFFFFFFFFFFC00000000
0000000000000000000000000001FFF800000000
0000000000000000000000000001FFF800000000
0000000000000000000000000001FFF800000000
0000000000000000000000000001FFF800000000
0000000000000000000000000001FFF800000000
0000000000000000000000000001FFF800000000
0000000000000000000000000001FFF800000000
0000000000000000000000000001FFF800000000
0000000000000000000000000001FFF800000000
0000000000000000000000000001FFF800000000
0000000000000000000000000001FFF800000000
0000000000000000000000000001FFF800000000
0000000000000000000000000001FFF800000000
0000000000000000000000000001FFF800000000
0000000000000000000000000001FFF800000000
0000000000000000000000000001FFF800000000
0000000000000000000000000001FFF800000000
0000000000000000000000000001FFF800000000
0000000000000000000000000001FFF800000000
0000000000000000000000000001FFF800000000
0000000000000000000000000001FFF800000000
0000000000000000000000000001FFF800000000
0000000000000000000000000001FFF800000000
0000000000000000000000000001FFF800000000
0000000000000000000000000001FFF800000000
0000000000000000000000000001FFF800000000
0000000000000000000000000001FFF800000000
0000000000000000000000000001FFF800000000
ENDCHAR
STARTCHAR 003A
ENCODING 58
SWIDTH 186 0
DWIDTH 28 0
BBX 14 69 0 0
BITMAP
FFFC
FFFC
FFFC
FFFC
FFFC
FFFC
FFFC
FFFC
FFFC
FFFC
FFFC
FFFC
FFFC
FFFC
0000
0000
0000
0000
0000
0000
0000
0000
0000
0000
0000
0000
0000
0000
0000
0000
0000
0000
0000
0000
0000
0000
0000
0000
0000
0000
0000
0000
0000
0000
0000
0000
0000
0000
0000
0000
0000
0000
0000
0000
0000
FFFC
FFFC
FFFC
FFFC
FFFC
FFFC
FFFC
FFFC
FFFC
FFFC
FFFC
FFFC
FFFC
FFFC
ENDCHAR
STARTCHAR 003B
ENCODING 59
SWIDTH 186 0
DWIDTH 28 0
BBX 14 82 0 -13
BITMAP
FFFC
FFFC
FFFC
FFFC
FFFC
FFFC
FFFC
FFFC
FFFC
FFFC
FFFC
FFFC
FFFC
FFFC
0000
0000
0000
0000
0000
0000
0000
0000
0000
0000
0000
0000
0000
0000
0000
0000
0000
0000
0000
0000
0000
0000
0000
0000
0000
0000
0000
0000
0000
0000
0000
0000
0000
0000
0000
0000
0000
0000
0000
0000
0000
FFFC
FFFC
FFFC
FFFC
FFFC
FFFC
FFFC
FFFC
FFFC
FFFC
FFFC
FFFC
FFFC
FFFC
FFFC
FFFC
FFFC
FFFC
FFFC
FFFC
FFFC
FFFC
FFFC
FFFC
FFFC
FFFC
FFFC
ENDCHAR
STARTCHAR 003C
ENCODING 60
SWIDTH 833 0
DWIDTH 125 0
BBX 0 0 0 0
BITMAP
ENDCHAR
STARTCHAR 003D
ENCODING 61
SWIDTH 1166 0
DWIDTH 175 0
BBX 0 0 0 0
BITMAP
ENDCHAR
STARTCHAR 003E
ENCODING 62
SWIDTH 833 0
DWIDTH 125 0
BBX 0 0 0 0
BITMAP
ENDCHAR
STARTCHAR 003F
ENCODING 63
SWIDTH 1113 0
DWIDTH 167 0
BBX 153 125 0 0
BITMAP
FFFFFFFFFFFFFFFFFFFFFFFFFFFFFFFFE0000000
FFFFFFFFFFFFFFFFFFFFFFFFFFFFFFFFFC000000
FFFFFFFFFFFFFFFFFFFFFFFFFFFFFFFFFF800000
FFFFFFFFFFFFFFFFFFFFFFFFFFFFFFFFFFE00000
FFFFFFFFFFFFFFFFFFFFFFFFFFFFFFFFFFF80000
FFFFFFFFFFFFFFFFFFFFFFFFFFFFFFFFFFFC0000
FFFFFFFFFFFFFFFFFFFFFFFFFFFFFFFFFFFE0000
FFFFFFFFFFFFFFFFFFFFFFFFFFFFFFFFFFFF0000
FFFFFFFFFFFFFFFFFFFFFFFFFFFFFFFFFFFF8000
FFFFFFFFFFFFFFFFFFFFFFFFFFFFFFFFFFFFC000
FFFFFFFFFFFFFFFFFFFFFFFFFFFFFFFFFFFFE000
FFFFFFFFFFFFFFFFFFFFFFFFFFFFFFFFFFFFF000
FFFFFFFFFFFFFFFFFFFFFFFFFFFFFFFFFFFFF800
FFFFFFFFFFFFFFFFFFFFFFFFFFFFFFFFFFFFF800
000000000000000000000000000000007FFFFC00
000000000000000000000000000000001FFFFC00
0000000000000000000000000000000007FFFE00
0000000000000000000000000000000003FFFE00
0000000000000000000000000000000001FFFF00
0000000000000000000000000000000000FFFF00
00000000000000000000000000000000007FFF00
00000000000000000000000000000000003FFF00
00000000000000000000000000000000003FFF80
00000000000000000000000000000000003FFF80
00000000000000000000000000000000001FFF80
00000000000000000000000000000000001FFF80
00000000000000000000000000000000001FFF80
00000000000000000000000000000000001FFF80
00000000000000000000000000000000001FFF80
00000000000000000000000000000000001FFF80
00000000000000000000000000000000001FFF80
00000000000000000000000000000000001FFF80
00000000000000000000000000000000001FFF80
00000000000000000000000000000000001FFF80
00000000000000000000000000000000001FFF80
00000000000000000000000000000000001FFF80
00000000000000000000000000000000001FFF80
00000000000000000000000000000000001FFF80
00000000000000000000000000000000001FFF80
00000000000000000000000000000000001FFF80
00000000000000000000000000000000001FFF80
00000000000000000000000000000000001FFF80
00000000000000000000000000000000001FFF80
00000000000000000000000000000000001FFF80
00000000000000000000000000000000001FFF80
00000000000000000000000000000000003FFF80
00000000000000000000000000000000003FFF80
00000000000000000000000000000000003FFF00
00000000000000000000000000000000007FFF00
0000000000000000000000000000000000FFFF00
0000000000000000000000000000000001FFFF00
0000000000000000000000000000000003FFFE00
0000000000000000000000000000000007FFFE00
000000000000000000000000000000000FFFFC00
000000000000000000000000000000007FFFFC00
000003FFFFFFFFFFFFFFFFFFFFFFFFFFFFFFF800
00001FFFFFFFFFFFFFFFFFFFFFFFFFFFFFFFF800
0000FFFFFFFFFFFFFFFFFFFFFFFFFFFFFFFFF000
0003FFFFFFFFFFFFFFFFFFFFFFFFFFFFFFFFE000
0007FFFFFFFFFFFFFFFFFFFFFFFFFFFFFFFFC000
001FFFFFFFFFFFFFFFFFFFFFFFFFFFFFFFFF8000
003FFFFFFFFFFFFFFFFFFFFFFFFFFFFFFFFF0000
007FFFFFFFFFFFFFFFFFFFFFFFFFFFFFFFFE0000
00FFFFFFFFFFFFFFFFFFFFFFFFFFFFFFFFFC0000
01FFFFFFFFFFFFFFFFFFFFFFFFFFFFFFFFF80000
03FFFFFFFFFFFFFFFFFFFFFFFFFFFFFFFFE00000
07FFFFFFFFFFFFFFFFFFFFFFFFFFFFFFFF800000
07FFFFFFFFFFFFFFFFFFFFFFFFFFFFFFFE000000
0FFFFFFFFFFFFFFFFFFFFFFFFFFFFFFFE0000000
1FFFFF0000000000000000000000000000000000
1FFFFC0000000000000000000000000000000000
3FFFF00000000000000000000000000000000000
3FFFE00000000000000000000000000000000000
3FFFC00000000000000000000000000000000000
7FFF800000000000000000000000000000000000
7FFF000000000000000000000000000000000000
7FFF000000000000000000000000000000000000
FFFE000000000000000000000000000000000000
FFFE000000000000000000000000000000000000
FFFC000000000000000000000000000000000000
FFFC000000000000000000000000000000000000
FFFC000000000000000000000000000000000000
FFFC000000000000000000000000000000000000
FFFC000000000000000000000000000000000000
FFFC000000000000000000000000000000000000
FFFC000000000000000000000000000000000000
FFFC000000000000000000000000000000000000
FFFC000000000000000000000000000000000000
FFFC000000000000000000000000000000000000
FFFC000000000000000000000000000000000000
FFFC000000000000000000000000000000000000
FFFC000000000000000000000000000000000000
FFFC000000000000000000000000000000000000
FFFC000000000000000000000000000000000000
FFFC000000000000000000000000000000000000
FFFC000000000000000000000000000000000000
FFFC000000000000000000000000000000000000
0000000000000000000000000000000000000000
0000000000000000000000000000000000000000
0000000000000000000000000000000000000000
0000000000000000000000000000000000000000
0000000000000000000000000000000000000000
0000000000000000000000000000000000000000
0000000000000000000000000000000000000000
FFFC000000000000000000000000000000000000
FFFC000000000000000000000000000000000000
FFFC000000000000000000000000000000000000
FFFC000000000000000000000000000000000000
FFFC000000000000000000000000000000000000
FFFC000000000000000000000000000000000000
FFFC000000000000000000000000000000000000
FFFC000000000000000000000000000000000000
FFFC000000000000000000000000000000000000
FFFC000000000000000000000000000000000000
FFFC000000000000000000000000000000000000
FFFC000000000000000000000000000000000000
FFFC000000000000000000000000000000000000
FFFC000000000000000000000000000000000000
FFFC000000000000000000000000000000000000
FFFC000000000000000000000000000000000000
FFFC000000000000000000000000000000000000
FFFC000000000000000000000000000000000000
FFFC000000000000000000000000000000000000
FFFC000000000000000000000000000000000000
FFFC000000000000000000000000000000000000
ENDCHAR
STARTCHAR 0040
ENCODING 64
SWIDTH 1113 0
DWIDTH 167 0
BBX 153 125 0 0
BITMAP
000003FFFFFFFFFFFFFFFFFFFFFFFFFFE0000000
00001FFFFFFFFFFFFFFFFFFFFFFFFFFFFC000000
0000FFFFFFFFFFFFFFFFFFFFFFFFFFFFFF800000
0003FFFFFFFFFFFFFFFFFFFFFFFFFFFFFFE00000
000FFFFFFFFFFFFFFFFFFFFFFFFFFFFFFFF80000
001FFFFFFFFFFFFFFFFFFFFFFFFFFFFFFFFC0000
003FFFFFFFFFFFFFFFFFFFFFFFFFFFFFFFFE0000
007FFFFFFFFFFFFFFFFFFFFFFFFFFFFFFFFF0000
00FFFFFFFFFFFFFFFFFFFFFFFFFFFFFFFFFF8000
01FFFFFFFFFFFFFFFFFFFFFFFFFFFFFFFFFFC000
03FFFFFFFFFFFFFFFFFFFFFFFFFFFFFFFFFFE000
07FFFFFFFFFFFFFFFFFFFFFFFFFFFFFFFFFFF000
0FFFFFFFFFFFFFFFFFFFFFFFFFFFFFFFFFFFF800
0FFFFFFFFFFFFFFFFFFFFFFFFFFFFFFFFFFFF800
1FFFFF000000000000000000000000007FFFFC00
1FFFFC000000000000000000000000001FFFFC00
3FFFF00000000000000000000000000007FFFE00
3FFFE00000000000000000000000000003FFFE00
7FFFC00000000000000000000000000001FFFF00
7FFF800000000000000000000000000000FFFF00
7FFF0000000000000000000000000000007FFF00
7FFE0000000000000000000000000000007FFF00
FFFE0000000000000000000000000000003FFF80
FFFE0000000000000000000000000000003FFF80
FFFC0000000000000000000000000000001FFF80
FFFC0000000000000000000000000000001FFF80
FFFC0000000000000000000000000000001FFF80
FFFC0000000000000000000000000000001FFF80
FFFC00001FFFFFFFFFFFFFFFFF800000001FFF80
FFFC00001FFFFFFFFFFFFFFFFFF00000001FFF80
FFFC00001FFFFFFFFFFFFFFFFFF80000001FFF80
FFFC00001FFFFFFFFFFFFFFFFFFE0000001FFF80
FFFC00001FFFFFFFFFFFFFFFFFFF0000001FFF80
FFFC00001FFFFFFFFFFFFFFFFFFF8000001FFF80
FFFC00001FFFFFFFFFFFFFFFFFFFC000001FFF80
FFFC00001FFFFFFFFFFFFFFFFFFFC000001FFF80
FFFC00001FFFFFFFFFFFFFFFFFFFE000001FFF80
FFFC00001FFFFFFFFFFFFFFFFFFFE000001FFF80
FFFC00001FFFFFFFFFFFFFFFFFFFF000001FFF80
FFFC00001FFFFFFFFFFFFFFFFFFFF000001FFF80
FFFC00001FFFFFFFFFFFFFFFFFFFF000001FFF80
FFFC00001FFFFFFFFFFFFFFFFFFFF800001FFF80
FFFC0000000000007FFFF80003FFF800001FFF80
FFFC000000000000FFFFF00003FFF800001FFF80
FFFC000000000001FFFFE00001FFF800001FFF80
FFFC000000000003FFFFC00001FFFC00001FFF80
FFFC000000000007FFFF800001FFFC00001FFF80
FFFC00000000000FFFFF000000FFFC00001FFF80
FFFC00000000001FFFFE000000FFFC00001FFF80
FFFC00000000003FFFFC000000FFFC00001FFF80
FFFC00000000007FFFF8000000FFFC00001FFF80
FFFC0000000000FFFFF0000000FFFC00001FFF80
FFFC0000000001FFFFE0000000FFFC00001FFF80
FFFC0000000003FFFFC0000000FFFC00001FFF80
FFFC0000000007FFFF80000000FFFC00001FFF80
FFFC000000000FFFFF00000000FFFC00001FFF80
FFFC000000001FFFFE00000000FFFC00001FFF80
FFFC000000003FFFFC00000000FFFC00001FFF80
FFFC000000007FFFF800000000FFFC00001FFF80
FFFC00000000FFFFF000000000FFFC00001FFF80
FFFC00000001FFFFE000000000FFFC00001FFF80
FFFC00000003FFFFC000000000FFFC00001FFF80
FFFC00000007FFFF8000000000FFFC00001FFF80
FFFC0000000FFFFF0000000000FFFC00001FFF80
FFFC0000001FFFFE0000000000FFFC00001FFF80
FFFC0000003FFFFC0000000000FFFC00001FFF80
FFFC0000007FFFF80000000000FFFC00001FFF80
FFFC000000FFFFF00000000000FFFC00001FFF80
FFFC000001FFFFE00000000000FFFC00001FFF80
FFFC000003FFFFC00000000000FFFC00001FFF80
FFFC000003FFFF800000000000FFFC00001FFF80
FFFC000007FFFF000000000000FFFC00001FFF80
FFFC00000FFFFE000000000000FFFC00001FFF80
FFFC00000FFFFC000000000000FFFC00003FFF80
FFFC00000FFFF8000000000000FFFC00003FFF80
FFFC00001FFFF0000000000000FFFC00007FFF00
FFFC00001FFFE0000000000000FFFC00007FFF00
FFFC00001FFFC0000000000000FFFC0000FFFF00
FFFC00001FFF80000000000000FFFC0001FFFF00
FFFC00001FFF80000000000000FFFC0003FFFE00
FFFC00001FFF80000000000000FFFC0007FFFE00
FFFC00001FFF80000000000000FFFC001FFFFC00
FFFC00001FFFC0000000000000FFFC007FFFFC00
FFFC00001FFFFFFFFFFFFFFFFFFFFFFFFFFFF800
FFFC00000FFFFFFFFFFFFFFFFFFFFFFFFFFFF800
FFFC00000FFFFFFFFFFFFFFFFFFFFFFFFFFFF000
FFFC00000FFFFFFFFFFFFFFFFFFFFFFFFFFFE000
FFFC000007FFFFFFFFFFFFFFFFFFFFFFFFFFC000
FFFC000007FFFFFFFFFFFFFFFFFFFFFFFFFF8000
FFFC000003FFFFFFFFFFFFFFFFFFFFFFFFFF0000
FFFC000001FFFFFFFFFFFFFFFFFFFFFFFFFE0000
FFFC000000FFFFFFFFFFFFFFFFFFFFFFFFFC0000
FFFC0000007FFFFFFFFFFFFFFFFFFFFFFFF80000
FFFC0000003FFFFFFFFFFFFFFFFFFFFFFFE00000
FFFC0000001FFFFFFFFFFFFFFFFFFFFFFF800000
FFFC00000007FFFFFFFFFFFFFFFFFFFFFE000000
FFFC00000000FFFFFFFFFFFFFFFFFFFFE0000000
FFFC000000000000000000000000000000000000
FFFC000000000000000000000000000000000000
FFFC000000000000000000000000000000000000
FFFC000000000000000000000000000000000000
FFFE000000000000000000000000000000000000
FFFE000000000000000000000000000000000000
7FFE000000000000000000000000000000000000
7FFF000000000000000000000000000000000000
7FFF800000000000000000000000000000000000
7FFFC00000000000000000000000000000000000
3FFFE00000000000000000000000000000000000
3FFFF00000000000000000000000000000000000
1FFFF80000000000000000000000000000000000
1FFFFF0000000000000000000000000000000000
0FFFFFFFFFFFFFFFFFFFFFFFFFFFFFFFFFFFFF80
0FFFFFFFFFFFFFFFFFFFFFFFFFFFFFFFFFFFFF80
07FFFFFFFFFFFFFFFFFFFFFFFFFFFFFFFFFFFF80
03FFFFFFFFFFFFFFFFFFFFFFFFFFFFFFFFFFFF80
01FFFFFFFFFFFFFFFFFFFFFFFFFFFFFFFFFFFF80
00FFFFFFFFFFFFFFFFFFFFFFFFFFFFFFFFFFFF80
007FFFFFFFFFFFFFFFFFFFFFFFFFFFFFFFFFFF80
003FFFFFFFFFFFFFFFFFFFFFFFFFFFFFFFFFFF80
001FFFFFFFFFFFFFFFFFFFFFFFFFFFFFFFFFFF80
000FFFFFFFFFFFFFFFFFFFFFFFFFFFFFFFFFFF80
0003FFFFFFFFFFFFFFFFFFFFFFFFFFFFFFFFFF80
0000FFFFFFFFFFFFFFFFFFFFFFFFFFFFFFFFFF80
00003FFFFFFFFFFFFFFFFFFFFFFFFFFFFFFFFF80
000003FFFFFFFFFFFFFFFFFFFFFFFFFFFFFFFF80
ENDCHAR
STARTCHAR 0041
ENCODING 65
SWIDTH 1113 0
DWIDTH 167 0
BBX 153 125 0 0
BITMAP
FFFFFFFFFFFFFFFFFFFFFFFFFFFFFFFFE0000000
FFFFFFFFFFFFFFFFFFFFFFFFFFFFFFFFFC000000
FFFFFFFFFFFFFFFFFFFFFFFFFFFFFFFFFF800000
FFFFFFFFFFFFFFFFFFFFFFFFFFFFFFFFFFE00000
FFFFFFFFFFFFFFFFFFFFFFFFFFFFFFFFFFF00000
FFFFFFFFFFFFFFFFFFFFFFFFFFFFFFFFFFFC0000
FFFFFFFFFFFFFFFFFFFFFFFFFFFFFFFFFFFE0000
FFFFFFFFFFFFFFFFFFFFFFFFFFFFFFFFFFFF0000
FFFFFFFFFFFFFFFFFFFFFFFFFFFFFFFFFFFF8000
FFFFFFFFFFFFFFFFFFFFFFFFFFFFFFFFFFFFC000
FFFFFFFFFFFFFFFFFFFFFFFFFFFFFFFFFFFFE000
FFFFFFFFFFFFFFFFFFFFFFFFFFFFFFFFFFFFF000
FFFFFFFFFFFFFFFFFFFFFFFFFFFFFFFFFFFFF800
FFFFFFFFFFFFFFFFFFFFFFFFFFFFFFFFFFFFF800
000000000000000001FFFFE0000000007FFFFC00
000000000000000003FFFFC0000000001FFFFC00
000000000000000007FFFF800000000007FFFE00
00000000000000000FFFFF000000000003FFFE00
00000000000000001FFFFE000000000001FFFF00
00000000000000003FFFFC000000000000FFFF00
00000000000000007FFFF80000000000007FFF00
0000000000000000FFFFF00000000000007FFF00
0000000000000001FFFFE00000000000003FFF80
0000000000000003FFFFC00000000000003FFF80
0000000000000007FFFF800000000000001FFF80
000000000000000FFFFF000000000000001FFF80
000000000000001FFFFE000000000000001FFF80
000000000000003FFFFC000000000000001FFF80
000000000000007FFFF8000000000000001FFF80
00000000000000FFFFF0000000000000001FFF80
00000000000001FFFFE0000000000000001FFF80
00000000000003FFFFC0000000000000001FFF80
00000000000007FFFF80000000000000001FFF80
0000000000000FFFFF00000000000000001FFF80
0000000000001FFFFE00000000000000001FFF80
0000000000003FFFFC00000000000000001FFF80
0000000000007FFFF800000000000000001FFF80
000000000000FFFFF000000000000000001FFF80
000000000001FFFFE000000000000000001FFF80
000000000003FFFFC000000000000000001FFF80
000000000007FFFF8000000000000000001FFF80
00000000000FFFFF0000000000000000001FFF80
00000000001FFFFE0000000000000000001FFF80
00000000003FFFFC0000000000000000001FFF80
00000000007FFFF80000000000000000001FFF80
0000000000FFFFF00000000000000000001FFF80
0000000001FFFFE00000000000000000001FFF80
0000000003FFFFC00000000000000000001FFF80
0000000007FFFF800000000000000000001FFF80
000000000FFFFF000000000000000000001FFF80
000000001FFFFE000000000000000000001FFF80
000000003FFFFC000000000000000000001FFF80
000000007FFFF8000000000000000000001FFF80
00000000FFFFF0000000000000000000001FFF80
00000001FFFFE0000000000000000000001FFF80
00000003FFFFC0000000000000000000001FFF80
00000007FFFF80000000000000000000001FFF80
0000000FFFFF00000000000000000000001FFF80
0000001FFFFE00000000000000000000001FFF80
0000003FFFFC00000000000000000000001FFF80
0000007FFFF800000000000000000000001FFF80
000000FFFFF000000000000000000000001FFF80
000001FFFFE000000000000000000000001FFF80
000003FFFFC000000000000000000000001FFF80
000007FFFF8000000000000000000000001FFF80
00000FFFFF0000000000000000000000001FFF80
00001FFFFE0000000000000000000000001FFF80
00003FFFFC0000000000000000000000001FFF80
00007FFFF80000000000000000000000001FFF80
0000FFFFF00000000000000000000000001FFF80
0001FFFFE00000000000000000000000001FFF80
0003FFFFC00000000000000000000000001FFF80
0007FFFF800000000000000000000000001FFF80
000FFFFF000000000000000000000000001FFF80
001FFFFE000000000000000000000000001FFF80
003FFFFC000000000000000000000000001FFF80
007FFFF8000000000000000000000000001FFF80
00FFFFF0000000000000000000000000001FFF80
01FFFFE0000000000000000000000000001FFF80
03FFFFC0000000000000000000000000001FFF80
07FFFF80000000000000000000000000001FFF80
07FFFF00000000000000000000000000001FFF80
0FFFFE00000000000000000000000000001FFF80
1FFFFC00000000000000000000000000001FFF80
1FFFF800000000000000000000000000001FFF80
3FFFF000000000000000000000000000001FFF80
3FFFE000000000000000000000000000001FFF80
3FFFC000000000000000000000000000001FFF80
7FFF8000000000000000000000000000001FFF80
7FFF0000000000000000000000000000001FFF80
7FFF0000000000000000000000000000001FFF80
7FFE0000000000000000000000000000001FFF80
FFFE0000000000000000000000000000001FFF80
FFFC0000000000000000000000000000001FFF80
FFFC0000000000000000000000000000001FFF80
FFFC0000000000000000000000000000001FFF80
FFFC0000000000000000000000000000001FFF80
FFFC0000000000000000000000000000001FFF80
FFFC0000000000000000000000000000001FFF80
FFFC0000000000000000000000000000001FFF80
FFFC0000000000000000000000000000001FFF80
FFFE0000000000000000000000000000003FFF80
FFFE0000000000000000000000000000003FFF80
7FFE0000000000000000000000000000007FFF00
7FFF0000000000000000000000000000007FFF00
7FFF800000000000000000000000000000FFFF00
7FFFC00000000000000000000000000001FFFE00
3FFFE00000000000000000000000000003FFFE00
3FFFF00000000000000000000000000007FFFE00
1FFFF8000000000000000000000000000FFFFC00
1FFFFF000000000000000000000000007FFFFC00
0FFFFFFFFFFFFFFFFFFFFFFFFFFFFFFFFFFFF800
0FFFFFFFFFFFFFFFFFFFFFFFFFFFFFFFFFFFF800
07FFFFFFFFFFFFFFFFFFFFFFFFFFFFFFFFFFF000
03FFFFFFFFFFFFFFFFFFFFFFFFFFFFFFFFFFE000
01FFFFFFFFFFFFFFFFFFFFFFFFFFFFFFFFFFC000
00FFFFFFFFFFFFFFFFFFFFFFFFFFFFFFFFFF8000
007FFFFFFFFFFFFFFFFFFFFFFFFFFFFFFFFF0000
003FFFFFFFFFFFFFFFFFFFFFFFFFFFFFFFFE0000
001FFFFFFFFFFFFFFFFFFFFFFFFFFFFFFFFC0000
000FFFFFFFFFFFFFFFFFFFFFFFFFFFFFFFF80000
0003FFFFFFFFFFFFFFFFFFFFFFFFFFFFFFE00000
0000FFFFFFFFFFFFFFFFFFFFFFFFFFFFFF800000
00003FFFFFFFFFFFFFFFFFFFFFFFFFFFFE000000
000003FFFFFFFFFFFFFFFFFFFFFFFFFFE0000000
ENDCHAR
STARTCHAR 0042
ENCODING 66
SWIDTH 1113 0
DWIDTH 167 0
BBX 153 167 0 0
BITMAP
FFFC000000000000000000000000000000000000
FFFC000000000000000000000000000000000000
FFFC000000000000000000000000000000000000
FFFC000000000000000000000000000000000000
FFFC000000000000000000000000000000000000
FFFC000000000000000000000000000000000000
FFFC000000000000000000000000000000000000
FFFC000000000000000000000000000000000000
FFFC000000000000000000000000000000000000
FFFC000000000000000000000000000000000000
FFFC000000000000000000000000000000000000
FFFC000000000000000000000000000000000000
FFFC000000000000000000000000000000000000
FFFC000000000000000000000000000000000000
FFFC000000000000000000000000000000000000
FFFC000000000000000000000000000000000000
FFFC000000000000000000000000000000000000
FFFC000000000000000000000000000000000000
FFFC000000000000000000000000000000000000
FFFC000000000000000000000000000000000000
FFFC000000000000000000000000000000000000
FFFC000000000000000000000000000000000000
FFFC000000000000000000000000000000000000
FFFC000000000000000000000000000000000000
FFFC000000000000000000000000000000000000
FFFC000000000000000000000000000000000000
FFFC000000000000000000000000000000000000
FFFC000000000000000000000000000000000000
FFFC000000000000000000000000000000000000
FFFC000000000000000000000000000000000000
FFFC000000000000000000000000000000000000
FFFC000000000000000000000000000000000000
FFFC000000000000000000000000000000000000
FFFC000000000000000000000000000000000000
FFFC000000000000000000000000000000000000
FFFC000000000000000000000000000000000000
FFFC000000000000000000000000000000000000
FFFC000000000000000000000000000000000000
FFFC000000000000000000000000000000000000
FFFC000000000000000000000000000000000000
FFFC000000000000000000000000000000000000
FFFC000000000000000000000000000000000000
FFFFFFFFFFFFFFFFFFFFFFFFFFFFE00000000000
FFFFFFFFFFFFFFFFFFFFFFFFFFFFFE0000000000
FFFFFFFFFFFFFFFFFFFFFFFFFFFFFF8000000000
FFFFFFFFFFFFFFFFFFFFFFFFFFFFFFE000000000
FFFFFFFFFFFFFFFFFFFFFFFFFFFFFFF800000000
FFFFFFFFFFFFFFFFFFFFFFFFFFFFFFFC00000000
FFFFFFFFFFFFFFFFFFFFFFFFFFFFFFFE00000000
FFFFFFFFFFFFFFFFFFFFFFFFFFFFFFFF00000000
FFFFFFFFFFFFFFFFFFFFFFFFFFFFFFFF80000000
FFFFFFFFFFFFFFFFFFFFFFFFFFFFFFFFC0000000
FFFFFFFFFFFFFFFFFFFFFFFFFFFFFFFFE0000000
FFFFFFFFFFFFFFFFFFFFFFFFFFFFFFFFF0000000
FFFFFFFFFFFFFFFFFFFFFFFFFFFFFFFFF8000000
FFFFFFFFFFFFFFFFFFFFFFFFFFFFFFFFFC000000
FFFC0000000000000000000000007FFFFE000000
FFFC0000000000000000000000001FFFFF000000
FFFC00000000000000000000000007FFFF800000
FFFC00000000000000000000000003FFFFC00000
FFFC00000000000000000000000000FFFFE00000
FFFC000000000000000000000000007FFFF00000
FFFC000000000000000000000000003FFFFC0000
FFFC000000000000000000000000001FFFFE0000
FFFC000000000000000000000000000FFFFF0000
FFFC0000000000000000000000000007FFFF8000
FFFC0000000000000000000000000003FFFFC000
FFFC0000000000000000000000000001FFFFC000
FFFC0000000000000000000000000000FFFFE000
FFFC00000000000000000000000000007FFFF000
FFFC00000000000000000000000000003FFFF800
FFFC00000000000000000000000000001FFFF800
FFFC00000000000000000000000000000FFFFC00
FFFC000000000000000000000000000007FFFC00
FFFC000000000000000000000000000003FFFE00
FFFC000000000000000000000000000001FFFE00
FFFC000000000000000000000000000000FFFF00
FFFC000000000000000000000000000000FFFF00
FFFC0000000000000000000000000000007FFF00
FFFC0000000000000000000000000000003FFF00
FFFC0000000000000000000000000000003FFF80
FFFC0000000000000000000000000000003FFF80
FFFC0000000000000000000000000000001FFF80
FFFC0000000000000000000000000000001FFF80
FFFC0000000000000000000000000000001FFF80
FFFC0000000000000000000000000000001FFF80
FFFC0000000000000000000000000000001FFF80
FFFC0000000000000000000000000000001FFF80
FFFC0000000000000000000000000000001FFF80
FFFC0000000000000000000000000000001FFF80
FFFC0000000000000000000000000000001FFF80
FFFC0000000000000000000000000000001FFF80
FFFC0000000000000000000000000000001FFF80
FFFC0000000000000000000000000000001FFF80
FFFC0000000000000000000000000000001FFF80
FFFC0000000000000000000000000000001FFF80
FFFC0000000000000000000000000000001FFF80
FFFC0000000000000000000000000000001FFF80
FFFC0000000000000000000000000000001FFF80
FFFC0000000000000000000000000000001FFF80
FFFC0000000000000000000000000000001FFF80
FFFC0000000000000000000000000000001FFF80
FFFC0000000000000000000000000000001FFF80
FFFC0000000000000000000000000000001FFF80
FFFC0000000000000000000000000000001FFF80
FFFC0000000000000000000000000000001FFF80
FFFC0000000000000000000000000000001FFF80
FFFC0000000000000000000000000000001FFF80
FFFC0000000000000000000000000000001FFF80
FFFC0000000000000000000000000000001FFF80
FFFC0000000000000000000000000000001FFF80
FFFC0000000000000000000000000000001FFF80
FFFC0000000000000000000000000000001FFF80
FFFC0000000000000000000000000000001FFF80
FFFC0000000000000000000000000000001FFF80
FFFC0000000000000000000000000000001FFF80
FFFC0000000000000000000000000000001FFF80
FFFC0000000000000000000000000000001FFF80
FFFC0000000000000000000000000000001FFF80
FFFC0000000000000000000000000000001FFF80
FFFC0000000000000000000000000000001FFF80
FFFC0000000000000000000000000000001FFF80
FFFC0000000000000000000000000000001FFF80
FFFC0000000000000000000000000000001FFF80
FFFC0000000000000000000000000000001FFF80
FFFC0000000000000000000000000000001FFF80
FFFC0000000000000000000000000000001FFF80
FFFC0000000000000000000000000000001FFF80
FFFC0000000000000000000000000000001FFF80
FFFC0000000000000000000000000000001FFF80
FFFC0000000000000000000000000000001FFF80
FFFC0000000000000000000000000000001FFF80
FFFC0000000000000000000000000000001FFF80
FFFC0000000000000000000000000000001FFF80
FFFC0000000000000000000000000000001FFF80
FFFC0000000000000000000000000000001FFF80
FFFC0000000000000000000000000000001FFF80
FFFC0000000000000000000000000000001FFF80
FFFC0000000000000000000000000000001FFF80
FFFC0000000000000000000000000000001FFF80
FFFC0000000000000000000000000000001FFF80
FFFC0000000000000000000000000000001FFF80
FFFC0000000000000000000000000000001FFF80
FFFE0000000000000000000000000000003FFF80
FFFE0000000000000000000000000000003FFF80
7FFE0000000000000000000000000000007FFF00
7FFF0000000000000000000000000000007FFF00
7FFF800000000000000000000000000000FFFF00
7FFFC00000000000000000000000000001FFFE00
3FFFE00000000000000000000000000003FFFE00
3FFFF00000000000000000000000000007FFFE00
1FFFF8000000000000000000000000000FFFFC00
1FFFFF000000000000000000000000007FFFFC00
0FFFFFFFFFFFFFFFFFFFFFFFFFFFFFFFFFFFF800
0FFFFFFFFFFFFFFFFFFFFFFFFFFFFFFFFFFFF800
07FFFFFFFFFFFFFFFFFFFFFFFFFFFFFFFFFFF000
03FFFFFFFFFFFFFFFFFFFFFFFFFFFFFFFFFFE000
01FFFFFFFFFFFFFFFFFFFFFFFFFFFFFFFFFFC000
00FFFFFFFFFFFFFFFFFFFFFFFFFFFFFFFFFF8000
007FFFFFFFFFFFFFFFFFFFFFFFFFFFFFFFFF0000
003FFFFFFFFFFFFFFFFFFFFFFFFFFFFFFFFE0000
001FFFFFFFFFFFFFFFFFFFFFFFFFFFFFFFFC0000
000FFFFFFFFFFFFFFFFFFFFFFFFFFFFFFFF80000
0003FFFFFFFFFFFFFFFFFFFFFFFFFFFFFFE00000
0000FFFFFFFFFFFFFFFFFFFFFFFFFFFFFF800000
00003FFFFFFFFFFFFFFFFFFFFFFFFFFFFE000000
000003FFFFFFFFFFFFFFFFFFFFFFFFFFE0000000
ENDCHAR
STARTCHAR 0043
ENCODING 67
SWIDTH 1113 0
DWIDTH 167 0
BBX 153 125 0 0
BITMAP
000003FFFFFFFFFFFFFFFFFFFFFFFFFFFFFFFF80
00003FFFFFFFFFFFFFFFFFFFFFFFFFFFFFFFFF80
0000FFFFFFFFFFFFFFFFFFFFFFFFFFFFFFFFFF80
0003FFFFFFFFFFFFFFFFFFFFFFFFFFFFFFFFFF80
000FFFFFFFFFFFFFFFFFFFFFFFFFFFFFFFFFFF80
001FFFFFFFFFFFFFFFFFFFFFFFFFFFFFFFFFFF80
003FFFFFFFFFFFFFFFFFFFFFFFFFFFFFFFFFFF80
007FFFFFFFFFFFFFFFFFFFFFFFFFFFFFFFFFFF80
00FFFFFFFFFFFFFFFFFFFFFFFFFFFFFFFFFFFF80
01FFFFFFFFFFFFFFFFFFFFFFFFFFFFFFFFFFFF80
03FFFFFFFFFFFFFFFFFFFFFFFFFFFFFFFFFFFF80
07FFFFFFFFFFFFFFFFFFFFFFFFFFFFFFFFFFFF80
0FFFFFFFFFFFFFFFFFFFFFFFFFFFFFFFFFFFFF80
0FFFFFFFFFFFFFFFFFFFFFFFFFFFFFFFFFFFFF80
1FFFFF0000000000000000000000000000000000
1FFFFC0000000000000000000000000000000000
3FFFF00000000000000000000000000000000000
3FFFE00000000000000000000000000000000000
7FFFC00000000000000000000000000000000000
7FFF800000000000000000000000000000000000
7FFF000000000000000000000000000000000000
7FFE000000000000000000000000000000000000
FFFE000000000000000000000000000000000000
FFFE000000000000000000000000000000000000
FFFC000000000000000000000000000000000000
FFFC000000000000000000000000000000000000
FFFC000000000000000000000000000000000000
FFFC000000000000000000000000000000000000
FFFC000000000000000000000000000000000000
FFFC000000000000000000000000000000000000
FFFC000000000000000000000000000000000000
FFFC000000000000000000000000000000000000
FFFC000000000000000000000000000000000000
FFFC000000000000000000000000000000000000
FFFC000000000000000000000000000000000000
FFFC000000000000000000000000000000000000
FFFC000000000000000000000000000000000000
FFFC000000000000000000000000000000000000
FFFC000000000000000000000000000000000000
FFFC000000000000000000000000000000000000
FFFC000000000000000000000000000000000000
FFFC000000000000000000000000000000000000
FFFC000000000000000000000000000000000000
FFFC000000000000000000000000000000000000
FFFC000000000000000000000000000000000000
FFFC000000000000000000000000000000000000
FFFC000000000000000000000000000000000000
FFFC000000000000000000000000000000000000
FFFC000000000000000000000000000000000000
FFFC000000000000000000000000000000000000
FFFC000000000000000000000000000000000000
FFFC000000000000000000000000000000000000
FFFC000000000000000000000000000000000000
FFFC000000000000000000000000000000000000
FFFC000000000000000000000000000000000000
FFFC000000000000000000000000000000000000
FFFC000000000000000000000000000000000000
FFFC000000000000000000000000000000000000
FFFC000000000000000000000000000000000000
FFFC000000000000000000000000000000000000
FFFC000000000000000000000000000000000000
FFFC000000000000000000000000000000000000
FFFC000000000000000000000000000000000000
FFFC000000000000000000000000000000000000
FFFC000000000000000000000000000000000000
FFFC000000000000000000000000000000000000
FFFC000000000000000000000000000000000000
FFFC000000000000000000000000000000000000
FFFC000000000000000000000000000000000000
FFFC000000000000000000000000000000000000
FFFC000000000000000000000000000000000000
FFFC000000000000000000000000000000000000
FFFC000000000000000000000000000000000000
FFFC000000000000000000000000000000000000
FFFC000000000000000000000000000000000000
FFFC000000000000000000000000000000000000
FFFC000000000000000000000000000000000000
FFFC000000000000000000000000000000000000
FFFC000000000000000000000000000000000000
FFFC000000000000000000000000000000000000
FFFC000000000000000000000000000000000000
FFFC000000000000000000000000000000000000
FFFC000000000000000000000000000000000000
FFFC000000000000000000000000000000000000
FFFC000000000000000000000000000000000000
FFFC000000000000000000000000000000000000
FFFC000000000000000000000000000000000000
FFFC000000000000000000000000000000000000
FFFC000000000000000000000000000000000000
FFFC000000000000000000000000000000000000
FFFC000000000000000000000000000000000000
FFFC000000000000000000000000000000000000
FFFC000000000000000000000000000000000000
FFFC000000000000000000000000000000000000
FFFC000000000000000000000000000000000000
FFFC000000000000000000000000000000000000
FFFC000000000000000000000000000000000000
FFFC000000000000000000000000000000000000
FFFC000000000000000000000000000000000000
FFFC000000000000000000000000000000000000
FFFC000000000000000000000000000000000000
FFFE000000000000000000000000000000000000
FFFE000000000000000000000000000000000000
7FFE000000000000000000000000000000000000
7FFF000000000000000000000000000000000000
7FFF800000000000000000000000000000000000
7FFFC00000000000000000000000000000000000
3FFFE00000000000000000000000000000000000
3FFFF00000000000000000000000000000000000
1FFFF80000000000000000000000000000000000
1FFFFF0000000000000000000000000000000000
0FFFFFFFFFFFFFFFFFFFFFFFFFFFFFFFFFFFFF80
0FFFFFFFFFFFFFFFFFFFFFFFFFFFFFFFFFFFFF80
07FFFFFFFFFFFFFFFFFFFFFFFFFFFFFFFFFFFF80
03FFFFFFFFFFFFFFFFFFFFFFFFFFFFFFFFFFFF80
01FFFFFFFFFFFFFFFFFFFFFFFFFFFFFFFFFFFF80
00FFFFFFFFFFFFFFFFFFFFFFFFFFFFFFFFFFFF80
007FFFFFFFFFFFFFFFFFFFFFFFFFFFFFFFFFFF80
003FFFFFFFFFFFFFFFFFFFFFFFFFFFFFFFFFFF80
001FFFFFFFFFFFFFFFFFFFFFFFFFFFFFFFFFFF80
000FFFFFFFFFFFFFFFFFFFFFFFFFFFFFFFFFFF80
0003FFFFFFFFFFFFFFFFFFFFFFFFFFFFFFFFFF80
0000FFFFFFFFFFFFFFFFFFFFFFFFFFFFFFFFFF80
00003FFFFFFFFFFFFFFFFFFFFFFFFFFFFFFFFF80
000003FFFFFFFFFFFFFFFFFFFFFFFFFFFFFFFF80
ENDCHAR
STARTCHAR 0044
ENCODING 68
SWIDTH 1113 0
DWIDTH 167 0
BBX 153 167 0 0
BITMAP
00000000000000000000000000000000001FFF80
00000000000000000000000000000000001FFF80
00000000000000000000000000000000001FFF80
00000000000000000000000000000000001FFF80
00000000000000000000000000000000001FFF80
00000000000000000000000000000000001FFF80
00000000000000000000000000000000001FFF80
00000000000000000000000000000000001FFF80
00000000000000000000000000000000001FFF80
00000000000000000000000000000000001FFF80
00000000000000000000000000000000001FFF80
00000000000000000000000000000000001FFF80
00000000000000000000000000000000001FFF80
00000000000000000000000000000000001FFF80
00000000000000000000000000000000001FFF80
00000000000000000000000000000000001FFF80
00000000000000000000000000000000001FFF80
00000000000000000000000000000000001FFF80
00000000000000000000000000000000001FFF80
00000000000000000000000000000000001FFF80
00000000000000000000000000000000001FFF80
00000000000000000000000000000000001FFF80
00000000000000000000000000000000001FFF80
00000000000000000000000000000000001FFF80
00000000000000000000000000000000001FFF80
00000000000000000000000000000000001FFF80
00000000000000000000000000000000001FFF80
00000000000000000000000000000000001FFF80
00000000000000000000000000000000001FFF80
00000000000000000000000000000000001FFF80
00000000000000000000000000000000001FFF80
00000000000000000000000000000000001FFF80
00000000000000000000000000000000001FFF80
00000000000000000000000000000000001FFF80
00000000000000000000000000000000001FFF80
00000000000000000000000000000000001FFF80
00000000000000000000000000000000001FFF80
00000000000000000000000000000000001FFF80
00000000000000000000000000000000001FFF80
00000000000000000000000000000000001FFF80
00000000000000000000000000000000001FFF80
00000000000000000000000000000000001FFF80
0000000003FFFFFFFFFFFFFFFFFFFFFFFFFFFF80
000000003FFFFFFFFFFFFFFFFFFFFFFFFFFFFF80
00000000FFFFFFFFFFFFFFFFFFFFFFFFFFFFFF80
00000003FFFFFFFFFFFFFFFFFFFFFFFFFFFFFF80
0000000FFFFFFFFFFFFFFFFFFFFFFFFFFFFFFF80
0000001FFFFFFFFFFFFFFFFFFFFFFFFFFFFFFF80
0000003FFFFFFFFFFFFFFFFFFFFFFFFFFFFFFF80
000000FFFFFFFFFFFFFFFFFFFFFFFFFFFFFFFF80
000001FFFFFFFFFFFFFFFFFFFFFFFFFFFFFFFF80
000003FFFFFFFFFFFFFFFFFFFFFFFFFFFFFFFF80
000007FFFFFFFFFFFFFFFFFFFFFFFFFFFFFFFF80
00000FFFFFFFFFFFFFFFFFFFFFFFFFFFFFFFFF80
00001FFFFFFFFFFFFFFFFFFFFFFFFFFFFFFFFF80
00003FFFFFFFFFFFFFFFFFFFFFFFFFFFFFFFFF80
00007FFFFF0000000000000000000000001FFF80
0000FFFFF80000000000000000000000001FFF80
0001FFFFF00000000000000000000000001FFF80
0003FFFFC00000000000000000000000001FFF80
0007FFFF800000000000000000000000001FFF80
000FFFFF000000000000000000000000001FFF80
001FFFFE000000000000000000000000001FFF80
003FFFFC000000000000000000000000001FFF80
007FFFF8000000000000000000000000001FFF80
00FFFFF0000000000000000000000000001FFF80
01FFFFE0000000000000000000000000001FFF80
03FFFFC0000000000000000000000000001FFF80
03FFFF80000000000000000000000000001FFF80
07FFFF00000000000000000000000000001FFF80
0FFFFE00000000000000000000000000001FFF80
0FFFFC00000000000000000000000000001FFF80
1FFFF800000000000000000000000000001FFF80
1FFFF000000000000000000000000000001FFF80
3FFFE000000000000000000000000000001FFF80
3FFFC000000000000000000000000000001FFF80
7FFF8000000000000000000000000000001FFF80
7FFF8000000000000000000000000000001FFF80
7FFF0000000000000000000000000000001FFF80
7FFE0000000000000000000000000000001FFF80
FFFE0000000000000000000000000000001FFF80
FFFE0000000000000000000000000000001FFF80
FFFC0000000000000000000000000000001FFF80
FFFC0000000000000000000000000000001FFF80
FFFC0000000000000000000000000000001FFF80
FFFC0000000000000000000000000000001FFF80
FFFC0000000000000000000000000000001FFF80
FFFC0000000000000000000000000000001FFF80
FFFC0000000000000000000000000000001FFF80
FFFC0000000000000000000000000000001FFF80
FFFC0000000000000000000000000000001FFF80
FFFC0000000000000000000000000000001FFF80
FFFC0000000000000000000000000000001FFF80
FFFC0000000000000000000000000000001FFF80
FFFC0000000000000000000000000000001FFF80
FFFC0000000000000000000000000000001FFF80
FFFC0000000000000000000000000000001FFF80
FFFC0000000000000000000000000000001FFF80
FFFC0000000000000000000000000000001FFF80
FFFC0000000000000000000000000000001FFF80
FFFC0000000000000000000000000000001FFF80
FFFC0000000000000000000000000000001FFF80
FFFC0000000000000000000000000000001FFF80
FFFC0000000000000000000000000000001FFF80
FFFC0000000000000000000000000000001FFF80
FFFC0000000000000000000000000000001FFF80
FFFC0000000000000000000000000000001FFF80
FFFC0000000000000000000000000000001FFF80
FFFC0000000000000000000000000000001FFF80
FFFC0000000000000000000000000000001FFF80
FFFC0000000000000000000000000000001FFF80
FFFC0000000000000000000000000000001FFF80
FFFC0000000000000000000000000000001FFF80
FFFC0000000000000000000000000000001FFF80
FFFC0000000000000000000000000000001FFF80
FFFC0000000000000000000000000000001FFF80
FFFC0000000000000000000000000000001FFF80
FFFC0000000000000000000000000000001FFF80
FFFC0000000000000000000000000000001FFF80
FFFC0000000000000000000000000000001FFF80
FFFC0000000000000000000000000000001FFF80
FFFC0000000000000000000000000000001FFF80
FFFC0000000000000000000000000000001FFF80
FFFC0000000000000000000000000000001FFF80
FFFC0000000000000000000000000000001FFF80
FFFC0000000000000000000000000000001FFF80
FFFC0000000000000000000000000000001FFF80
FFFC0000000000000000000000000000001FFF80
FFFC0000000000000000000000000000001FFF80
FFFC0000000000000000000000000000001FFF80
FFFC0000000000000000000000000000001FFF80
FFFC0000000000000000000000000000001FFF80
FFFC0000000000000000000000000000001FFF80
FFFC0000000000000000000000000000001FFF80
FFFC0000000000000000000000000000001FFF80
FFFC0000000000000000000000000000001FFF80
FFFC0000000000000000000000000000001FFF80
FFFC0000000000000000000000000000001FFF80
FFFC0000000000000000000000000000001FFF80
FFFC0000000000000000000000000000001FFF80
FFFC0000000000000000000000000000001FFF80
FFFC0000000000000000000000000000001FFF80
FFFC0000000000000000000000000000001FFF80
FFFE0000000000000000000000000000003FFF80
FFFE0000000000000000000000000000003FFF80
7FFE0000000000000000000000000000007FFF00
7FFF0000000000000000000000000000007FFF00
7FFF800000000000000000000000000000FFFF00
7FFFC00000000000000000000000000001FFFF00
3FFFE00000000000000000000000000003FFFE00
3FFFF00000000000000000000000000007FFFE00
1FFFF8000000000000000000000000001FFFFC00
1FFFFF000000000000000000000000007FFFFC00
0FFFFFFFFFFFFFFFFFFFFFFFFFFFFFFFFFFFF800
0FFFFFFFFFFFFFFFFFFFFFFFFFFFFFFFFFFFF800
07FFFFFFFFFFFFFFFFFFFFFFFFFFFFFFFFFFF000
03FFFFFFFFFFFFFFFFFFFFFFFFFFFFFFFFFFE000
01FFFFFFFFFFFFFFFFFFFFFFFFFFFFFFFFFFC000
00FFFFFFFFFFFFFFFFFFFFFFFFFFFFFFFFFF8000
007FFFFFFFFFFFFFFFFFFFFFFFFFFFFFFFFF0000
003FFFFFFFFFFFFFFFFFFFFFFFFFFFFFFFFE0000
001FFFFFFFFFFFFFFFFFFFFFFFFFFFFFFFFC0000
000FFFFFFFFFFFFFFFFFFFFFFFFFFFFFFFF80000
0003FFFFFFFFFFFFFFFFFFFFFFFFFFFFFFE00000
0000FFFFFFFFFFFFFFFFFFFFFFFFFFFFFF800000
00003FFFFFFFFFFFFFFFFFFFFFFFFFFFFE000000
000003FFFFFFFFFFFFFFFFFFFFFFFFFFE0000000
ENDCHAR
STARTCHAR 0045
ENCODING 69
SWIDTH 1113 0
DWIDTH 167 0
BBX 153 125 0 0
BITMAP
000003FFFFFFFFFFFFFFFFFFFFFFFFFFE0000000
00001FFFFFFFFFFFFFFFFFFFFFFFFFFFFC000000
0000FFFFFFFFFFFFFFFFFFFFFFFFFFFFFF800000
0003FFFFFFFFFFFFFFFFFFFFFFFFFFFFFFE00000
000FFFFFFFFFFFFFFFFFFFFFFFFFFFFFFFF00000
001FFFFFFFFFFFFFFFFFFFFFFFFFFFFFFFFC0000
003FFFFFFFFFFFFFFFFFFFFFFFFFFFFFFFFE0000
007FFFFFFFFFFFFFFFFFFFFFFFFFFFFFFFFF0000
00FFFFFFFFFFFFFFFFFFFFFFFFFFFFFFFFFF8000
01FFFFFFFFFFFFFFFFFFFFFFFFFFFFFFFFFFC000
03FFFFFFFFFFFFFFFFFFFFFFFFFFFFFFFFFFE000
07FFFFFFFFFFFFFFFFFFFFFFFFFFFFFFFFFFF000
0FFFFFFFFFFFFFFFFFFFFFFFFFFFFFFFFFFFF800
0FFFFFFFFFFFFFFFFFFFFFFFFFFFFFFFFFFFF800
1FFFFF000000000000000000000000007FFFFC00
1FFFFC000000000000000000000000001FFFFC00
3FFFF00000000000000000000000000007FFFE00
3FFFE00000000000000000000000000003FFFE00
7FFFC00000000000000000000000000001FFFF00
7FFF800000000000000000000000000000FFFF00
7FFF0000000000000000000000000000007FFF00
7FFE0000000000000000000000000000007FFF00
FFFE0000000000000000000000000000003FFF80
FFFE0000000000000000000000000000003FFF80
FFFC0000000000000000000000000000001FFF80
FFFC0000000000000000000000000000001FFF80
FFFC0000000000000000000000000000001FFF80
FFFC0000000000000000000000000000001FFF80
FFFC0000000000000000000000000000001FFF80
FFFC0000000000000000000000000000001FFF80
FFFC0000000000000000000000000000001FFF80
FFFC0000000000000000000000000000001FFF80
FFFC0000000000000000000000000000003FFF80
FFFC0000000000000000000000000000003FFF00
FFFC0000000000000000000000000000007FFF00
FFFC0000000000000000000000000000007FFF00
FFFC000000000000000000000000000000FFFF00
FFFC000000000000000000000000000001FFFE00
FFFC000000000000000000000000000003FFFE00
FFFC000000000000000000000000000007FFFE00
FFFC00000000000000000000000000000FFFFC00
FFFC00000000000000000000000000001FFFF800
FFFC00000000000000000000000000003FFFF800
FFFC00000000000000000000000000007FFFF000
FFFC0000000000000000000000000000FFFFE000
FFFC0000000000000000000000000001FFFFE000
FFFC0000000000000000000000000003FFFFC000
FFFC0000000000000000000000000007FFFF8000
FFFC000000000000000000000000000FFFFF0000
FFFC000000000000000000000000001FFFFE0000
FFFC000000000000000000000000003FFFFC0000
FFFC000000000000000000000000007FFFF80000
FFFC00000000000000000000000000FFFFF00000
FFFC00000000000000000000000001FFFFE00000
FFFC00000000000000000000000003FFFFC00000
FFFC00000000000000000000000007FFFF800000
FFFC0000000000000000000000000FFFFF000000
FFFC0000000000000000000000001FFFFE000000
FFFC0000000000000000000000003FFFFC000000
FFFC0000000000000000000000007FFFF8000000
FFFC000000000000000000000000FFFFF0000000
FFFC000000000000000000000001FFFFE0000000
FFFC000000000000000000000003FFFFC0000000
FFFC000000000000000000000007FFFF80000000
FFFC00000000000000000000000FFFFF00000000
FFFC00000000000000000000001FFFFE00000000
FFFC00000000000000000000003FFFFC00000000
FFFC00000000000000000000007FFFF800000000
FFFC0000000000000000000000FFFFF000000000
FFFC0000000000000000000001FFFFE000000000
FFFC0000000000000000000003FFFFC000000000
FFFC0000000000000000000007FFFF8000000000
FFFC000000000000000000000FFFFF0000000000
FFFC000000000000000000001FFFFE0000000000
FFFC000000000000000000003FFFFC0000000000
FFFC000000000000000000007FFFF80000000000
FFFC00000000000000000000FFFFF00000000000
FFFC00000000000000000001FFFFE00000000000
FFFC00000000000000000003FFFFC00000000000
FFFC00000000000000000007FFFF800000000000
FFFC0000000000000000000FFFFF000000000000
FFFC0000000000000000001FFFFE000000000000
FFFC0000000000000000003FFFFC000000000000
FFFC0000000000000000007FFFF8000000000000
FFFC000000000000000000FFFFF0000000000000
FFFC000000000000000001FFFFE0000000000000
FFFC000000000000000003FFFFC0000000000000
FFFC000000000000000007FFFF80000000000000
FFFC00000000000000000FFFFF00000000000000
FFFC00000000000000001FFFFE00000000000000
FFFC00000000000000003FFFFC00000000000000
FFFC00000000000000007FFFF800000000000000
FFFC0000000000000000FFFFF000000000000000
FFFC0000000000000001FFFFE000000000000000
FFFC0000000000000003FFFFC000000000000000
FFFC0000000000000007FFFF8000000000000000
FFFC000000000000000FFFFF0000000000000000
FFFC000000000000001FFFFE0000000000000000
FFFC000000000000003FFFFC0000000000000000
FFFC000000000000007FFFF80000000000000000
FFFC00000000000000FFFFF00000000000000000
FFFE00000000000001FFFFE00000000000000000
FFFE00000000000003FFFFC00000000000000000
7FFE00000000000007FFFF800000000000000000
7FFF0000000000000FFFFF000000000000000000
7FFF8000000000001FFFFE000000000000000000
7FFFC000000000003FFFFC000000000000000000
3FFFE000000000007FFFF8000000000000000000
3FFFF00000000000FFFFF0000000000000000000
1FFFF80000000001FFFFE0000000000000000000
1FFFFF0000000003FFFFC0000000000000000000
0FFFFFFFFFFFFFFFFFFFFFFFFFFFFFFFFFFFFF80
0FFFFFFFFFFFFFFFFFFFFFFFFFFFFFFFFFFFFF80
07FFFFFFFFFFFFFFFFFFFFFFFFFFFFFFFFFFFF80
03FFFFFFFFFFFFFFFFFFFFFFFFFFFFFFFFFFFF80
01FFFFFFFFFFFFFFFFFFFFFFFFFFFFFFFFFFFF80
00FFFFFFFFFFFFFFFFFFFFFFFFFFFFFFFFFFFF80
007FFFFFFFFFFFFFFFFFFFFFFFFFFFFFFFFFFF80
003FFFFFFFFFFFFFFFFFFFFFFFFFFFFFFFFFFF80
001FFFFFFFFFFFFFFFFFFFFFFFFFFFFFFFFFFF80
000FFFFFFFFFFFFFFFFFFFFFFFFFFFFFFFFFFF80
0003FFFFFFFFFFFFFFFFFFFFFFFFFFFFFFFFFF80
0000FFFFFFFFFFFFFFFFFFFFFFFFFFFFFFFFFF80
00003FFFFFFFFFFFFFFFFFFFFFFFFFFFFFFFFF80
000003FFFFFFFFFFFFFFFFFFFFFFFFFFFFFFFF80
ENDCHAR
STARTCHAR 0046
ENCODING 70
SWIDTH 1113 0
DWIDTH 167 0
BBX 153 125 0 0
BITMAP
000003FFFFFFFFFFFFFFFFFFFFFFFFFFFFFFFF80
00003FFFFFFFFFFFFFFFFFFFFFFFFFFFFFFFFF80
0000FFFFFFFFFFFFFFFFFFFFFFFFFFFFFFFFFF80
0003FFFFFFFFFFFFFFFFFFFFFFFFFFFFFFFFFF80
000FFFFFFFFFFFFFFFFFFFFFFFFFFFFFFFFFFF80
001FFFFFFFFFFFFFFFFFFFFFFFFFFFFFFFFFFF80
003FFFFFFFFFFFFFFFFFFFFFFFFFFFFFFFFFFF80
007FFFFFFFFFFFFFFFFFFFFFFFFFFFFFFFFFFF80
00FFFFFFFFFFFFFFFFFFFFFFFFFFFFFFFFFFFF80
01FFFFFFFFFFFFFFFFFFFFFFFFFFFFFFFFFFFF80
03FFFFFFFFFFFFFFFFFFFFFFFFFFFFFFFFFFFF80
07FFFFFFFFFFFFFFFFFFFFFFFFFFFFFFFFFFFF80
0FFFFFFFFFFFFFFFFFFFFFFFFFFFFFFFFFFFFF80
0FFFFFFFFFFFFFFFFFFFFFFFFFFFFFFFFFFFFF80
1FFFFF0000000000000000000000000000000000
1FFFFC0000000000000000000000000000000000
3FFFF00000000000000000000000000000000000
3FFFE00000000000000000000000000000000000
7FFFC00000000000000000000000000000000000
7FFF800000000000000000000000000000000000
7FFF000000000000000000000000000000000000
7FFE000000000000000000000000000000000000
FFFE000000000000000000000000000000000000
FFFE000000000000000000000000000000000000
FFFC000000000000000000000000000000000000
FFFC000000000000000000000000000000000000
FFFC000000000000000000000000000000000000
FFFC000000000000000000000000000000000000
FFFC000000000000000000000000000000000000
FFFC000000000000000000000000000000000000
FFFC000000000000000000000000000000000000
FFFC000000000000000000000000000000000000
FFFC000000000000000000000000000000000000
FFFC000000000000000000000000000000000000
FFFC000000000000000000000000000000000000
FFFC000000000000000000000000000000000000
FFFC000000000000000000000000000000000000
FFFC000000000000000000000000000000000000
FFFC000000000000000000000000000000000000
FFFC000000000000000000000000000000000000
FFFC000000000000000000000000000000000000
FFFC000000000000000000000000000000000000
FFFC000000000000000000000000000000000000
FFFC000000000000000000000000000000000000
FFFC000000000000000000000000000000000000
FFFC000000000000000000000000000000000000
FFFC000000000000000000000000000000000000
FFFC000000000000000000000000000000000000
FFFC000000000000000000000000000000000000
FFFC000000000000000000000000000000000000
FFFC000000000000000000000000000000000000
FFFC000000000000000000000000000000000000
FFFC000000000000000000000000000000000000
FFFC000000000000000000000000000000000000
FFFC000000000000000000000000000000000000
FFFC000000000000000000000000000000000000
FFFC000000000000000000000000000000000000
FFFC000000000000000000000000000000000000
FFFC000000000000000000000000000000000000
FFFC000000000000000000000000000000000000
FFFC000000000000000000000000000000000000
FFFC000000000000000000000000000000000000
FFFC000000000000000000000000000000000000
FFFC000000000000000000000000000000000000
FFFC000000000000000000000000000000000000
FFFC000000000000000000000000000000000000
FFFC000000000000000000000000000000000000
FFFC000000000000000000000000000000000000
FFFC000000000000000000000000000000000000
FFFC000000000000000000000000000000000000
FFFC000000000000000000000000000000000000
FFFC000000000000000000000000000000000000
FFFC000000000000000000000000000000000000
FFFC000000000000000000000000000000000000
FFFC000000000000000000000000000000000000
FFFC000000000000000000000000000000000000
FFFC000000000000000000000000000000000000
FFFC000000000000000000000000000000000000
FFFC000000000000000000000000000000000000
FFFC000000000000000000000000000000000000
FFFC000000000000000000000000000000000000
FFFC000000000000000000000000000000000000
FFFC000000000000000000000000000000000000
FFFFFFFFFFFFFFFFFFFFFFFFFFFFFFFFFFFFFF80
FFFFFFFFFFFFFFFFFFFFFFFFFFFFFFFFFFFFFF80
FFFFFFFFFFFFFFFFFFFFFFFFFFFFFFFFFFFFFF80
FFFFFFFFFFFFFFFFFFFFFFFFFFFFFFFFFFFFFF80
FFFFFFFFFFFFFFFFFFFFFFFFFFFFFFFFFFFFFF80
FFFFFFFFFFFFFFFFFFFFFFFFFFFFFFFFFFFFFF80
FFFFFFFFFFFFFFFFFFFFFFFFFFFFFFFFFFFFFF80
FFFFFFFFFFFFFFFFFFFFFFFFFFFFFFFFFFFFFF80
FFFFFFFFFFFFFFFFFFFFFFFFFFFFFFFFFFFFFF80
FFFFFFFFFFFFFFFFFFFFFFFFFFFFFFFFFFFFFF80
FFFFFFFFFFFFFFFFFFFFFFFFFFFFFFFFFFFFFF80
FFFFFFFFFFFFFFFFFFFFFFFFFFFFFFFFFFFFFF80
FFFFFFFFFFFFFFFFFFFFFFFFFFFFFFFFFFFFFF80
FFFFFFFFFFFFFFFFFFFFFFFFFFFFFFFFFFFFFF80
FFFC000000000000000000000000000000000000
FFFC000000000000000000000000000000000000
FFFC000000000000000000000000000000000000
FFFC000000000000000000000000000000000000
FFFC000000000000000000000000000000000000
FFFC000000000000000000000000000000000000
FFFC000000000000000000000000000000000000
FFFC000000000000000000000000000000000000
FFFC000000000000000000000000000000000000
FFFC000000000000000000000000000000000000
FFFC000000000000000000000000000000000000
FFFC000000000000000000000000000000000000
FFFC000000000000000000000000000000000000
FFFC000000000000000000000000000000000000
FFFC000000000000000000000000000000000000
FFFC000000000000000000000000000000000000
FFFC000000000000000000000000000000000000
FFFC000000000000000000000000000000000000
FFFC000000000000000000000000000000000000
FFFC000000000000000000000000000000000000
FFFC000000000000000000000000000000000000
FFFC000000000000000000000000000000000000
FFFC000000000000000000000000000000000000
FFFC000000000000000000000000000000000000
FFFC000000000000000000000000000000000000
FFFC000000000000000000000000000000000000
FFFC000000000000000000000000000000000000
FFFC000000000000000000000000000000000000
ENDCHAR
STARTCHAR 0047
ENCODING 71
SWIDTH 1113 0
DWIDTH 167 0
BBX 153 160 0 -35
BITMAP
000003FFFFFFFFFFFFFFFFFFFFFFFFFFE0000000
00003FFFFFFFFFFFFFFFFFFFFFFFFFFFFC000000
0000FFFFFFFFFFFFFFFFFFFFFFFFFFFFFF800000
0003FFFFFFFFFFFFFFFFFFFFFFFFFFFFFFE00000
000FFFFFFFFFFFFFFFFFFFFFFFFFFFFFFFF00000
001FFFFFFFFFFFFFFFFFFFFFFFFFFFFFFFFC0000
003FFFFFFFFFFFFFFFFFFFFFFFFFFFFFFFFE0000
007FFFFFFFFFFFFFFFFFFFFFFFFFFFFFFFFF0000
00FFFFFFFFFFFFFFFFFFFFFFFFFFFFFFFFFF8000
01FFFFFFFFFFFFFFFFFFFFFFFFFFFFFFFFFFC000
03FFFFFFFFFFFFFFFFFFFFFFFFFFFFFFFFFFE000
07FFFFFFFFFFFFFFFFFFFFFFFFFFFFFFFFFFF000
0FFFFFFFFFFFFFFFFFFFFFFFFFFFFFFFFFFFF000
0FFFFFFFFFFFFFFFFFFFFFFFFFFFFFFFFFFFF800
1FFFFF000000000000000000000000007FFFFC00
1FFFF8000000000000000000000000001FFFFC00
3FFFF00000000000000000000000000007FFFE00
3FFFE00000000000000000000000000003FFFE00
7FFFC00000000000000000000000000001FFFE00
7FFF800000000000000000000000000000FFFF00
7FFF0000000000000000000000000000007FFF00
7FFF0000000000000000000000000000007FFF00
FFFE0000000000000000000000000000003FFF80
FFFE0000000000000000000000000000003FFF80
FFFC0000000000000000000000000000001FFF80
FFFC0000000000000000000000000000001FFF80
FFFC0000000000000000000000000000001FFF80
FFFC0000000000000000000000000000001FFF80
FFFC0000000000000000000000000000001FFF80
FFFC0000000000000000000000000000001FFF80
FFFC0000000000000000000000000000001FFF80
FFFC0000000000000000000000000000001FFF80
FFFC0000000000000000000000000000001FFF80
FFFC0000000000000000000000000000001FFF80
FFFC0000000000000000000000000000001FFF80
FFFC0000000000000000000000000000001FFF80
FFFC0000000000000000000000000000001FFF80
FFFC0000000000000000000000000000001FFF80
FFFC0000000000000000000000000000001FFF80
FFFC0000000000000000000000000000001FFF80
FFFC0000000000000000000000000000001FFF80
FFFC0000000000000000000000000000001FFF80
FFFC0000000000000000000000000000001FFF80
FFFC0000000000000000000000000000001FFF80
FFFC0000000000000000000000000000001FFF80
FFFC0000000000000000000000000000001FFF80
FFFC0000000000000000000000000000001FFF80
FFFC0000000000000000000000000000001FFF80
FFFC0000000000000000000000000000001FFF80
FFFC0000000000000000000000000000001FFF80
FFFC0000000000000000000000000000001FFF80
FFFC0000000000000000000000000000001FFF80
FFFC0000000000000000000000000000001FFF80
FFFC0000000000000000000000000000001FFF80
FFFC0000000000000000000000000000001FFF80
FFFC0000000000000000000000000000001FFF80
FFFC0000000000000000000000000000001FFF80
FFFC0000000000000000000000000000001FFF80
FFFC0000000000000000000000000000001FFF80
FFFC0000000000000000000000000000001FFF80
FFFC0000000000000000000000000000001FFF80
FFFC0000000000000000000000000000001FFF80
FFFC0000000000000000000000000000001FFF80
FFFC0000000000000000000000000000001FFF80
FFFC0000000000000000000000000000001FFF80
FFFC0000000000000000000000000000001FFF80
FFFC0000000000000000000000000000001FFF80
FFFC0000000000000000000000000000001FFF80
FFFC0000000000000000000000000000001FFF80
FFFC0000000000000000000000000000001FFF80
FFFC0000000000000000000000000000001FFF80
FFFC0000000000000000000000000000001FFF80
FFFC0000000000000000000000000000001FFF80
FFFC0000000000000000000000000000001FFF80
FFFC0000000000000000000000000000001FFF80
FFFC0000000000000000000000000000001FFF80
FFFC0000000000000000000000000000001FFF80
FFFC0000000000000000000000000000001FFF80
FFFC0000000000000000000000000000001FFF80
FFFC0000000000000000000000000000001FFF80
FFFC0000000000000000000000000000001FFF80
FFFC0000000000000000000000000000001FFF80
FFFC0000000000000000000000000000001FFF80
FFFC0000000000000000000000000000001FFF80
FFFC0000000000000000000000000000001FFF80
FFFC0000000000000000000000000000001FFF80
FFFC0000000000000000000000000000001FFF80
FFFC0000000000000000000000000000001FFF80
FFFC0000000000000000000000000000001FFF80
FFFC0000000000000000000000000000001FFF80
FFFC0000000000000000000000000000001FFF80
FFFC0000000000000000000000000000001FFF80
FFFC0000000000000000000000000000001FFF80
FFFC0000000000000000000000000000001FFF80
FFFC0000000000000000000000000000001FFF80
FFFC0000000000000000000000000000001FFF80
FFFC0000000000000000000000000000001FFF80
FFFC0000000000000000000000000000001FFF80
FFFC0000000000000000000000000000001FFF80
FFFC0000000000000000000000000000001FFF80
FFFC0000000000000000000000000000001FFF80
FFFE0000000000000000000000000000001FFF80
FFFE0000000000000000000000000000001FFF80
7FFE0000000000000000000000000000001FFF80
7FFF0000000000000000000000000000001FFF80
7FFF8000000000000000000000000000001FFF80
7FFFC000000000000000000000000000001FFF80
3FFFE000000000000000000000000000001FFF80
3FFFF000000000000000000000000000001FFF80
1FFFF800000000000000000000000000001FFF80
1FFFFF00000000000000000000000000001FFF80
0FFFFFFFFFFFFFFFFFFFFFFFFFFFFFFFFFFFFF80
0FFFFFFFFFFFFFFFFFFFFFFFFFFFFFFFFFFFFF80
07FFFFFFFFFFFFFFFFFFFFFFFFFFFFFFFFFFFF80
03FFFFFFFFFFFFFFFFFFFFFFFFFFFFFFFFFFFF80
01FFFFFFFFFFFFFFFFFFFFFFFFFFFFFFFFFFFF80
00FFFFFFFFFFFFFFFFFFFFFFFFFFFFFFFFFFFF80
007FFFFFFFFFFFFFFFFFFFFFFFFFFFFFFFFFFF80
003FFFFFFFFFFFFFFFFFFFFFFFFFFFFFFFFFFF80
001FFFFFFFFFFFFFFFFFFFFFFFFFFFFFFFFFFF80
000FFFFFFFFFFFFFFFFFFFFFFFFFFFFFFFFFFF80
0003FFFFFFFFFFFFFFFFFFFFFFFFFFFFFFFFFF80
0000FFFFFFFFFFFFFFFFFFFFFFFFFFFFFFFFFF80
00003FFFFFFFFFFFFFFFFFFFFFFFFFFFFFFFFF80
000003FFFFFFFFFFFFFFFFFFFFFFFFFFFFFFFF80
00000000000000000000000000000000001FFF80
00000000000000000000000000000000001FFF80
00000000000000000000000000000000001FFF80
00000000000000000000000000000000001FFF80
00000000000000000000000000000000001FFF80
00000000000000000000000000000000001FFF80
00000000000000000000000000000000001FFF80
00000000000000000000000000000000001FFF80
00000000000000000000000000000000001FFF80
00000000000000000000000000000000001FFF80
00000000000000000000000000000000001FFF80
00000000000000000000000000000000003FFF80
00000000000000000000000000000000003FFF80
00000000000000000000000000000000007FFF00
00000000000000000000000000000000007FFF00
0000000000000000000000000000000000FFFF00
0000000000000000000000000000000001FFFE00
0000000000000000000000000000000003FFFE00
0000000000000000000000000000000007FFFE00
000000000000000000000000000000000FFFFC00
000000000000000000000000000000007FFFFC00
FFFFFFFFFFFFFFFFFFFFFFFFFFFFFFFFFFFFF800
FFFFFFFFFFFFFFFFFFFFFFFFFFFFFFFFFFFFF000
FFFFFFFFFFFFFFFFFFFFFFFFFFFFFFFFFFFFF000
FFFFFFFFFFFFFFFFFFFFFFFFFFFFFFFFFFFFE000
FFFFFFFFFFFFFFFFFFFFFFFFFFFFFFFFFFFFC000
FFFFFFFFFFFFFFFFFFFFFFFFFFFFFFFFFFFF8000
FFFFFFFFFFFFFFFFFFFFFFFFFFFFFFFFFFFF0000
FFFFFFFFFFFFFFFFFFFFFFFFFFFFFFFFFFFE0000
FFFFFFFFFFFFFFFFFFFFFFFFFFFFFFFFFFFC0000
FFFFFFFFFFFFFFFFFFFFFFFFFFFFFFFFFFF80000
FFFFFFFFFFFFFFFFFFFFFFFFFFFFFFFFFFE00000
FFFFFFFFFFFFFFFFFFFFFFFFFFFFFFFFFF800000
FFFFFFFFFFFFFFFFFFFFFFFFFFFFFFFFFE000000
FFFFFFFFFFFFFFFFFFFFFFFFFFFFFFFFE0000000
ENDCHAR
STARTCHAR 0048
ENCODING 72
SWIDTH 1113 0
DWIDTH 167 0
BBX 153 167 0 0
BITMAP
FFFC000000000000000000000000000000000000
FFFC000000000000000000000000000000000000
FFFC000000000000000000000000000000000000
FFFC000000000000000000000000000000000000
FFFC000000000000000000000000000000000000
FFFC000000000000000000000000000000000000
FFFC000000000000000000000000000000000000
FFFC000000000000000000000000000000000000
FFFC000000000000000000000000000000000000
FFFC000000000000000000000000000000000000
FFFC000000000000000000000000000000000000
FFFC000000000000000000000000000000000000
FFFC000000000000000000000000000000000000
FFFC000000000000000000000000000000000000
FFFC000000000000000000000000000000000000
FFFC000000000000000000000000000000000000
FFFC000000000000000000000000000000000000
FFFC000000000000000000000000000000000000
FFFC000000000000000000000000000000000000
FFFC000000000000000000000000000000000000
FFFC000000000000000000000000000000000000
FFFC000000000000000000000000000000000000
FFFC000000000000000000000000000000000000
FFFC000000000000000000000000000000000000
FFFC000000000000000000000000000000000000
FFFC000000000000000000000000000000000000
FFFC000000000000000000000000000000000000
FFFC000000000000000000000000000000000000
FFFC000000000000000000000000000000000000
FFFC000000000000000000000000000000000000
FFFC000000000000000000000000000000000000
FFFC000000000000000000000000000000000000
FFFC000000000000000000000000000000000000
FFFC000000000000000000000000000000000000
FFFC000000000000000000000000000000000000
FFFC000000000000000000000000000000000000
FFFC000000000000000000000000000000000000
FFFC000000000000000000000000000000000000
FFFC000000000000000000000000000000000000
FFFC000000000000000000000000000000000000
FFFC000000000000000000000000000000000000
FFFC000000000000000000000000000000000000
FFFFFFFFFFFFFFFFFFFFFFFFFFFFE00000000000
FFFFFFFFFFFFFFFFFFFFFFFFFFFFFE0000000000
FFFFFFFFFFFFFFFFFFFFFFFFFFFFFF8000000000
FFFFFFFFFFFFFFFFFFFFFFFFFFFFFFE000000000
FFFFFFFFFFFFFFFFFFFFFFFFFFFFFFF800000000
FFFFFFFFFFFFFFFFFFFFFFFFFFFFFFFC00000000
FFFFFFFFFFFFFFFFFFFFFFFFFFFFFFFE00000000
FFFFFFFFFFFFFFFFFFFFFFFFFFFFFFFF80000000
FFFFFFFFFFFFFFFFFFFFFFFFFFFFFFFFC0000000
FFFFFFFFFFFFFFFFFFFFFFFFFFFFFFFFE0000000
FFFFFFFFFFFFFFFFFFFFFFFFFFFFFFFFF0000000
FFFFFFFFFFFFFFFFFFFFFFFFFFFFFFFFF8000000
FFFFFFFFFFFFFFFFFFFFFFFFFFFFFFFFFC000000
FFFFFFFFFFFFFFFFFFFFFFFFFFFFFFFFFE000000
FFFC0000000000000000000000007FFFFF000000
FFFC0000000000000000000000000FFFFF800000
FFFC00000000000000000000000007FFFFC00000
FFFC00000000000000000000000001FFFFE00000
FFFC00000000000000000000000000FFFFF00000
FFFC000000000000000000000000007FFFF80000
FFFC000000000000000000000000003FFFFC0000
FFFC000000000000000000000000001FFFFE0000
FFFC000000000000000000000000000FFFFF0000
FFFC0000000000000000000000000007FFFF8000
FFFC0000000000000000000000000003FFFFC000
FFFC0000000000000000000000000001FFFFC000
FFFC0000000000000000000000000000FFFFE000
FFFC00000000000000000000000000007FFFF000
FFFC00000000000000000000000000003FFFF800
FFFC00000000000000000000000000001FFFF800
FFFC00000000000000000000000000000FFFFC00
FFFC000000000000000000000000000007FFFC00
FFFC000000000000000000000000000003FFFE00
FFFC000000000000000000000000000001FFFE00
FFFC000000000000000000000000000000FFFF00
FFFC0000000000000000000000000000007FFF00
FFFC0000000000000000000000000000007FFF00
FFFC0000000000000000000000000000003FFF80
FFFC0000000000000000000000000000003FFF80
FFFC0000000000000000000000000000001FFF80
FFFC0000000000000000000000000000001FFF80
FFFC0000000000000000000000000000001FFF80
FFFC0000000000000000000000000000001FFF80
FFFC0000000000000000000000000000001FFF80
FFFC0000000000000000000000000000001FFF80
FFFC0000000000000000000000000000001FFF80
FFFC0000000000000000000000000000001FFF80
FFFC0000000000000000000000000000001FFF80
FFFC0000000000000000000000000000001FFF80
FFFC0000000000000000000000000000001FFF80
FFFC0000000000000000000000000000001FFF80
FFFC0000000000000000000000000000001FFF80
FFFC0000000000000000000000000000001FFF80
FFFC0000000000000000000000000000001FFF80
FFFC0000000000000000000000000000001FFF80
FFFC0000000000000000000000000000001FFF80
FFFC0000000000000000000000000000001FFF80
FFFC0000000000000000000000000000001FFF80
FFFC0000000000000000000000000000001FFF80
FFFC0000000000000000000000000000001FFF80
FFFC0000000000000000000000000000001FFF80
FFFC0000000000000000000000000000001FFF80
FFFC0000000000000000000000000000001FFF80
FFFC0000000000000000000000000000001FFF80
FFFC0000000000000000000000000000001FFF80
FFFC0000000000000000000000000000001FFF80
FFFC0000000000000000000000000000001FFF80
FFFC0000000000000000000000000000001FFF80
FFFC0000000000000000000000000000001FFF80
FFFC0000000000000000000000000000001FFF80
FFFC0000000000000000000000000000001FFF80
FFFC0000000000000000000000000000001FFF80
FFFC0000000000000000000000000000001FFF80
FFFC0000000000000000000000000000001FFF80
FFFC0000000000000000000000000000001FFF80
FFFC0000000000000000000000000000001FFF80
FFFC0000000000000000000000000000001FFF80
FFFC0000000000000000000000000000001FFF80
FFFC0000000000000000000000000000001FFF80
FFFC0000000000000000000000000000001FFF80
FFFC0000000000000000000000000000001FFF80
FFFC0000000000000000000000000000001FFF80
FFFC0000000000000000000000000000001FFF80
FFFC0000000000000000000000000000001FFF80
FFFC0000000000000000000000000000001FFF80
FFFC0000000000000000000000000000001FFF80
FFFC0000000000000000000000000000001FFF80
FFFC0000000000000000000000000000001FFF80
FFFC0000000000000000000000000000001FFF80
FFFC0000000000000000000000000000001FFF80
FFFC0000000000000000000000000000001FFF80
FFFC0000000000000000000000000000001FFF80
FFFC0000000000000000000000000000001FFF80
FFFC0000000000000000000000000000001FFF80
FFFC0000000000000000000000000000001FFF80
FFFC0000000000000000000000000000001FFF80
FFFC0000000000000000000000000000001FFF80
FFFC0000000000000000000000000000001FFF80
FFFC0000000000000000000000000000001FFF80
FFFC0000000000000000000000000000001FFF80
FFFC0000000000000000000000000000001FFF80
FFFC0000000000000000000000000000001FFF80
FFFC0000000000000000000000000000001FFF80
FFFC0000000000000000000000000000001FFF80
FFFC0000000000000000000000000000001FFF80
FFFC0000000000000000000000000000001FFF80
FFFC0000000000000000000000000000001FFF80
FFFC0000000000000000000000000000001FFF80
FFFC0000000000000000000000000000001FFF80
FFFC0000000000000000000000000000001FFF80
FFFC0000000000000000000000000000001FFF80
FFFC0000000000000000000000000000001FFF80
FFFC0000000000000000000000000000001FFF80
FFFC0000000000000000000000000000001FFF80
FFFC0000000000000000000000000000001FFF80
FFFC0000000000000000000000000000001FFF80
FFFC0000000000000000000000000000001FFF80
FFFC0000000000000000000000000000001FFF80
FFFC0000000000000000000000000000001FFF80
FFFC0000000000000000000000000000001FFF80
FFFC0000000000000000000000000000001FFF80
FFFC0000000000000000000000000000001FFF80
FFFC0000000000000000000000000000001FFF80
FFFC0000000000000000000000000000001FFF80
FFFC0000000000000000000000000000001FFF80
ENDCHAR
STARTCHAR 0049
ENCODING 73
SWIDTH 186 0
DWIDTH 28 0
BBX 14 167 0 0
BITMAP
FFFC
FFFC
FFFC
FFFC
FFFC
FFFC
FFFC
FFFC
FFFC
FFFC
FFFC
FFFC
FFFC
FFFC
FFFC
FFFC
FFFC
FFFC
FFFC
FFFC
FFFC
0000
0000
0000
0000
0000
0000
0000
0000
0000
0000
0000
0000
0000
0000
0000
0000
0000
0000
0000
0000
0000
FFFC
FFFC
FFFC
FFFC
FFFC
FFFC
FFFC
FFFC
FFFC
FFFC
FFFC
FFFC
FFFC
FFFC
FFFC
FFFC
FFFC
FFFC
FFFC
FFFC
FFFC
FFFC
FFFC
FFFC
FFFC
FFFC
FFFC
FFFC
FFFC
FFFC
FFFC
FFFC
FFFC
FFFC
FFFC
FFFC
FFFC
FFFC
FFFC
FFFC
FFFC
FFFC
FFFC
FFFC
FFFC
FFFC
FFFC
FFFC
FFFC
FFFC
FFFC
FFFC
FFFC
FFFC
FFFC
FFFC
FFFC
FFFC
FFFC
FFFC
FFFC
FFFC
FFFC
FFFC
FFFC
FFFC
FFFC
FFFC
FFFC
FFFC
FFFC
FFFC
FFFC
FFFC
FFFC
FFFC
FFFC
FFFC
FFFC
FFFC
FFFC
FFFC
FFFC
FFFC
FFFC
FFFC
FFFC
FFFC
FFFC
FFFC
FFFC
FFFC
FFFC
FFFC
FFFC
FFFC
FFFC
FFFC
FFFC
FFFC
FFFC
FFFC
FFFC
FFFC
FFFC
FFFC
FFFC
FFFC
FFFC
FFFC
FFFC
FFFC
FFFC
FFFC
FFFC
FFFC
FFFC
FFFC
FFFC
FFFC
FFFC
FFFC
FFFC
FFFC
FFFC
ENDCHAR
STARTCHAR 004A
ENCODING 74
SWIDTH 246 0
DWIDTH 37 0
BBX 58 212 -35 -45
BITMAP
00000000000FFFC0
00000000000FFFC0
00000000000FFFC0
00000000000FFFC0
00000000000FFFC0
00000000000FFFC0
00000000000FFFC0
00000000000FFFC0
00000000000FFFC0
00000000000FFFC0
00000000000FFFC0
00000000000FFFC0
00000000000FFFC0
00000000000FFFC0
00000000000FFFC0
00000000000FFFC0
00000000000FFFC0
00000000000FFFC0
00000000000FFFC0
00000000000FFFC0
00000000000FFFC0
0000000000000000
0000000000000000
0000000000000000
0000000000000000
0000000000000000
0000000000000000
0000000000000000
0000000000000000
0000000000000000
0000000000000000
0000000000000000
0000000000000000
0000000000000000
0000000000000000
0000000000000000
0000000000000000
0000000000000000
0000000000000000
0000000000000000
0000000000000000
0000000000000000
00000000000FFFC0
00000000000FFFC0
00000000000FFFC0
00000000000FFFC0
00000000000FFFC0
00000000000FFFC0
00000000000FFFC0
00000000000FFFC0
00000000000FFFC0
00000000000FFFC0
00000000000FFFC0
00000000000FFFC0
00000000000FFFC0
00000000000FFFC0
00000000000FFFC0
00000000000FFFC0
00000000000FFFC0
00000000000FFFC0
00000000000FFFC0
00000000000FFFC0
00000000000FFFC0
00000000000FFFC0
00000000000FFFC0
00000000000FFFC0
00000000000FFFC0
00000000000FFFC0
00000000000FFFC0
00000000000FFFC0
00000000000FFFC0
00000000000FFFC0
00000000000FFFC0
00000000000FFFC0
00000000000FFFC0
00000000000FFFC0
00000000000FFFC0
00000000000FFFC0
00000000000FFFC0
00000000000FFFC0
00000000000FFFC0
00000000000FFFC0
00000000000FFFC0
00000000000FFFC0
00000000000FFFC0
00000000000FFFC0
00000000000FFFC0
00000000000FFFC0
00000000000FFFC0
00000000000FFFC0
00000000000FFFC0
00000000000FFFC0
00000000000FFFC0
00000000000FFFC0
00000000000FFFC0
00000000000FFFC0
00000000000FFFC0
00000000000FFFC0
00000000000FFFC0
00000000000FFFC0
00000000000FFFC0
00000000000FFFC0
00000000000FFFC0
00000000000FFFC0
00000000000FFFC0
00000000000FFFC0
00000000000FFFC0
00000000000FFFC0
00000000000FFFC0
00000000000FFFC0
00000000000FFFC0
00000000000FFFC0
00000000000FFFC0
00000000000FFFC0
00000000000FFFC0
00000000000FFFC0
00000000000FFFC0
00000000000FFFC0
00000000000FFFC0
00000000000FFFC0
00000000000FFFC0
00000000000FFFC0
00000000000FFFC0
00000000000FFFC0
00000000000FFFC0
00000000000FFFC0
00000000000FFFC0
00000000000FFFC0
00000000000FFFC0
00000000000FFFC0
00000000000FFFC0
00000000000FFFC0
00000000000FFFC0
00000000000FFFC0
00000000000FFFC0
00000000000FFFC0
00000000000FFFC0
00000000000FFFC0
00000000000FFFC0
00000000000FFFC0
00000000000FFFC0
00000000000FFFC0
00000000000FFFC0
00000000000FFFC0
00000000000FFFC0
00000000000FFFC0
00000000000FFFC0
00000000000FFFC0
00000000000FFFC0
00000000000FFFC0
00000000000FFFC0
00000000000FFFC0
00000000000FFFC0
00000000000FFFC0
00000000000FFFC0
00000000001FFFC0
00000000001FFF80
00000000001FFF80
00000000003FFF80
00000000007FFF80
00000000007FFF00
0000000000FFFF00
0000000001FFFF00
0000000003FFFE00
0000000007FFFE00
000000000FFFFC00
000000001FFFFC00
000000003FFFF800
000000007FFFF000
00000000FFFFF000
00000001FFFFE000
00000003FFFFC000
00000007FFFF8000
0000000FFFFF0000
0000001FFFFE0000
0000003FFFFC0000
0000007FFFF80000
000000FFFFF00000
000001FFFFE00000
000003FFFFC00000
000007FFFF800000
00000FFFFF000000
00001FFFFE000000
00003FFFFC000000
00007FFFF8000000
0000FFFFF0000000
0001FFFFE0000000
0003FFFFC0000000
0007FFFF80000000
000FFFFF00000000
001FFFFE00000000
003FFFFC00000000
007FFFF800000000
00FFFFF000000000
01FFFFE000000000
03FFFFC000000000
07FFFF8000000000
0FFFFF0000000000
1FFFFE0000000000
3FFFFC0000000000
7FFFF80000000000
FFFFF00000000000
7FFFE00000000000
3FFFC00000000000
1FFF800000000000
0FFF000000000000
07FE000000000000
03FC000000000000
03F8000000000000
01F0000000000000
00E0000000000000
0040000000000000
ENDCHAR
STARTCHAR 004B
ENCODING 75
SWIDTH 1246 0
DWIDTH 187 0
BBX 177 167 0 0
BITMAP
FFFC000000000000000000000000000000000000000000
FFFC000000000000000000000000000000000000000000
FFFC000000000000000000000000000000000000000000
FFFC000000000000000000000000000000000000000000
FFFC000000000000000000000000000000000000000000
FFFC000000000000000000000000000000000000000000
FFFC000000000000000000000000000000000000000000
FFFC000000000000000000000000000000000000000000
FFFC000000000000000000000000000000000000000000
FFFC000000000000000000000000000000000000000000
FFFC000000000000000000000000000000000000000000
FFFC000000000000000000000000000000000000000000
FFFC000000000000000000000000000000000000000000
FFFC000000000000000000000000000000000000000000
FFFC000000000000000000000000000000000000000000
FFFC000000000000000000000000000000000000000000
FFFC000000000000000000000000000000000000000000
FFFC000000000000000000000000000000000000000000
FFFC000000000000000000000000000000000000000000
FFFC000000000000000000000000000000000000000000
FFFC000000000000000000000000000000000000000000
FFFC000000000000000000000000000000000000000000
FFFC000000000000000000000000000000000000000000
FFFC000000000000000000000000000000000000000000
FFFC000000000000000000000000000000000000000000
FFFC000000000000000000000000000000000000000000
FFFC000000000000000000000000000000000000000000
FFFC000000000000000000000000000000000000000000
FFFC000000000000000000000000000000000000000000
FFFC000000000000000000000000000000000000000000
FFFC000000000000000000000000000000000000000000
FFFC000000000000000000000000000000000000000000
FFFC000000000000000000000000000000000000000000
FFFC000000000000000000000000000000000000000000
FFFC000000000000000000000000000000000000000000
FFFC000000000000000000000000000000000000000000
FFFC000000000000000000000000000000000000000000
FFFC000000000000000000000000000000000000000000
FFFC000000000000000000000000000000000000000000
FFFC000000000000000000000000000000000000000000
FFFC000000000000000000000000000000000000000000
FFFC000000000000000000000000000000000000000000
FFFC0000000000000000000000000000000001FFFFFF80
FFFC000000000000000000000000000000001FFFFFFF80
FFFC000000000000000000000000000000007FFFFFFF80
FFFC00000000000000000000000000000001FFFFFFFF80
FFFC00000000000000000000000000000007FFFFFFFF80
FFFC0000000000000000000000000000000FFFFFFFFF80
FFFC0000000000000000000000000000003FFFFFFFFF80
FFFC0000000000000000000000000000007FFFFFFFFF80
FFFC000000000000000000000000000000FFFFFFFFFF80
FFFC000000000000000000000000000001FFFFFFFFFF80
FFFC000000000000000000000000000003FFFFFFFFFF80
FFFC000000000000000000000000000007FFFFFFFFFF80
FFFC00000000000000000000000000000FFFFFFFFFFF80
FFFC00000000000000000000000000001FFFFFFFFFFF80
FFFC00000000000000000000000000003FFFFF00000000
FFFC00000000000000000000000000007FFFFC00000000
FFFC0000000000000000000000000000FFFFF000000000
FFFC0000000000000000000000000001FFFFE000000000
FFFC0000000000000000000000000003FFFFC000000000
FFFC0000000000000000000000000007FFFF8000000000
FFFC000000000000000000000000000FFFFF0000000000
FFFC000000000000000000000000001FFFFE0000000000
FFFC000000000000000000000000003FFFFC0000000000
FFFC000000000000000000000000007FFFF80000000000
FFFC00000000000000000000000000FFFFF00000000000
FFFC00000000000000000000000001FFFFE00000000000
FFFC00000000000000000000000003FFFFC00000000000
FFFC00000000000000000000000007FFFF800000000000
FFFC0000000000000000000000000FFFFF000000000000
FFFC0000000000000000000000001FFFFE000000000000
FFFC0000000000000000000000003FFFFC000000000000
FFFC0000000000000000000000007FFFF8000000000000
FFFC000000000000000000000000FFFFF0000000000000
FFFC000000000000000000000001FFFFE0000000000000
FFFC000000000000000000000003FFFFC0000000000000
FFFC000000000000000000000007FFFF80000000000000
FFFC00000000000000000000000FFFFF00000000000000
FFFC00000000000000000000001FFFFE00000000000000
FFFC00000000000000000000003FFFFC00000000000000
FFFC00000000000000000000007FFFFE00000000000000
FFFC0000000000000000000000FFFFFF00000000000000
FFFC0000000000000000000001FFFFFF80000000000000
FFFC0000000000000000000003FFFFFFC0000000000000
FFFC0000000000000000000007FFFFFFE0000000000000
FFFC000000000000000000000FFFFFFFF0000000000000
FFFC000000000000000000001FFFFFFFF8000000000000
FFFC000000000000000000003FFFFFFFFC000000000000
FFFC000000000000000000007FFFFFFFFE000000000000
FFFC00000000000000000000FFFFFFFFFF000000000000
FFFC00000000000000000001FFFFE7FFFF800000000000
FFFC00000000000000000003FFFFC3FFFFC00000000000
FFFC00000000000000000007FFFF81FFFFE00000000000
FFFC0000000000000000000FFFFF00FFFFF00000000000
FFFC0000000000000000001FFFFE007FFFF80000000000
FFFC0000000000000000003FFFFC003FFFFC0000000000
FFFC0000000000000000007FFFF8001FFFFE0000000000
FFFC000000000000000000FFFFF0000FFFFF0000000000
FFFC000000000000000001FFFFE00007FFFF8000000000
FFFC000000000000000003FFFFC00003FFFFC000000000
FFFC000000000000000007FFFF800001FFFFE000000000
FFFC00000000000000000FFFFF000000FFFFF000000000
FFFC00000000000000001FFFFE0000007FFFF800000000
FFFC00000000000000003FFFFC0000003FFFFC00000000
FFFC00000000000000007FFFF80000001FFFFE00000000
FFFC0000000000000000FFFFF00000000FFFFF00000000
FFFC0000000000000001FFFFE000000007FFFF80000000
FFFC0000000000000003FFFFC000000003FFFFC0000000
FFFC0000000000000007FFFF8000000001FFFFE0000000
FFFC000000000000000FFFFF0000000000FFFFF0000000
FFFC000000000000001FFFFE00000000007FFFF8000000
FFFC000000000000003FFFFC00000000003FFFFC000000
FFFC000000000000007FFFF800000000001FFFFE000000
FFFC00000000000000FFFFF000000000000FFFFF000000
FFFC00000000000001FFFFE0000000000007FFFF800000
FFFC00000000000003FFFFC0000000000003FFFFC00000
FFFC00000000000007FFFF80000000000001FFFFE00000
FFFC0000000000000FFFFF00000000000000FFFFF00000
FFFC0000000000001FFFFE000000000000007FFFF80000
FFFC0000000000003FFFFC000000000000003FFFFC0000
FFFC0000000000007FFFF8000000000000001FFFFE0000
FFFC000000000000FFFFF0000000000000000FFFFF0000
FFFC000000000001FFFFE00000000000000007FFFF0000
FFFC000000000003FFFFC00000000000000003FFFF8000
FFFC000000000007FFFF800000000000000001FFFF8000
FFFC00000000000FFFFF000000000000000000FFFFC000
FFFC00000000001FFFFE0000000000000000007FFFC000
FFFC00000000003FFFFC0000000000000000003FFFE000
FFFC00000000007FFFF80000000000000000001FFFE000
FFFC0000000000FFFFF00000000000000000000FFFF000
FFFC0000000001FFFFE000000000000000000007FFF000
FFFC0000000003FFFFC000000000000000000007FFF000
FFFC0000000007FFFF8000000000000000000003FFF000
FFFC000000000FFFFF0000000000000000000003FFF000
FFFC000000001FFFFE0000000000000000000003FFF800
FFFC000000003FFFFC0000000000000000000001FFF800
FFFC000000007FFFF80000000000000000000001FFF800
FFFC00000000FFFFF00000000000000000000001FFF800
FFFC00000001FFFFE00000000000000000000001FFF800
FFFC00000003FFFFC00000000000000000000001FFF800
FFFC00000007FFFF800000000000000000000001FFF800
FFFC0000000FFFFF000000000000000000000001FFF800
FFFE0000001FFFFE000000000000000000000001FFF800
FFFE0000003FFFFC000000000000000000000001FFF800
FFFE0000007FFFF8000000000000000000000001FFF800
7FFF000000FFFFF0000000000000000000000001FFF800
7FFF800001FFFFE0000000000000000000000001FFF800
7FFF800003FFFFC0000000000000000000000001FFF800
3FFFC00007FFFF80000000000000000000000001FFF800
3FFFF0000FFFFF00000000000000000000000001FFF800
1FFFF8003FFFFE00000000000000000000000001FFF800
1FFFFF00FFFFFC00000000000000000000000001FFF800
0FFFFFFFFFFFF800000000000000000000000001FFF800
0FFFFFFFFFFFF000000000000000000000000001FFF800
07FFFFFFFFFFE000000000000000000000000001FFF800
03FFFFFFFFFFC000000000000000000000000001FFF800
01FFFFFFFFFF8000000000000000000000000001FFF800
00FFFFFFFFFF0000000000000000000000000001FFF800
007FFFFFFFFE0000000000000000000000000001FFF800
003FFFFFFFFC0000000000000000000000000001FFF800
001FFFFFFFF00000000000000000000000000001FFF800
000FFFFFFFE00000000000000000000000000001FFF800
0003FFFFFF800000000000000000000000000001FFF800
0000FFFFFE000000000000000000000000000001FFF800
00003FFFF8000000000000000000000000000001FFF800
000003FF80000000000000000000000000000001FFF800
ENDCHAR
STARTCHAR 004C
ENCODING 76
SWIDTH 1113 0
DWIDTH 167 0
BBX 153 125 0 0
BITMAP
FFFC000000000000000000000000000000000000
FFFC000000000000000000000000000000000000
FFFC000000000000000000000000000000000000
FFFC000000000000000000000000000000000000
FFFC000000000000000000000000000000000000
FFFC000000000000000000000000000000000000
FFFC000000000000000000000000000000000000
FFFC000000000000000000000000000000000000
FFFC000000000000000000000000000000000000
FFFC000000000000000000000000000000000000
FFFC000000000000000000000000000000000000
FFFC000000000000000000000000000000000000
FFFC000000000000000000000000000000000000
FFFC000000000000000000000000000000000000
FFFC000000000000000000000000000000000000
FFFC000000000000000000000000000000000000
FFFC000000000000000000000000000000000000
FFFC000000000000000000000000000000000000
FFFC000000000000000000000000000000000000
FFFC000000000000000000000000000000000000
FFFC000000000000000000000000000000000000
FFFC000000000000000000000000000000000000
FFFC000000000000000000000000000000000000
FFFC000000000000000000000000000000000000
FFFC000000000000000000000000000000000000
FFFC000000000000000000000000000000000000
FFFC000000000000000000000000000000000000
FFFC000000000000000000000000000000000000
FFFC000000000000000000000000000000000000
FFFC000000000000000000000000000000000000
FFFC000000000000000000000000000000000000
FFFC000000000000000000000000000000000000
FFFC000000000000000000000000000000000000
FFFC000000000000000000000000000000000000
FFFC000000000000000000000000000000000000
FFFC000000000000000000000000000000000000
FFFC000000000000000000000000000000000000
FFFC000000000000000000000000000000000000
FFFC000000000000000000000000000000000000
FFFC000000000000000000000000000000000000
FFFC000000000000000000000000000000000000
FFFC000000000000000000000000000000000000
FFFC000000000000000000000000000000000000
FFFC000000000000000000000000000000000000
FFFC000000000000000000000000000000000000
FFFC000000000000000000000000000000000000
FFFC000000000000000000000000000000000000
FFFC000000000000000000000000000000000000
FFFC000000000000000000000000000000000000
FFFC000000000000000000000000000000000000
FFFC000000000000000000000000000000000000
FFFC000000000000000000000000000000000000
FFFC000000000000000000000000000000000000
FFFC000000000000000000000000000000000000
FFFC000000000000000000000000000000000000
FFFC000000000000000000000000000000000000
FFFC000000000000000000000000000000000000
FFFC000000000000000000000000000000000000
FFFC000000000000000000000000000000000000
FFFC000000000000000000000000000000000000
FFFC000000000000000000000000000000000000
FFFC000000000000000000000000000000000000
FFFC000000000000000000000000000000000000
FFFC000000000000000000000000000000000000
FFFC000000000000000000000000000000000000
FFFC000000000000000000000000000000000000
FFFC000000000000000000000000000000000000
FFFC000000000000000000000000000000000000
FFFC000000000000000000000000000000000000
FFFC000000000000000000000000000000000000
FFFC000000000000000000000000000000000000
FFFC000000000000000000000000000000000000
FFFC000000000000000000000000000000000000
FFFC000000000000000000000000000000000000
FFFC000000000000000000000000000000000000
FFFC000000000000000000000000000000000000
FFFC000000000000000000000000000000000000
FFFC000000000000000000000000000000000000
FFFC000000000000000000000000000000000000
FFFC000000000000000000000000000000000000
FFFC000000000000000000000000000000000000
FFFC000000000000000000000000000000000000
FFFC000000000000000000000000000000000000
FFFC000000000000000000000000000000000000
FFFC000000000000000000000000000000000000
FFFC000000000000000000000000000000000000
FFFC000000000000000000000000000000000000
FFFC000000000000000000000000000000000000
FFFC000000000000000000000000000000000000
FFFC000000000000000000000000000000000000
FFFC000000000000000000000000000000000000
FFFC000000000000000000000000000000000000
FFFC000000000000000000000000000000000000
FFFC000000000000000000000000000000000000
FFFC000000000000000000000000000000000000
FFFC000000000000000000000000000000000000
FFFC000000000000000000000000000000000000
FFFC000000000000000000000000000000000000
FFFC000000000000000000000000000000000000
FFFC000000000000000000000000000000000000
FFFC000000000000000000000000000000000000
FFFE000000000000000000000000000000000000
FFFE000000000000000000000000000000000000
7FFE000000000000000000000000000000000000
7FFF000000000000000000000000000000000000
7FFF800000000000000000000000000000000000
7FFFC00000000000000000000000000000000000
3FFFE00000000000000000000000000000000000
3FFFF00000000000000000000000000000000000
1FFFF80000000000000000000000000000000000
1FFFFF0000000000000000000000000000000000
0FFFFFFFFFFFFFFFFFFFFFFFFFFFFFFFFFFFFF80
0FFFFFFFFFFFFFFFFFFFFFFFFFFFFFFFFFFFFF80
07FFFFFFFFFFFFFFFFFFFFFFFFFFFFFFFFFFFF80
03FFFFFFFFFFFFFFFFFFFFFFFFFFFFFFFFFFFF80
01FFFFFFFFFFFFFFFFFFFFFFFFFFFFFFFFFFFF80
00FFFFFFFFFFFFFFFFFFFFFFFFFFFFFFFFFFFF80
007FFFFFFFFFFFFFFFFFFFFFFFFFFFFFFFFFFF80
003FFFFFFFFFFFFFFFFFFFFFFFFFFFFFFFFFFF80
001FFFFFFFFFFFFFFFFFFFFFFFFFFFFFFFFFFF80
000FFFFFFFFFFFFFFFFFFFFFFFFFFFFFFFFFFF80
0003FFFFFFFFFFFFFFFFFFFFFFFFFFFFFFFFFF80
0000FFFFFFFFFFFFFFFFFFFFFFFFFFFFFFFFFF80
00003FFFFFFFFFFFFFFFFFFFFFFFFFFFFFFFFF80
000003FFFFFFFFFFFFFFFFFFFFFFFFFFFFFFFF80
ENDCHAR
STARTCHAR 004D
ENCODING 77
SWIDTH 1386 0
DWIDTH 208 0
BBX 194 125 0 0
BITMAP
000003FFFFFFFFFFFFFFFFFFFFFFFFFFFFFFFFFFFFF0000000
00003FFFFFFFFFFFFFFFFFFFFFFFFFFFFFFFFFFFFFFF000000
0000FFFFFFFFFFFFFFFFFFFFFFFFFFFFFFFFFFFFFFFFC00000
0003FFFFFFFFFFFFFFFFFFFFFFFFFFFFFFFFFFFFFFFFF00000
000FFFFFFFFFFFFFFFFFFFFFFFFFFFFFFFFFFFFFFFFFFC0000
001FFFFFFFFFFFFFFFFFFFFFFFFFFFFFFFFFFFFFFFFFFE0000
003FFFFFFFFFFFFFFFFFFFFFFFFFFFFFFFFFFFFFFFFFFF0000
007FFFFFFFFFFFFFFFFFFFFFFFFFFFFFFFFFFFFFFFFFFF8000
00FFFFFFFFFFFFFFFFFFFFFFFFFFFFFFFFFFFFFFFFFFFFC000
01FFFFFFFFFFFFFFFFFFFFFFFFFFFFFFFFFFFFFFFFFFFFE000
03FFFFFFFFFFFFFFFFFFFFFFFFFFFFFFFFFFFFFFFFFFFFF000
07FFFFFFFFFFFFFFFFFFFFFFFFFFFFFFFFFFFFFFFFFFFFF800
0FFFFFFFFFFFFFFFFFFFFFFFFFFFFFFFFFFFFFFFFFFFFFFC00
0FFFFFFFFFFFFFFFFFFFFFFFFFFFFFFFFFFFFFFFFFFFFFFC00
1FFFFF00000000000000003FFF00000000000000003FFFFE00
1FFFFC00000000000000003FFF00000000000000000FFFFE00
3FFFF000000000000000003FFF000000000000000003FFFF00
3FFFE000000000000000003FFF000000000000000001FFFF00
7FFFC000000000000000003FFF000000000000000000FFFF80
7FFF8000000000000000003FFF0000000000000000007FFF80
7FFF0000000000000000003FFF0000000000000000003FFF80
7FFE0000000000000000003FFF0000000000000000003FFF80
FFFE0000000000000000003FFF0000000000000000001FFFC0
FFFE0000000000000000003FFF0000000000000000001FFFC0
FFFC0000000000000000003FFF0000000000000000000FFFC0
FFFC0000000000000000003FFF0000000000000000000FFFC0
FFFC0000000000000000003FFF0000000000000000000FFFC0
FFFC0000000000000000003FFF0000000000000000000FFFC0
FFFC0000000000000000003FFF0000000000000000000FFFC0
FFFC0000000000000000003FFF0000000000000000000FFFC0
FFFC0000000000000000003FFF0000000000000000000FFFC0
FFFC0000000000000000003FFF0000000000000000000FFFC0
FFFC0000000000000000003FFF0000000000000000000FFFC0
FFFC0000000000000000003FFF0000000000000000000FFFC0
FFFC0000000000000000003FFF0000000000000000000FFFC0
FFFC0000000000000000003FFF0000000000000000000FFFC0
FFFC0000000000000000003FFF0000000000000000000FFFC0
FFFC0000000000000000003FFF0000000000000000000FFFC0
FFFC0000000000000000003FFF0000000000000000000FFFC0
FFFC0000000000000000003FFF0000000000000000000FFFC0
FFFC0000000000000000003FFF0000000000000000000FFFC0
FFFC0000000000000000003FFF0000000000000000000FFFC0
FFFC0000000000000000003FFF0000000000000000000FFFC0
FFFC0000000000000000003FFF0000000000000000000FFFC0
FFFC0000000000000000003FFF0000000000000000000FFFC0
FFFC0000000000000000003FFF0000000000000000000FFFC0
FFFC0000000000000000003FFF0000000000000000000FFFC0
FFFC0000000000000000003FFF0000000000000000000FFFC0
FFFC0000000000000000003FFF0000000000000000000FFFC0
FFFC0000000000000000003FFF0000000000000000000FFFC0
FFFC0000000000000000003FFF0000000000000000000FFFC0
FFFC0000000000000000003FFF0000000000000000000FFFC0
FFFC0000000000000000003FFF0000000000000000000FFFC0
FFFC0000000000000000003FFF0000000000000000000FFFC0
FFFC0000000000000000003FFF0000000000000000000FFFC0
FFFC0000000000000000003FFF0000000000000000000FFFC0
FFFC0000000000000000003FFF0000000000000000000FFFC0
FFFC0000000000000000003FFF0000000000000000000FFFC0
FFFC0000000000000000003FFF0000000000000000000FFFC0
FFFC0000000000000000003FFF0000000000000000000FFFC0
FFFC0000000000000000003FFF0000000000000000000FFFC0
FFFC0000000000000000003FFF0000000000000000000FFFC0
FFFC0000000000000000003FFF0000000000000000000FFFC0
FFFC0000000000000000003FFF0000000000000000000FFFC0
FFFC0000000000000000003FFF0000000000000000000FFFC0
FFFC0000000000000000003FFF0000000000000000000FFFC0
FFFC0000000000000000003FFF0000000000000000000FFFC0
FFFC0000000000000000003FFF0000000000000000000FFFC0
FFFC0000000000000000003FFF0000000000000000000FFFC0
FFFC0000000000000000003FFF0000000000000000000FFFC0
FFFC0000000000000000003FFF0000000000000000000FFFC0
FFFC0000000000000000003FFF0000000000000000000FFFC0
FFFC0000000000000000003FFF0000000000000000000FFFC0
FFFC0000000000000000003FFF0000000000000000000FFFC0
FFFC0000000000000000003FFF0000000000000000000FFFC0
FFFC0000000000000000003FFF0000000000000000000FFFC0
FFFC0000000000000000003FFF0000000000000000000FFFC0
FFFC0000000000000000003FFF0000000000000000000FFFC0
FFFC0000000000000000003FFF0000000000000000000FFFC0
FFFC0000000000000000003FFF0000000000000000000FFFC0
FFFC0000000000000000003FFF0000000000000000000FFFC0
FFFC0000000000000000003FFF0000000000000000000FFFC0
FFFC0000000000000000003FFF0000000000000000000FFFC0
FFFC0000000000000000003FFF0000000000000000000FFFC0
FFFC0000000000000000003FFF0000000000000000000FFFC0
FFFC0000000000000000003FFF0000000000000000000FFFC0
FFFC0000000000000000003FFF0000000000000000000FFFC0
FFFC0000000000000000003FFF0000000000000000000FFFC0
FFFC0000000000000000003FFF0000000000000000000FFFC0
FFFC0000000000000000003FFF0000000000000000000FFFC0
FFFC0000000000000000003FFF0000000000000000000FFFC0
FFFC0000000000000000003FFF0000000000000000000FFFC0
FFFC0000000000000000003FFF0000000000000000000FFFC0
FFFC0000000000000000003FFF0000000000000000000FFFC0
FFFC0000000000000000003FFF0000000000000000000FFFC0
FFFC0000000000000000003FFF0000000000000000000FFFC0
FFFC0000000000000000003FFF0000000000000000000FFFC0
FFFC0000000000000000003FFF0000000000000000000FFFC0
FFFC0000000000000000003FFF0000000000000000000FFFC0
FFFC0000000000000000003FFF0000000000000000000FFFC0
FFFC0000000000000000003FFF0000000000000000000FFFC0
FFFC0000000000000000003FFF0000000000000000000FFFC0
FFFC0000000000000000003FFF0000000000000000000FFFC0
FFFC0000000000000000003FFF0000000000000000000FFFC0
FFFC0000000000000000003FFF0000000000000000000FFFC0
FFFC0000000000000000003FFF0000000000000000000FFFC0
FFFC0000000000000000003FFF0000000000000000000FFFC0
FFFC0000000000000000003FFF0000000000000000000FFFC0
FFFC0000000000000000003FFF0000000000000000000FFFC0
FFFC0000000000000000003FFF0000000000000000000FFFC0
FFFC0000000000000000003FFF0000000000000000000FFFC0
FFFC0000000000000000003FFF0000000000000000000FFFC0
FFFC0000000000000000003FFF0000000000000000000FFFC0
FFFC0000000000000000003FFF0000000000000000000FFFC0
FFFC0000000000000000003FFF0000000000000000000FFFC0
FFFC0000000000000000003FFF0000000000000000000FFFC0
FFFC0000000000000000003FFF0000000000000000000FFFC0
FFFC0000000000000000003FFF0000000000000000000FFFC0
FFFC0000000000000000003FFF0000000000000000000FFFC0
FFFC0000000000000000003FFF0000000000000000000FFFC0
FFFC0000000000000000003FFF0000000000000000000FFFC0
FFFC0000000000000000003FFF0000000000000000000FFFC0
FFFC0000000000000000003FFF0000000000000000000FFFC0
FFFC0000000000000000003FFF0000000000000000000FFFC0
FFFC0000000000000000003FFF0000000000000000000FFFC0
ENDCHAR
STARTCHAR 004E
ENCODING 78
SWIDTH 1113 0
DWIDTH 167 0
BBX 153 125 0 0
BITMAP
000003FFFFFFFFFFFFFFFFFFFFFFFFFFE0000000
00001FFFFFFFFFFFFFFFFFFFFFFFFFFFFC000000
0000FFFFFFFFFFFFFFFFFFFFFFFFFFFFFF800000
0003FFFFFFFFFFFFFFFFFFFFFFFFFFFFFFE00000
000FFFFFFFFFFFFFFFFFFFFFFFFFFFFFFFF00000
001FFFFFFFFFFFFFFFFFFFFFFFFFFFFFFFFC0000
003FFFFFFFFFFFFFFFFFFFFFFFFFFFFFFFFE0000
007FFFFFFFFFFFFFFFFFFFFFFFFFFFFFFFFF0000
00FFFFFFFFFFFFFFFFFFFFFFFFFFFFFFFFFF8000
01FFFFFFFFFFFFFFFFFFFFFFFFFFFFFFFFFFC000
03FFFFFFFFFFFFFFFFFFFFFFFFFFFFFFFFFFE000
07FFFFFFFFFFFFFFFFFFFFFFFFFFFFFFFFFFF000
0FFFFFFFFFFFFFFFFFFFFFFFFFFFFFFFFFFFF800
0FFFFFFFFFFFFFFFFFFFFFFFFFFFFFFFFFFFF800
1FFFFF000000000000000000000000007FFFFC00
1FFFFC000000000000000000000000001FFFFC00
3FFFF00000000000000000000000000007FFFE00
3FFFE00000000000000000000000000003FFFE00
7FFFC00000000000000000000000000001FFFF00
7FFF800000000000000000000000000000FFFF00
7FFF0000000000000000000000000000007FFF00
7FFE0000000000000000000000000000007FFF00
FFFE0000000000000000000000000000003FFF80
FFFE0000000000000000000000000000003FFF80
FFFC0000000000000000000000000000001FFF80
FFFC0000000000000000000000000000001FFF80
FFFC0000000000000000000000000000001FFF80
FFFC0000000000000000000000000000001FFF80
FFFC0000000000000000000000000000001FFF80
FFFC0000000000000000000000000000001FFF80
FFFC0000000000000000000000000000001FFF80
FFFC0000000000000000000000000000001FFF80
FFFC0000000000000000000000000000001FFF80
FFFC0000000000000000000000000000001FFF80
FFFC0000000000000000000000000000001FFF80
FFFC0000000000000000000000000000001FFF80
FFFC0000000000000000000000000000001FFF80
FFFC0000000000000000000000000000001FFF80
FFFC0000000000000000000000000000001FFF80
FFFC0000000000000000000000000000001FFF80
FFFC0000000000000000000000000000001FFF80
FFFC0000000000000000000000000000001FFF80
FFFC0000000000000000000000000000001FFF80
FFFC0000000000000000000000000000001FFF80
FFFC0000000000000000000000000000001FFF80
FFFC0000000000000000000000000000001FFF80
FFFC0000000000000000000000000000001FFF80
FFFC0000000000000000000000000000001FFF80
FFFC0000000000000000000000000000001FFF80
FFFC0000000000000000000000000000001FFF80
FFFC0000000000000000000000000000001FFF80
FFFC0000000000000000000000000000001FFF80
FFFC0000000000000000000000000000001FFF80
FFFC0000000000000000000000000000001FFF80
FFFC0000000000000000000000000000001FFF80
FFFC0000000000000000000000000000001FFF80
FFFC0000000000000000000000000000001FFF80
FFFC0000000000000000000000000000001FFF80
FFFC0000000000000000000000000000001FFF80
FFFC0000000000000000000000000000001FFF80
FFFC0000000000000000000000000000001FFF80
FFFC0000000000000000000000000000001FFF80
FFFC0000000000000000000000000000001FFF80
FFFC0000000000000000000000000000001FFF80
FFFC0000000000000000000000000000001FFF80
FFFC0000000000000000000000000000001FFF80
FFFC0000000000000000000000000000001FFF80
FFFC0000000000000000000000000000001FFF80
FFFC0000000000000000000000000000001FFF80
FFFC0000000000000000000000000000001FFF80
FFFC0000000000000000000000000000001FFF80
FFFC0000000000000000000000000000001FFF80
FFFC0000000000000000000000000000001FFF80
FFFC0000000000000000000000000000001FFF80
FFFC0000000000000000000000000000001FFF80
FFFC0000000000000000000000000000001FFF80
FFFC0000000000000000000000000000001FFF80
FFFC0000000000000000000000000000001FFF80
FFFC0000000000000000000000000000001FFF80
FFFC0000000000000000000000000000001FFF80
FFFC0000000000000000000000000000001FFF80
FFFC0000000000000000000000000000001FFF80
FFFC0000000000000000000000000000001FFF80
FFFC0000000000000000000000000000001FFF80
FFFC0000000000000000000000000000001FFF80
FFFC0000000000000000000000000000001FFF80
FFFC0000000000000000000000000000001FFF80
FFFC0000000000000000000000000000001FFF80
FFFC0000000000000000000000000000001FFF80
FFFC0000000000000000000000000000001FFF80
FFFC0000000000000000000000000000001FFF80
FFFC0000000000000000000000000000001FFF80
FFFC0000000000000000000000000000001FFF80
FFFC0000000000000000000000000000001FFF80
FFFC0000000000000000000000000000001FFF80
FFFC0000000000000000000000000000001FFF80
FFFC0000000000000000000000000000001FFF80
FFFC0000000000000000000000000000001FFF80
FFFC0000000000000000000000000000001FFF80
FFFC0000000000000000000000000000001FFF80
FFFC0000000000000000000000000000001FFF80
FFFC0000000000000000000000000000001FFF80
FFFC0000000000000000000000000000001FFF80
FFFC0000000000000000000000000000001FFF80
FFFC0000000000000000000000000000001FFF80
FFFC0000000000000000000000000000001FFF80
FFFC0000000000000000000000000000001FFF80
FFFC0000000000000000000000000000001FFF80
FFFC0000000000000000000000000000001FFF80
FFFC0000000000000000000000000000001FFF80
FFFC0000000000000000000000000000001FFF80
FFFC0000000000000000000000000000001FFF80
FFFC0000000000000000000000000000001FFF80
FFFC0000000000000000000000000000001FFF80
FFFC0000000000000000000000000000001FFF80
FFFC0000000000000000000000000000001FFF80
FFFC0000000000000000000000000000001FFF80
FFFC0000000000000000000000000000001FFF80
FFFC0000000000000000000000000000001FFF80
FFFC0000000000000000000000000000001FFF80
FFFC0000000000000000000000000000001FFF80
FFFC0000000000000000000000000000001FFF80
FFFC0000000000000000000000000000001FFF80
FFFC0000000000000000000000000000001FFF80
FFFC0000000000000000000000000000001FFF80
ENDCHAR
STARTCHAR 004F
ENCODING 79
SWIDTH 1113 0
DWIDTH 167 0
BBX 153 125 0 0
BITMAP
000003FFFFFFFFFFFFFFFFFFFFFFFFFFE0000000
00001FFFFFFFFFFFFFFFFFFFFFFFFFFFFC000000
0000FFFFFFFFFFFFFFFFFFFFFFFFFFFFFF800000
0003FFFFFFFFFFFFFFFFFFFFFFFFFFFFFFE00000
000FFFFFFFFFFFFFFFFFFFFFFFFFFFFFFFF00000
001FFFFFFFFFFFFFFFFFFFFFFFFFFFFFFFFC0000
003FFFFFFFFFFFFFFFFFFFFFFFFFFFFFFFFE0000
007FFFFFFFFFFFFFFFFFFFFFFFFFFFFFFFFF0000
00FFFFFFFFFFFFFFFFFFFFFFFFFFFFFFFFFF8000
01FFFFFFFFFFFFFFFFFFFFFFFFFFFFFFFFFFC000
03FFFFFFFFFFFFFFFFFFFFFFFFFFFFFFFFFFE000
07FFFFFFFFFFFFFFFFFFFFFFFFFFFFFFFFFFF000
0FFFFFFFFFFFFFFFFFFFFFFFFFFFFFFFFFFFF800
0FFFFFFFFFFFFFFFFFFFFFFFFFFFFFFFFFFFF800
1FFFFF000000000000000000000000007FFFFC00
1FFFFC000000000000000000000000001FFFFC00
3FFFF00000000000000000000000000007FFFE00
3FFFE00000000000000000000000000003FFFE00
7FFFC00000000000000000000000000001FFFF00
7FFF800000000000000000000000000000FFFF00
7FFF0000000000000000000000000000007FFF00
7FFE0000000000000000000000000000007FFF00
FFFE0000000000000000000000000000003FFF80
FFFE0000000000000000000000000000003FFF80
FFFC0000000000000000000000000000001FFF80
FFFC0000000000000000000000000000001FFF80
FFFC0000000000000000000000000000001FFF80
FFFC0000000000000000000000000000001FFF80
FFFC0000000000000000000000000000001FFF80
FFFC0000000000000000000000000000001FFF80
FFFC0000000000000000000000000000001FFF80
FFFC0000000000000000000000000000001FFF80
FFFC0000000000000000000000000000001FFF80
FFFC0000000000000000000000000000001FFF80
FFFC0000000000000000000000000000001FFF80
FFFC0000000000000000000000000000001FFF80
FFFC0000000000000000000000000000001FFF80
FFFC0000000000000000000000000000001FFF80
FFFC0000000000000000000000000000001FFF80
FFFC0000000000000000000000000000001FFF80
FFFC0000000000000000000000000000001FFF80
FFFC0000000000000000000000000000001FFF80
FFFC0000000000000000000000000000001FFF80
FFFC0000000000000000000000000000001FFF80
FFFC0000000000000000000000000000001FFF80
FFFC0000000000000000000000000000001FFF80
FFFC0000000000000000000000000000001FFF80
FFFC0000000000000000000000000000001FFF80
FFFC0000000000000000000000000000001FFF80
FFFC0000000000000000000000000000001FFF80
FFFC0000000000000000000000000000001FFF80
FFFC0000000000000000000000000000001FFF80
FFFC0000000000000000000000000000001FFF80
FFFC0000000000000000000000000000001FFF80
FFFC0000000000000000000000000000001FFF80
FFFC0000000000000000000000000000001FFF80
FFFC0000000000000000000000000000001FFF80
FFFC0000000000000000000000000000001FFF80
FFFC0000000000000000000000000000001FFF80
FFFC0000000000000000000000000000001FFF80
FFFC0000000000000000000000000000001FFF80
FFFC0000000000000000000000000000001FFF80
FFFC0000000000000000000000000000001FFF80
FFFC0000000000000000000000000000001FFF80
FFFC0000000000000000000000000000001FFF80
FFFC0000000000000000000000000000001FFF80
FFFC0000000000000000000000000000001FFF80
FFFC0000000000000000000000000000001FFF80
FFFC0000000000000000000000000000001FFF80
FFFC0000000000000000000000000000001FFF80
FFFC0000000000000000000000000000001FFF80
FFFC0000000000000000000000000000001FFF80
FFFC0000000000000000000000000000001FFF80
FFFC0000000000000000000000000000001FFF80
FFFC0000000000000000000000000000001FFF80
FFFC0000000000000000000000000000001FFF80
FFFC0000000000000000000000000000001FFF80
FFFC0000000000000000000000000000001FFF80
FFFC0000000000000000000000000000001FFF80
FFFC0000000000000000000000000000001FFF80
FFFC0000000000000000000000000000001FFF80
FFFC0000000000000000000000000000001FFF80
FFFC0000000000000000000000000000001FFF80
FFFC0000000000000000000000000000001FFF80
FFFC0000000000000000000000000000001FFF80
FFFC0000000000000000000000000000001FFF80
FFFC0000000000000000000000000000001FFF80
FFFC0000000000000000000000000000001FFF80
FFFC0000000000000000000000000000001FFF80
FFFC0000000000000000000000000000001FFF80
FFFC0000000000000000000000000000001FFF80
FFFC0000000000000000000000000000001FFF80
FFFC0000000000000000000000000000001FFF80
FFFC0000000000000000000000000000001FFF80
FFFC0000000000000000000000000000001FFF80
FFFC0000000000000000000000000000001FFF80
FFFC0000000000000000000000000000001FFF80
FFFC0000000000000000000000000000001FFF80
FFFC0000000000000000000000000000001FFF80
FFFC0000000000000000000000000000001FFF80
FFFC0000000000000000000000000000001FFF80
FFFE0000000000000000000000000000003FFF80
FFFE0000000000000000000000000000003FFF80
7FFE0000000000000000000000000000007FFF00
7FFF0000000000000000000000000000007FFF00
7FFF800000000000000000000000000000FFFF00
7FFFC00000000000000000000000000001FFFE00
3FFFE00000000000000000000000000003FFFE00
3FFFF00000000000000000000000000007FFFE00
1FFFF8000000000000000000000000000FFFFC00
1FFFFF000000000000000000000000007FFFFC00
0FFFFFFFFFFFFFFFFFFFFFFFFFFFFFFFFFFFF800
0FFFFFFFFFFFFFFFFFFFFFFFFFFFFFFFFFFFF000
07FFFFFFFFFFFFFFFFFFFFFFFFFFFFFFFFFFF000
03FFFFFFFFFFFFFFFFFFFFFFFFFFFFFFFFFFE000
01FFFFFFFFFFFFFFFFFFFFFFFFFFFFFFFFFFC000
00FFFFFFFFFFFFFFFFFFFFFFFFFFFFFFFFFF8000
007FFFFFFFFFFFFFFFFFFFFFFFFFFFFFFFFF0000
003FFFFFFFFFFFFFFFFFFFFFFFFFFFFFFFFE0000
001FFFFFFFFFFFFFFFFFFFFFFFFFFFFFFFFC0000
000FFFFFFFFFFFFFFFFFFFFFFFFFFFFFFFF00000
0003FFFFFFFFFFFFFFFFFFFFFFFFFFFFFFE00000
0000FFFFFFFFFFFFFFFFFFFFFFFFFFFFFF800000
00003FFFFFFFFFFFFFFFFFFFFFFFFFFFFC000000
000003FFFFFFFFFFFFFFFFFFFFFFFFFFE0000000
ENDCHAR
STARTCHAR 0050
ENCODING 80
SWIDTH 1113 0
DWIDTH 167 0
BBX 153 160 0 -35
BITMAP
000003FFFFFFFFFFFFFFFFFFFFFFFFFFE0000000
00001FFFFFFFFFFFFFFFFFFFFFFFFFFFFE000000
0000FFFFFFFFFFFFFFFFFFFFFFFFFFFFFF800000
0003FFFFFFFFFFFFFFFFFFFFFFFFFFFFFFE00000
000FFFFFFFFFFFFFFFFFFFFFFFFFFFFFFFF80000
001FFFFFFFFFFFFFFFFFFFFFFFFFFFFFFFFC0000
003FFFFFFFFFFFFFFFFFFFFFFFFFFFFFFFFE0000
007FFFFFFFFFFFFFFFFFFFFFFFFFFFFFFFFF0000
00FFFFFFFFFFFFFFFFFFFFFFFFFFFFFFFFFF8000
01FFFFFFFFFFFFFFFFFFFFFFFFFFFFFFFFFFC000
03FFFFFFFFFFFFFFFFFFFFFFFFFFFFFFFFFFE000
07FFFFFFFFFFFFFFFFFFFFFFFFFFFFFFFFFFF000
0FFFFFFFFFFFFFFFFFFFFFFFFFFFFFFFFFFFF800
0FFFFFFFFFFFFFFFFFFFFFFFFFFFFFFFFFFFF800
1FFFFF000000000000000000000000007FFFFC00
1FFFF8000000000000000000000000001FFFFC00
3FFFF00000000000000000000000000007FFFE00
3FFFE00000000000000000000000000003FFFE00
7FFFC00000000000000000000000000001FFFF00
7FFF800000000000000000000000000000FFFF00
7FFF0000000000000000000000000000007FFF00
7FFF0000000000000000000000000000007FFF00
FFFE0000000000000000000000000000003FFF80
FFFE0000000000000000000000000000003FFF80
FFFC0000000000000000000000000000001FFF80
FFFC0000000000000000000000000000001FFF80
FFFC0000000000000000000000000000001FFF80
FFFC0000000000000000000000000000001FFF80
FFFC0000000000000000000000000000001FFF80
FFFC0000000000000000000000000000001FFF80
FFFC0000000000000000000000000000001FFF80
FFFC0000000000000000000000000000001FFF80
FFFC0000000000000000000000000000001FFF80
FFFC0000000000000000000000000000001FFF80
FFFC0000000000000000000000000000001FFF80
FFFC0000000000000000000000000000001FFF80
FFFC0000000000000000000000000000001FFF80
FFFC0000000000000000000000000000001FFF80
FFFC0000000000000000000000000000001FFF80
FFFC0000000000000000000000000000001FFF80
FFFC0000000000000000000000000000001FFF80
FFFC0000000000000000000000000000001FFF80
FFFC0000000000000000000000000000001FFF80
FFFC0000000000000000000000000000001FFF80
FFFC0000000000000000000000000000001FFF80
FFFC0000000000000000000000000000001FFF80
FFFC0000000000000000000000000000001FFF80
FFFC0000000000000000000000000000001FFF80
FFFC0000000000000000000000000000001FFF80
FFFC0000000000000000000000000000001FFF80
FFFC0000000000000000000000000000001FFF80
FFFC0000000000000000000000000000001FFF80
FFFC0000000000000000000000000000001FFF80
FFFC0000000000000000000000000000001FFF80
FFFC0000000000000000000000000000001FFF80
FFFC0000000000000000000000000000001FFF80
FFFC0000000000000000000000000000001FFF80
FFFC0000000000000000000000000000001FFF80
FFFC0000000000000000000000000000001FFF80
FFFC0000000000000000000000000000001FFF80
FFFC0000000000000000000000000000001FFF80
FFFC0000000000000000000000000000001FFF80
FFFC0000000000000000000000000000001FFF80
FFFC0000000000000000000000000000001FFF80
FFFC0000000000000000000000000000001FFF80
FFFC0000000000000000000000000000001FFF80
FFFC0000000000000000000000000000001FFF80
FFFC0000000000000000000000000000001FFF80
FFFC0000000000000000000000000000001FFF80
FFFC0000000000000000000000000000001FFF80
FFFC0000000000000000000000000000001FFF80
FFFC0000000000000000000000000000001FFF80
FFFC0000000000000000000000000000001FFF80
FFFC0000000000000000000000000000001FFF80
FFFC0000000000000000000000000000001FFF80
FFFC0000000000000000000000000000001FFF80
FFFC0000000000000000000000000000001FFF80
FFFC0000000000000000000000000000001FFF80
FFFC0000000000000000000000000000001FFF80
FFFC0000000000000000000000000000001FFF80
FFFC0000000000000000000000000000001FFF80
FFFC0000000000000000000000000000001FFF80
FFFC0000000000000000000000000000001FFF80
FFFC0000000000000000000000000000001FFF80
FFFC0000000000000000000000000000001FFF80
FFFC0000000000000000000000000000001FFF80
FFFC0000000000000000000000000000001FFF80
FFFC0000000000000000000000000000001FFF80
FFFC0000000000000000000000000000001FFF80
FFFC0000000000000000000000000000001FFF80
FFFC0000000000000000000000000000001FFF80
FFFC0000000000000000000000000000001FFF80
FFFC0000000000000000000000000000001FFF80
FFFC0000000000000000000000000000001FFF80
FFFC0000000000000000000000000000001FFF80
FFFC0000000000000000000000000000001FFF80
FFFC0000000000000000000000000000001FFF80
FFFC0000000000000000000000000000001FFF80
FFFC0000000000000000000000000000001FFF80
FFFC0000000000000000000000000000001FFF80
FFFC0000000000000000000000000000001FFF80
FFFC0000000000000000000000000000003FFF80
FFFC0000000000000000000000000000003FFF80
FFFC0000000000000000000000000000003FFF00
FFFC0000000000000000000000000000007FFF00
FFFC000000000000000000000000000000FFFF00
FFFC000000000000000000000000000000FFFE00
FFFC000000000000000000000000000001FFFE00
FFFC000000000000000000000000000007FFFE00
FFFC00000000000000000000000000000FFFFC00
FFFC00000000000000000000000000003FFFFC00
FFFFFFFFFFFFFFFFFFFFFFFFFFFFFFFFFFFFF800
FFFFFFFFFFFFFFFFFFFFFFFFFFFFFFFFFFFFF000
FFFFFFFFFFFFFFFFFFFFFFFFFFFFFFFFFFFFF000
FFFFFFFFFFFFFFFFFFFFFFFFFFFFFFFFFFFFE000
FFFFFFFFFFFFFFFFFFFFFFFFFFFFFFFFFFFFC000
FFFFFFFFFFFFFFFFFFFFFFFFFFFFFFFFFFFF8000
FFFFFFFFFFFFFFFFFFFFFFFFFFFFFFFFFFFF0000
FFFFFFFFFFFFFFFFFFFFFFFFFFFFFFFFFFFE0000
FFFFFFFFFFFFFFFFFFFFFFFFFFFFFFFFFFFC0000
FFFFFFFFFFFFFFFFFFFFFFFFFFFFFFFFFFF80000
FFFFFFFFFFFFFFFFFFFFFFFFFFFFFFFFFFE00000
FFFFFFFFFFFFFFFFFFFFFFFFFFFFFFFFFF800000
FFFFFFFFFFFFFFFFFFFFFFFFFFFFFFFFFE000000
FFFFFFFFFFFFFFFFFFFFFFFFFFFFFFFFE0000000
FFFC000000000000000000000000000000000000
FFFC000000000000000000000000000000000000
FFFC000000000000000000000000000000000000
FFFC000000000000000000000000000000000000
FFFC000000000000000000000000000000000000
FFFC000000000000000000000000000000000000
FFFC000000000000000000000000000000000000
FFFC000000000000000000000000000000000000
FFFC000000000000000000000000000000000000
FFFC000000000000000000000000000000000000
FFFC000000000000000000000000000000000000
FFFC000000000000000000000000000000000000
FFFC000000000000000000000000000000000000
FFFC000000000000000000000000000000000000
FFFC000000000000000000000000000000000000
FFFC000000000000000000000000000000000000
FFFC000000000000000000000000000000000000
FFFC000000000000000000000000000000000000
FFFC000000000000000000000000000000000000
FFFC000000000000000000000000000000000000
FFFC000000000000000000000000000000000000
FFFC000000000000000000000000000000000000
FFFC000000000000000000000000000000000000
FFFC000000000000000000000000000000000000
FFFC000000000000000000000000000000000000
FFFC000000000000000000000000000000000000
FFFC000000000000000000000000000000000000
FFFC000000000000000000000000000000000000
FFFC000000000000000000000000000000000000
FFFC000000000000000000000000000000000000
FFFC000000000000000000000000000000000000
FFFC000000000000000000000000000000000000
FFFC000000000000000000000000000000000000
FFFC000000000000000000000000000000000000
FFFC000000000000000000000000000000000000
ENDCHAR
STARTCHAR 0051
ENCODING 81
SWIDTH 1113 0
DWIDTH 167 0
BBX 153 125 0 0
BITMAP
000003FFFFFFFFFFFFFFFFFFFFFFFFFFE0000000
00001FFFFFFFFFFFFFFFFFFFFFFFFFFFFC000000
0000FFFFFFFFFFFFFFFFFFFFFFFFFFFFFF800000
0003FFFFFFFFFFFFFFFFFFFFFFFFFFFFFFE00000
000FFFFFFFFFFFFFFFFFFFFFFFFFFFFFFFF00000
001FFFFFFFFFFFFFFFFFFFFFFFFFFFFFFFFC0000
003FFFFFFFFFFFFFFFFFFFFFFFFFFFFFFFFE0000
007FFFFFFFFFFFFFFFFFFFFFFFFFFFFFFFFF0000
00FFFFFFFFFFFFFFFFFFFFFFFFFFFFFFFFFF8000
01FFFFFFFFFFFFFFFFFFFFFFFFFFFFFFFFFFC000
03FFFFFFFFFFFFFFFFFFFFFFFFFFFFFFFFFFE000
07FFFFFFFFFFFFFFFFFFFFFFFFFFFFFFFFFFF000
0FFFFFFFFFFFFFFFFFFFFFFFFFFFFFFFFFFFF800
0FFFFFFFFFFFFFFFFFFFFFFFFFFFFFFFFFFFF800
1FFFFF000000000000000000000000007FFFFC00
1FFFFC000000000000000000000000001FFFFC00
3FFFF00000000000000000000000000007FFFE00
3FFFE00000000000000000000000000003FFFE00
7FFFC00000000000000000000000000001FFFF00
7FFF800000000000000000000000000000FFFF00
7FFF0000000000000000000000000000007FFF00
7FFE0000000000000000000000000000007FFF00
FFFE0000000000000000000000000000003FFF80
FFFE0000000000000000000000000000003FFF80
FFFC0000000000000000000000000000001FFF80
FFFC0000000000000000000000000000001FFF80
FFFC0000000000000000000000000000001FFF80
FFFC0000000000000000000000000000001FFF80
FFFC0000000000000000000000000000001FFF80
FFFC0000000000000000000000000000001FFF80
FFFC0000000000000000000000000000001FFF80
FFFC0000000000000000000000000000001FFF80
FFFC0000000000000000000000000000001FFF80
FFFC0000000000000000000000000000001FFF80
FFFC0000000000000000000000000000001FFF80
FFFC0000000000000000000000000000001FFF80
FFFC0000000000000000000000000000001FFF80
FFFC0000000000000000000000000000001FFF80
FFFC0000000000000000000000000000001FFF80
FFFC0000000000000000000000000000001FFF80
FFFC0000000000000000000000000000001FFF80
FFFC0000000000000000000000000000001FFF80
FFFC0000000000000000000000000000001FFF80
FFFC0000000000000000000000000000001FFF80
FFFC0000000000000000000000000000001FFF80
FFFC0000000000000000000000000000001FFF80
FFFC0000000000000000000000000000001FFF80
FFFC0000000000000000000000000000001FFF80
FFFC0000000000000000000000000000001FFF80
FFFC0000000000000000000000000000001FFF80
FFFC0000000000000000000000000000001FFF80
FFFC0000000000000000000000000000001FFF80
FFFC0000000000000000000000000000001FFF80
FFFC0000000000000000000000000000001FFF80
FFFC0000000000000000000000000000001FFF80
FFFC0000000000000000000000000000001FFF80
FFFC0000000000000000000000000000001FFF80
FFFC0000000000000000000000000000001FFF80
FFFC0000000000000000000000000000001FFF80
FFFC0000000000000000000000000000001FFF80
FFFC0000000000000000000000000000001FFF80
FFFC0000000000000000000000000000001FFF80
FFFC0000000000000000000000000000001FFF80
FFFC0000000000000000000000000000001FFF80
FFFC0000000000000000000000000000001FFF80
FFFC0000000000000000000000000000001FFF80
FFFC0000000000000000000000000000001FFF80
FFFC0000000000000000000000000000001FFF80
FFFC0000000000000000000000000000001FFF80
FFFC0000000000000000000000000000001FFF80
FFFC0000000000000000000000000000001FFF80
FFFC0000000000000000000000000000001FFF80
FFFC0000000000000000000000000000001FFF80
FFFC0000000000000000000000000000001FFF80
FFFC00000000C0000000000000000000001FFF80
FFFC00000001E0000000000000000000001FFF80
FFFC00000003F0000000000000000000001FFF80
FFFC00000007F8000000000000000000001FFF80
FFFC0000000FFC000000000000000000001FFF80
FFFC0000001FFE000000000000000000001FFF80
FFFC0000003FFF000000000000000000001FFF80
FFFC0000007FFF800000000000000000001FFF80
FFFC000000FFFFC00000000000000000001FFF80
FFFC000001FFFFE00000000000000000001FFF80
FFFC000000FFFFF00000000000000000001FFF80
FFFC0000007FFFF80000000000000000001FFF80
FFFC0000003FFFFC0000000000000000001FFF80
FFFC0000001FFFFE0000000000000000001FFF80
FFFC0000000FFFFF0000000000000000001FFF80
FFFC00000007FFFF8000000000000000001FFF80
FFFC00000003FFFFC000000000000000001FFF80
FFFC00000001FFFFE000000000000000001FFF80
FFFC00000000FFFFF000000000000000001FFF80
FFFC000000007FFFF800000000000000001FFF80
FFFC000000003FFFFC00000000000000001FFF80
FFFC000000001FFFFE00000000000000001FFF80
FFFC000000000FFFFF00000000000000001FFF80
FFFC0000000007FFFF80000000000000001FFF80
FFFC0000000003FFFFC0000000000000001FFF80
FFFC0000000001FFFFE0000000000000001FFF80
FFFC0000000000FFFFF0000000000000001FFF80
FFFE00000000007FFFF8000000000000003FFF80
FFFE00000000003FFFFC000000000000003FFF80
7FFE00000000001FFFFE000000000000007FFF00
7FFF00000000000FFFFF000000000000007FFF00
7FFF800000000007FFFF80000000000000FFFF00
7FFFC00000000003FFFFC0000000000001FFFE00
3FFFE00000000001FFFFE0000000000003FFFE00
3FFFF00000000000FFFFF0000000000007FFFE00
1FFFF800000000007FFFFC00000000000FFFFC00
1FFFFF00000000003FFFFF00000000007FFFFC00
0FFFFFFFE00000001FFFFFFFFFFFFFFFFFFFF800
0FFFFFFFE00000000FFFFFFFFFFFFFFFFFFFF800
07FFFFFFE000000007FFFFFFFFFFFFFFFFFFF000
03FFFFFFE000000003FFFFFFFFFFFFFFFFFFE000
01FFFFFFE000000001FFFFFFFFFFFFFFFFFFC000
00FFFFFFE000000000FFFFFFFFFFFFFFFFFF8000
007FFFFFE0000000007FFFFFFFFFFFFFFFFF0000
003FFFFFE0000000003FFFFFFFFFFFFFFFFE0000
001FFFFFE0000000001FFFFFFFFFFFFFFFFC0000
000FFFFFE00000000007FFFFFFFFFFFFFFF80000
0003FFFFE00000000003FFFFFFFFFFFFFFE00000
0000FFFFE00000000000FFFFFFFFFFFFFF800000
00003FFFE000000000001FFFFFFFFFFFFC000000
000003FFE0000000000001FFFFFFFFFFE0000000
ENDCHAR
STARTCHAR 0052
ENCODING 82
SWIDTH 1113 0
DWIDTH 167 0
BBX 153 125 0 0
BITMAP
000003FFFFFFFFFFFFFFFFFFFFFFFFFFFFFFFF80
00003FFFFFFFFFFFFFFFFFFFFFFFFFFFFFFFFF80
0000FFFFFFFFFFFFFFFFFFFFFFFFFFFFFFFFFF80
0003FFFFFFFFFFFFFFFFFFFFFFFFFFFFFFFFFF80
000FFFFFFFFFFFFFFFFFFFFFFFFFFFFFFFFFFF80
001FFFFFFFFFFFFFFFFFFFFFFFFFFFFFFFFFFF80
003FFFFFFFFFFFFFFFFFFFFFFFFFFFFFFFFFFF80
007FFFFFFFFFFFFFFFFFFFFFFFFFFFFFFFFFFF80
00FFFFFFFFFFFFFFFFFFFFFFFFFFFFFFFFFFFF80
01FFFFFFFFFFFFFFFFFFFFFFFFFFFFFFFFFFFF80
03FFFFFFFFFFFFFFFFFFFFFFFFFFFFFFFFFFFF80
07FFFFFFFFFFFFFFFFFFFFFFFFFFFFFFFFFFFF80
0FFFFFFFFFFFFFFFFFFFFFFFFFFFFFFFFFFFFF80
0FFFFFFFFFFFFFFFFFFFFFFFFFFFFFFFFFFFFF80
1FFFFF0000000000000000000000000000000000
1FFFFC0000000000000000000000000000000000
3FFFF00000000000000000000000000000000000
3FFFE00000000000000000000000000000000000
7FFFC00000000000000000000000000000000000
7FFF800000000000000000000000000000000000
7FFF000000000000000000000000000000000000
7FFE000000000000000000000000000000000000
FFFE000000000000000000000000000000000000
FFFE000000000000000000000000000000000000
FFFC000000000000000000000000000000000000
FFFC000000000000000000000000000000000000
FFFC000000000000000000000000000000000000
FFFC000000000000000000000000000000000000
FFFC000000000000000000000000000000000000
FFFC000000000000000000000000000000000000
FFFC000000000000000000000000000000000000
FFFC000000000000000000000000000000000000
FFFC000000000000000000000000000000000000
FFFC000000000000000000000000000000000000
FFFC000000000000000000000000000000000000
FFFC000000000000000000000000000000000000
FFFC000000000000000000000000000000000000
FFFC000000000000000000000000000000000000
FFFC000000000000000000000000000000000000
FFFC000000000000000000000000000000000000
FFFC000000000000000000000000000000000000
FFFC000000000000000000000000000000000000
FFFC000000000000000000000000000000000000
FFFC000000000000000000000000000000000000
FFFC000000000000000000000000000000000000
FFFC000000000000000000000000000000000000
FFFC000000000000000000000000000000000000
FFFC000000000000000000000000000000000000
FFFC000000000000000000000000000000000000
FFFC000000000000000000000000000000000000
FFFC000000000000000000000000000000000000
FFFC000000000000000000000000000000000000
FFFC000000000000000000000000000000000000
FFFC000000000000000000000000000000000000
FFFC000000000000000000000000000000000000
FFFC000000000000000000000000000000000000
FFFC000000000000000000000000000000000000
FFFC000000000000000000000000000000000000
FFFC000000000000000000000000000000000000
FFFC000000000000000000000000000000000000
FFFC000000000000000000000000000000000000
FFFC000000000000000000000000000000000000
FFFC000000000000000000000000000000000000
FFFC000000000000000000000000000000000000
FFFC000000000000000000000000000000000000
FFFC000000000000000000000000000000000000
FFFC000000000000000000000000000000000000
FFFC000000000000000000000000000000000000
FFFC000000000000000000000000000000000000
FFFC000000000000000000000000000000000000
FFFC000000000000000000000000000000000000
FFFC000000000000000000000000000000000000
FFFC000000000000000000000000000000000000
FFFC000000000000000000000000000000000000
FFFC000000000000000000000000000000000000
FFFC000000000000000000000000000000000000
FFFC000000000000000000000000000000000000
FFFC000000000000000000000000000000000000
FFFC000000000000000000000000000000000000
FFFC000000000000000000000000000000000000
FFFC000000000000000000000000000000000000
FFFC000000000000000000000000000000000000
FFFC000000000000000000000000000000000000
FFFC000000000000000000000000000000000000
FFFC000000000000000000000000000000000000
FFFC000000000000000000000000000000000000
FFFC000000000000000000000000000000000000
FFFC000000000000000000000000000000000000
FFFC000000000000000000000000000000000000
FFFC000000000000000000000000000000000000
FFFC000000000000000000000000000000000000
FFFC000000000000000000000000000000000000
FFFC000000000000000000000000000000000000
FFFC000000000000000000000000000000000000
FFFC000000000000000000000000000000000000
FFFC000000000000000000000000000000000000
FFFC000000000000000000000000000000000000
FFFC000000000000000000000000000000000000
FFFC000000000000000000000000000000000000
FFFC000000000000000000000000000000000000
FFFC000000000000000000000000000000000000
FFFC000000000000000000000000000000000000
FFFC000000000000000000000000000000000000
FFFC000000000000000000000000000000000000
FFFC000000000000000000000000000000000000
FFFC000000000000000000000000000000000000
FFFC000000000000000000000000000000000000
FFFC000000000000000000000000000000000000
FFFC000000000000000000000000000000000000
FFFC000000000000000000000000000000000000
FFFC000000000000000000000000000000000000
FFFC000000000000000000000000000000000000
FFFC000000000000000000000000000000000000
FFFC000000000000000000000000000000000000
FFFC000000000000000000000000000000000000
FFFC000000000000000000000000000000000000
FFFC000000000000000000000000000000000000
FFFC000000000000000000000000000000000000
FFFC000000000000000000000000000000000000
FFFC000000000000000000000000000000000000
FFFC000000000000000000000000000000000000
FFFC000000000000000000000000000000000000
FFFC000000000000000000000000000000000000
FFFC000000000000000000000000000000000000
FFFC000000000000000000000000000000000000
ENDCHAR
STARTCHAR 0053
ENCODING 83
SWIDTH 1113 0
DWIDTH 167 0
BBX 153 125 0 0
BITMAP
000003FFFFFFFFFFFFFFFFFFFFFFFFFFFFFFFF80
00003FFFFFFFFFFFFFFFFFFFFFFFFFFFFFFFFF80
0000FFFFFFFFFFFFFFFFFFFFFFFFFFFFFFFFFF80
0003FFFFFFFFFFFFFFFFFFFFFFFFFFFFFFFFFF80
000FFFFFFFFFFFFFFFFFFFFFFFFFFFFFFFFFFF80
001FFFFFFFFFFFFFFFFFFFFFFFFFFFFFFFFFFF80
003FFFFFFFFFFFFFFFFFFFFFFFFFFFFFFFFFFF80
007FFFFFFFFFFFFFFFFFFFFFFFFFFFFFFFFFFF80
00FFFFFFFFFFFFFFFFFFFFFFFFFFFFFFFFFFFF80
01FFFFFFFFFFFFFFFFFFFFFFFFFFFFFFFFFFFF80
03FFFFFFFFFFFFFFFFFFFFFFFFFFFFFFFFFFFF80
07FFFFFFFFFFFFFFFFFFFFFFFFFFFFFFFFFFFF80
0FFFFFFFFFFFFFFFFFFFFFFFFFFFFFFFFFFFFF80
0FFFFFFFFFFFFFFFFFFFFFFFFFFFFFFFFFFFFF80
1FFFFF0000000000000000000000000000000000
1FFFF80000000000000000000000000000000000
3FFFF00000000000000000000000000000000000
3FFFE00000000000000000000000000000000000
7FFFC00000000000000000000000000000000000
7FFF800000000000000000000000000000000000
7FFF000000000000000000000000000000000000
7FFE000000000000000000000000000000000000
FFFE000000000000000000000000000000000000
FFFE000000000000000000000000000000000000
FFFC000000000000000000000000000000000000
FFFC000000000000000000000000000000000000
FFFC000000000000000000000000000000000000
FFFC000000000000000000000000000000000000
FFFC000000000000000000000000000000000000
FFFC000000000000000000000000000000000000
FFFC000000000000000000000000000000000000
FFFC000000000000000000000000000000000000
FFFC000000000000000000000000000000000000
FFFC000000000000000000000000000000000000
FFFC000000000000000000000000000000000000
FFFC000000000000000000000000000000000000
FFFC000000000000000000000000000000000000
FFFC000000000000000000000000000000000000
FFFC000000000000000000000000000000000000
FFFC000000000000000000000000000000000000
FFFC000000000000000000000000000000000000
FFFC000000000000000000000000000000000000
FFFC000000000000000000000000000000000000
FFFC000000000000000000000000000000000000
FFFC000000000000000000000000000000000000
FFFE000000000000000000000000000000000000
FFFE000000000000000000000000000000000000
7FFE000000000000000000000000000000000000
7FFF000000000000000000000000000000000000
7FFF800000000000000000000000000000000000
7FFFC00000000000000000000000000000000000
3FFFE00000000000000000000000000000000000
3FFFF00000000000000000000000000000000000
1FFFF80000000000000000000000000000000000
1FFFFF0000000000000000000000000000000000
0FFFFFFFFFFFFFFFFFFFFFFFFFFFFFFFE0000000
0FFFFFFFFFFFFFFFFFFFFFFFFFFFFFFFFC000000
07FFFFFFFFFFFFFFFFFFFFFFFFFFFFFFFF800000
03FFFFFFFFFFFFFFFFFFFFFFFFFFFFFFFFE00000
01FFFFFFFFFFFFFFFFFFFFFFFFFFFFFFFFF00000
00FFFFFFFFFFFFFFFFFFFFFFFFFFFFFFFFFC0000
007FFFFFFFFFFFFFFFFFFFFFFFFFFFFFFFFE0000
003FFFFFFFFFFFFFFFFFFFFFFFFFFFFFFFFF0000
001FFFFFFFFFFFFFFFFFFFFFFFFFFFFFFFFF8000
000FFFFFFFFFFFFFFFFFFFFFFFFFFFFFFFFFC000
0003FFFFFFFFFFFFFFFFFFFFFFFFFFFFFFFFE000
0000FFFFFFFFFFFFFFFFFFFFFFFFFFFFFFFFF000
00003FFFFFFFFFFFFFFFFFFFFFFFFFFFFFFFF000
000003FFFFFFFFFFFFFFFFFFFFFFFFFFFFFFF800
000000000000000000000000000000007FFFFC00
000000000000000000000000000000001FFFFC00
0000000000000000000000000000000007FFFE00
0000000000000000000000000000000003FFFE00
0000000000000000000000000000000001FFFE00
0000000000000000000000000000000000FFFF00
00000000000000000000000000000000007FFF00
00000000000000000000000000000000007FFF00
00000000000000000000000000000000003FFF80
00000000000000000000000000000000003FFF80
00000000000000000000000000000000001FFF80
00000000000000000000000000000000001FFF80
00000000000000000000000000000000001FFF80
00000000000000000000000000000000001FFF80
00000000000000000000000000000000001FFF80
00000000000000000000000000000000001FFF80
00000000000000000000000000000000001FFF80
00000000000000000000000000000000001FFF80
00000000000000000000000000000000001FFF80
00000000000000000000000000000000001FFF80
00000000000000000000000000000000001FFF80
00000000000000000000000000000000001FFF80
00000000000000000000000000000000001FFF80
00000000000000000000000000000000001FFF80
00000000000000000000000000000000001FFF80
00000000000000000000000000000000001FFF80
00000000000000000000000000000000001FFF80
00000000000000000000000000000000001FFF80
00000000000000000000000000000000001FFF80
00000000000000000000000000000000001FFF80
00000000000000000000000000000000001FFF80
00000000000000000000000000000000001FFF80
00000000000000000000000000000000003FFF80
00000000000000000000000000000000003FFF80
00000000000000000000000000000000007FFF00
00000000000000000000000000000000007FFF00
0000000000000000000000000000000000FFFF00
0000000000000000000000000000000001FFFE00
0000000000000000000000000000000003FFFE00
0000000000000000000000000000000007FFFE00
000000000000000000000000000000001FFFFC00
000000000000000000000000000000007FFFFC00
FFFFFFFFFFFFFFFFFFFFFFFFFFFFFFFFFFFFF800
FFFFFFFFFFFFFFFFFFFFFFFFFFFFFFFFFFFFF000
FFFFFFFFFFFFFFFFFFFFFFFFFFFFFFFFFFFFF000
FFFFFFFFFFFFFFFFFFFFFFFFFFFFFFFFFFFFE000
FFFFFFFFFFFFFFFFFFFFFFFFFFFFFFFFFFFFC000
FFFFFFFFFFFFFFFFFFFFFFFFFFFFFFFFFFFF8000
FFFFFFFFFFFFFFFFFFFFFFFFFFFFFFFFFFFF0000
FFFFFFFFFFFFFFFFFFFFFFFFFFFFFFFFFFFE0000
FFFFFFFFFFFFFFFFFFFFFFFFFFFFFFFFFFFC0000
FFFFFFFFFFFFFFFFFFFFFFFFFFFFFFFFFFF00000
FFFFFFFFFFFFFFFFFFFFFFFFFFFFFFFFFFE00000
FFFFFFFFFFFFFFFFFFFFFFFFFFFFFFFFFF800000
FFFFFFFFFFFFFFFFFFFFFFFFFFFFFFFFFE000000
FFFFFFFFFFFFFFFFFFFFFFFFFFFFFFFFE0000000
ENDCHAR
STARTCHAR 0054
ENCODING 84
SWIDTH 1113 0
DWIDTH 167 0
BBX 152 167 0 0
BITMAP
FFFC0000000000000000000000000000000000
FFFC0000000000000000000000000000000000
FFFC0000000000000000000000000000000000
FFFC0000000000000000000000000000000000
FFFC0000000000000000000000000000000000
FFFC0000000000000000000000000000000000
FFFC0000000000000000000000000000000000
FFFC0000000000000000000000000000000000
FFFC0000000000000000000000000000000000
FFFC0000000000000000000000000000000000
FFFC0000000000000000000000000000000000
FFFC0000000000000000000000000000000000
FFFC0000000000000000000000000000000000
FFFC0000000000000000000000000000000000
FFFC0000000000000000000000000000000000
FFFC0000000000000000000000000000000000
FFFC0000000000000000000000000000000000
FFFC0000000000000000000000000000000000
FFFC0000000000000000000000000000000000
FFFC0000000000000000000000000000000000
FFFC0000000000000000000000000000000000
FFFC0000000000000000000000000000000000
FFFC0000000000000000000000000000000000
FFFC0000000000000000000000000000000000
FFFC0000000000000000000000000000000000
FFFC0000000000000000000000000000000000
FFFC0000000000000000000000000000000000
FFFC0000000000000000000000000000000000
FFFC0000000000000000000000000000000000
FFFC0000000000000000000000000000000000
FFFC0000000000000000000000000000000000
FFFC0000000000000000000000000000000000
FFFC0000000000000000000000000000000000
FFFC0000000000000000000000000000000000
FFFC0000000000000000000000000000000000
FFFC0000000000000000000000000000000000
FFFC0000000000000000000000000000000000
FFFC0000000000000000000000000000000000
FFFC0000000000000000000000000000000000
FFFC0000000000000000000000000000000000
FFFC0000000000000000000000000000000000
FFFC0000000000000000000000000000000000
FFFFFFFFFFFFFFFFFFFFFFFFFFFFFFFFFFFFFF
FFFFFFFFFFFFFFFFFFFFFFFFFFFFFFFFFFFFFF
FFFFFFFFFFFFFFFFFFFFFFFFFFFFFFFFFFFFFF
FFFFFFFFFFFFFFFFFFFFFFFFFFFFFFFFFFFFFF
FFFFFFFFFFFFFFFFFFFFFFFFFFFFFFFFFFFFFF
FFFFFFFFFFFFFFFFFFFFFFFFFFFFFFFFFFFFFF
FFFFFFFFFFFFFFFFFFFFFFFFFFFFFFFFFFFFFF
FFFFFFFFFFFFFFFFFFFFFFFFFFFFFFFFFFFFFF
FFFFFFFFFFFFFFFFFFFFFFFFFFFFFFFFFFFFFF
FFFFFFFFFFFFFFFFFFFFFFFFFFFFFFFFFFFFFF
FFFFFFFFFFFFFFFFFFFFFFFFFFFFFFFFFFFFFF
FFFFFFFFFFFFFFFFFFFFFFFFFFFFFFFFFFFFFF
FFFFFFFFFFFFFFFFFFFFFFFFFFFFFFFFFFFFFF
FFFFFFFFFFFFFFFFFFFFFFFFFFFFFFFFFFFFFF
FFFC0000000000000000000000000000000000
FFFC0000000000000000000000000000000000
FFFC0000000000000000000000000000000000
FFFC0000000000000000000000000000000000
FFFC0000000000000000000000000000000000
FFFC0000000000000000000000000000000000
FFFC0000000000000000000000000000000000
FFFC0000000000000000000000000000000000
FFFC0000000000000000000000000000000000
FFFC0000000000000000000000000000000000
FFFC0000000000000000000000000000000000
FFFC0000000000000000000000000000000000
FFFC0000000000000000000000000000000000
FFFC0000000000000000000000000000000000
FFFC0000000000000000000000000000000000
FFFC0000000000000000000000000000000000
FFFC0000000000000000000000000000000000
FFFC0000000000000000000000000000000000
FFFC0000000000000000000000000000000000
FFFC0000000000000000000000000000000000
FFFC0000000000000000000000000000000000
FFFC0000000000000000000000000000000000
FFFC0000000000000000000000000000000000
FFFC0000000000000000000000000000000000
FFFC0000000000000000000000000000000000
FFFC0000000000000000000000000000000000
FFFC0000000000000000000000000000000000
FFFC0000000000000000000000000000000000
FFFC0000000000000000000000000000000000
FFFC0000000000000000000000000000000000
FFFC0000000000000000000000000000000000
FFFC0000000000000000000000000000000000
FFFC0000000000000000000000000000000000
FFFC0000000000000000000000000000000000
FFFC0000000000000000000000000000000000
FFFC0000000000000000000000000000000000
FFFC0000000000000000000000000000000000
FFFC0000000000000000000000000000000000
FFFC0000000000000000000000000000000000
FFFC0000000000000000000000000000000000
FFFC0000000000000000000000000000000000
FFFC0000000000000000000000000000000000
FFFC0000000000000000000000000000000000
FFFC0000000000000000000000000000000000
FFFC0000000000000000000000000000000000
FFFC0000000000000000000000000000000000
FFFC0000000000000000000000000000000000
FFFC0000000000000000000000000000000000
FFFC0000000000000000000000000000000000
FFFC0000000000000000000000000000000000
FFFC0000000000000000000000000000000000
FFFC0000000000000000000000000000000000
FFFC0000000000000000000000000000000000
FFFC0000000000000000000000000000000000
FFFC0000000000000000000000000000000000
FFFC0000000000000000000000000000000000
FFFC0000000000000000000000000000000000
FFFC0000000000000000000000000000000000
FFFC0000000000000000000000000000000000
FFFC0000000000000000000000000000000000
FFFC0000000000000000000000000000000000
FFFC0000000000000000000000000000000000
FFFC0000000000000000000000000000000000
FFFC0000000000000000000000000000000000
FFFC0000000000000000000000000000000000
FFFC0000000000000000000000000000000000
FFFC0000000000000000000000000000000000
FFFC0000000000000000000000000000000000
FFFC0000000000000000000000000000000000
FFFC0000000000000000000000000000000000
FFFC0000000000000000000000000000000000
FFFC0000000000000000000000000000000000
FFFC0000000000000000000000000000000000
FFFC0000000000000000000000000000000000
FFFC0000000000000000000000000000000000
FFFC0000000000000000000000000000000000
FFFC0000000000000000000000000000000000
FFFC0000000000000000000000000000000000
FFFC0000000000000000000000000000000000
FFFC0000000000000000000000000000000000
FFFC0000000000000000000000000000000000
FFFC0000000000000000000000000000000000
FFFC0000000000000000000000000000000000
FFFC0000000000000000000000000000000000
FFFC0000000000000000000000000000000000
FFFC0000000000000000000000000000000000
FFFC0000000000000000000000000000000000
FFFE0000000000000000000000000000000000
FFFE0000000000000000000000000000000000
FFFE0000000000000000000000000000000000
7FFF0000000000000000000000000000000000
7FFF8000000000000000000000000000000000
7FFF8000000000000000000000000000000000
3FFFC000000000000000000000000000000000
3FFFF000000000000000000000000000000000
1FFFF800000000000000000000000000000000
1FFFFF00000000000000000000000000000000
0FFFFFFFFFFFFFFFFFFFFFFFFFFFFFFFFFFFFF
0FFFFFFFFFFFFFFFFFFFFFFFFFFFFFFFFFFFFF
07FFFFFFFFFFFFFFFFFFFFFFFFFFFFFFFFFFFF
03FFFFFFFFFFFFFFFFFFFFFFFFFFFFFFFFFFFF
01FFFFFFFFFFFFFFFFFFFFFFFFFFFFFFFFFFFF
00FFFFFFFFFFFFFFFFFFFFFFFFFFFFFFFFFFFF
007FFFFFFFFFFFFFFFFFFFFFFFFFFFFFFFFFFF
003FFFFFFFFFFFFFFFFFFFFFFFFFFFFFFFFFFF
001FFFFFFFFFFFFFFFFFFFFFFFFFFFFFFFFFFF
000FFFFFFFFFFFFFFFFFFFFFFFFFFFFFFFFFFF
0003FFFFFFFFFFFFFFFFFFFFFFFFFFFFFFFFFF
0000FFFFFFFFFFFFFFFFFFFFFFFFFFFFFFFFFF
00003FFFFFFFFFFFFFFFFFFFFFFFFFFFFFFFFF
000003FFFFFFFFFFFFFFFFFFFFFFFFFFFFFFFF
ENDCHAR
STARTCHAR 0055
ENCODING 85
SWIDTH 1113 0
DWIDTH 167 0
BBX 153 125 0 0
BITMAP
FFFC0000000000000000000000000000001FFF80
FFFC0000000000000000000000000000001FFF80
FFFC0000000000000000000000000000001FFF80
FFFC0000000000000000000000000000001FFF80
FFFC0000000000000000000000000000001FFF80
FFFC0000000000000000000000000000001FFF80
FFFC0000000000000000000000000000001FFF80
FFFC0000000000000000000000000000001FFF80
FFFC0000000000000000000000000000001FFF80
FFFC0000000000000000000000000000001FFF80
FFFC0000000000000000000000000000001FFF80
FFFC0000000000000000000000000000001FFF80
FFFC0000000000000000000000000000001FFF80
FFFC0000000000000000000000000000001FFF80
FFFC0000000000000000000000000000001FFF80
FFFC0000000000000000000000000000001FFF80
FFFC0000000000000000000000000000001FFF80
FFFC0000000000000000000000000000001FFF80
FFFC0000000000000000000000000000001FFF80
FFFC0000000000000000000000000000001FFF80
FFFC0000000000000000000000000000001FFF80
FFFC0000000000000000000000000000001FFF80
FFFC0000000000000000000000000000001FFF80
FFFC0000000000000000000000000000001FFF80
FFFC0000000000000000000000000000001FFF80
FFFC0000000000000000000000000000001FFF80
FFFC0000000000000000000000000000001FFF80
FFFC0000000000000000000000000000001FFF80
FFFC0000000000000000000000000000001FFF80
FFFC0000000000000000000000000000001FFF80
FFFC0000000000000000000000000000001FFF80
FFFC0000000000000000000000000000001FFF80
FFFC0000000000000000000000000000001FFF80
FFFC0000000000000000000000000000001FFF80
FFFC0000000000000000000000000000001FFF80
FFFC0000000000000000000000000000001FFF80
FFFC0000000000000000000000000000001FFF80
FFFC0000000000000000000000000000001FFF80
FFFC0000000000000000000000000000001FFF80
FFFC0000000000000000000000000000001FFF80
FFFC0000000000000000000000000000001FFF80
FFFC0000000000000000000000000000001FFF80
FFFC0000000000000000000000000000001FFF80
FFFC0000000000000000000000000000001FFF80
FFFC0000000000000000000000000000001FFF80
FFFC0000000000000000000000000000001FFF80
FFFC0000000000000000000000000000001FFF80
FFFC0000000000000000000000000000001FFF80
FFFC0000000000000000000000000000001FFF80
FFFC0000000000000000000000000000001FFF80
FFFC0000000000000000000000000000001FFF80
FFFC0000000000000000000000000000001FFF80
FFFC0000000000000000000000000000001FFF80
FFFC0000000000000000000000000000001FFF80
FFFC0000000000000000000000000000001FFF80
FFFC0000000000000000000000000000001FFF80
FFFC0000000000000000000000000000001FFF80
FFFC0000000000000000000000000000001FFF80
FFFC0000000000000000000000000000001FFF80
FFFC0000000000000000000000000000001FFF80
FFFC0000000000000000000000000000001FFF80
FFFC0000000000000000000000000000001FFF80
FFFC0000000000000000000000000000001FFF80
FFFC0000000000000000000000000000001FFF80
FFFC0000000000000000000000000000001FFF80
FFFC0000000000000000000000000000001FFF80
FFFC0000000000000000000000000000001FFF80
FFFC0000000000000000000000000000001FFF80
FFFC0000000000000000000000000000001FFF80
FFFC0000000000000000000000000000001FFF80
FFFC0000000000000000000000000000001FFF80
FFFC0000000000000000000000000000001FFF80
FFFC0000000000000000000000000000001FFF80
FFFC0000000000000000000000000000001FFF80
FFFC0000000000000000000000000000001FFF80
FFFC0000000000000000000000000000001FFF80
FFFC0000000000000000000000000000001FFF80
FFFC0000000000000000000000000000001FFF80
FFFC0000000000000000000000000000001FFF80
FFFC0000000000000000000000000000001FFF80
FFFC0000000000000000000000000000001FFF80
FFFC0000000000000000000000000000001FFF80
FFFC0000000000000000000000000000001FFF80
FFFC0000000000000000000000000000001FFF80
FFFC0000000000000000000000000000001FFF80
FFFC0000000000000000000000000000001FFF80
FFFC0000000000000000000000000000001FFF80
FFFC0000000000000000000000000000001FFF80
FFFC0000000000000000000000000000001FFF80
FFFC0000000000000000000000000000001FFF80
FFFC0000000000000000000000000000001FFF80
FFFC0000000000000000000000000000001FFF80
FFFC0000000000000000000000000000001FFF80
FFFC0000000000000000000000000000001FFF80
FFFC0000000000000000000000000000001FFF80
FFFC0000000000000000000000000000001FFF80
FFFC0000000000000000000000000000001FFF80
FFFC0000000000000000000000000000001FFF80
FFFC0000000000000000000000000000001FFF80
FFFC0000000000000000000000000000001FFF80
FFFC0000000000000000000000000000001FFF80
FFFE0000000000000000000000000000003FFF80
FFFE0000000000000000000000000000003FFF80
7FFE0000000000000000000000000000007FFF00
7FFF0000000000000000000000000000007FFF00
7FFF800000000000000000000000000000FFFF00
7FFFC00000000000000000000000000001FFFE00
3FFFE00000000000000000000000000003FFFE00
3FFFF00000000000000000000000000007FFFE00
1FFFF8000000000000000000000000000FFFFC00
1FFFFF000000000000000000000000007FFFFC00
0FFFFFFFFFFFFFFFFFFFFFFFFFFFFFFFFFFFF800
0FFFFFFFFFFFFFFFFFFFFFFFFFFFFFFFFFFFF800
07FFFFFFFFFFFFFFFFFFFFFFFFFFFFFFFFFFF000
03FFFFFFFFFFFFFFFFFFFFFFFFFFFFFFFFFFE000
01FFFFFFFFFFFFFFFFFFFFFFFFFFFFFFFFFFC000
00FFFFFFFFFFFFFFFFFFFFFFFFFFFFFFFFFF8000
007FFFFFFFFFFFFFFFFFFFFFFFFFFFFFFFFF0000
003FFFFFFFFFFFFFFFFFFFFFFFFFFFFFFFFE0000
001FFFFFFFFFFFFFFFFFFFFFFFFFFFFFFFFC0000
000FFFFFFFFFFFFFFFFFFFFFFFFFFFFFFFF80000
0003FFFFFFFFFFFFFFFFFFFFFFFFFFFFFFE00000
0000FFFFFFFFFFFFFFFFFFFFFFFFFFFFFF800000
00003FFFFFFFFFFFFFFFFFFFFFFFFFFFFE000000
000003FFFFFFFFFFFFFFFFFFFFFFFFFFE0000000
ENDCHAR
STARTCHAR 0056
ENCODING 86
SWIDTH 1113 0
DWIDTH 167 0
BBX 153 125 0 0
BITMAP
FFFC0000000000000000000000000000001FFF80
FFFC0000000000000000000000000000001FFF80
FFFC0000000000000000000000000000001FFF80
FFFC0000000000000000000000000000001FFF80
FFFC0000000000000000000000000000001FFF80
FFFC0000000000000000000000000000001FFF80
FFFC0000000000000000000000000000001FFF80
FFFC0000000000000000000000000000001FFF80
FFFC0000000000000000000000000000001FFF80
FFFC0000000000000000000000000000001FFF80
FFFC0000000000000000000000000000001FFF80
FFFC0000000000000000000000000000001FFF80
FFFC0000000000000000000000000000001FFF80
FFFC0000000000000000000000000000001FFF80
FFFC0000000000000000000000000000001FFF80
FFFC0000000000000000000000000000001FFF80
FFFC0000000000000000000000000000001FFF80
FFFC0000000000000000000000000000001FFF80
FFFC0000000000000000000000000000001FFF80
FFFC0000000000000000000000000000001FFF80
FFFC0000000000000000000000000000001FFF80
FFFC0000000000000000000000000000001FFF80
FFFC0000000000000000000000000000001FFF80
FFFC0000000000000000000000000000001FFF80
FFFC0000000000000000000000000000001FFF80
FFFC0000000000000000000000000000001FFF80
FFFC0000000000000000000000000000001FFF80
FFFC0000000000000000000000000000001FFF80
FFFC0000000000000000000000000000001FFF80
FFFC0000000000000000000000000000001FFF80
FFFC0000000000000000000000000000001FFF80
FFFC0000000000000000000000000000001FFF80
FFFC0000000000000000000000000000001FFF80
FFFC0000000000000000000000000000001FFF80
FFFC0000000000000000000000000000001FFF80
FFFC0000000000000000000000000000001FFF80
FFFC0000000000000000000000000000001FFF80
FFFE0000000000000000000000000000001FFF80
FFFE0000000000000000000000000000001FFF80
7FFF0000000000000000000000000000001FFF80
7FFF0000000000000000000000000000001FFF80
7FFF8000000000000000000000000000001FFF80
3FFFC000000000000000000000000000001FFF80
3FFFE000000000000000000000000000001FFF80
3FFFF000000000000000000000000000001FFF80
1FFFF800000000000000000000000000001FFF80
0FFFFC00000000000000000000000000001FFF80
0FFFFE00000000000000000000000000001FFF80
07FFFF00000000000000000000000000001FFF80
07FFFF80000000000000000000000000001FFF80
03FFFFC0000000000000000000000000001FFF80
01FFFFE0000000000000000000000000001FFF80
00FFFFF0000000000000000000000000001FFF80
007FFFF8000000000000000000000000001FFF80
003FFFFC000000000000000000000000001FFF80
001FFFFE000000000000000000000000001FFF80
000FFFFF000000000000000000000000001FFF80
0007FFFF800000000000000000000000001FFF80
0003FFFFC00000000000000000000000001FFF80
0001FFFFE00000000000000000000000001FFF80
0000FFFFF00000000000000000000000001FFF80
00007FFFF80000000000000000000000001FFF80
00003FFFFC0000000000000000000000001FFF80
00001FFFFE0000000000000000000000001FFF80
00000FFFFF0000000000000000000000001FFF80
000007FFFF8000000000000000000000001FFF80
000003FFFFC000000000000000000000001FFF80
000001FFFFE000000000000000000000001FFF80
000000FFFFF000000000000000000000001FFF80
0000007FFFF800000000000000000000001FFF80
0000003FFFFC00000000000000000000001FFF80
0000001FFFFE00000000000000000000001FFF80
0000000FFFFF00000000000000000000001FFF80
00000007FFFF80000000000000000000001FFF80
00000003FFFFC0000000000000000000001FFF80
00000001FFFFE0000000000000000000001FFF80
00000000FFFFF0000000000000000000001FFF80
000000007FFFF8000000000000000000001FFF80
000000003FFFFC000000000000000000001FFF80
000000001FFFFE000000000000000000001FFF80
000000000FFFFF000000000000000000001FFF80
0000000007FFFF800000000000000000001FFF80
0000000003FFFFC00000000000000000001FFF80
0000000001FFFFE00000000000000000001FFF80
0000000000FFFFF00000000000000000001FFF80
00000000007FFFF80000000000000000001FFF80
00000000003FFFFC0000000000000000001FFF80
00000000001FFFFE0000000000000000001FFF80
00000000000FFFFF0000000000000000001FFF80
000000000007FFFF8000000000000000001FFF80
000000000003FFFFC000000000000000001FFF80
000000000001FFFFE000000000000000001FFF80
000000000000FFFFF000000000000000001FFF80
0000000000007FFFF800000000000000001FFF80
0000000000003FFFFC00000000000000001FFF80
0000000000001FFFFE00000000000000001FFF80
0000000000000FFFFF00000000000000001FFF80
00000000000007FFFF80000000000000001FFF80
00000000000003FFFFC0000000000000001FFF80
00000000000001FFFFE0000000000000001FFF80
00000000000000FFFFF0000000000000001FFF80
000000000000007FFFF8000000000000003FFF80
000000000000003FFFFC000000000000003FFF80
000000000000001FFFFE000000000000007FFF00
000000000000000FFFFF000000000000007FFF00
0000000000000007FFFF80000000000000FFFF00
0000000000000003FFFFC0000000000001FFFE00
0000000000000001FFFFE0000000000003FFFE00
0000000000000000FFFFF0000000000007FFFE00
00000000000000007FFFFC00000000000FFFFC00
00000000000000003FFFFF00000000007FFFFC00
00000000000000001FFFFFFFFFFFFFFFFFFFF800
00000000000000000FFFFFFFFFFFFFFFFFFFF000
000000000000000007FFFFFFFFFFFFFFFFFFF000
000000000000000003FFFFFFFFFFFFFFFFFFE000
000000000000000001FFFFFFFFFFFFFFFFFFC000
000000000000000000FFFFFFFFFFFFFFFFFF8000
0000000000000000007FFFFFFFFFFFFFFFFF0000
0000000000000000003FFFFFFFFFFFFFFFFE0000
0000000000000000001FFFFFFFFFFFFFFFFC0000
00000000000000000007FFFFFFFFFFFFFFF00000
00000000000000000003FFFFFFFFFFFFFFE00000
00000000000000000000FFFFFFFFFFFFFF800000
000000000000000000001FFFFFFFFFFFFC000000
0000000000000000000003FFFFFFFFFFE0000000
ENDCHAR
ENDFONT
